SplineFontDB: 3.0
FontName: MenaionUnicode
FullName: Menaion Unicode
FamilyName: Menaion Unicode
Weight: Book
Copyright: Menaion Unicode Copyright (c) 2013-2015 Aleksandr Andreev.\n\nBased on Menaion Copyright (c) LCAPR, UdSU; LD, ISTU, 2010. Used with permission.\n\nThis font is part of the Ponomar Project, see http://www.ponomar.net/ for more information.
Version: 2.0
DefaultBaseFilename: MenaionUnicode
ItalicAngle: 0
UnderlinePosition: -78
UnderlineWidth: 102
Ascent: 800
Descent: 200
sfntRevision: 0x00010000
LayerCount: 3
Layer: 0 1 "Back"  1
Layer: 1 0 "Fore"  0
Layer: 2 1 "TTFLayer"  0
NeedsXUIDChange: 1
XUID: [1021 130 1332205325 10107922]
UseXUID: 1
FSType: 0
OS2Version: 3
OS2_WeightWidthSlopeOnly: 0
OS2_UseTypoMetrics: 1
CreationTime: 1269256071
ModificationTime: 1446380103
PfmFamily: 17
TTFWeight: 400
TTFWidth: 5
LineGap: 50
VLineGap: 0
Panose: 2 0 0 0 0 0 0 0 0 0
OS2TypoAscent: 50
OS2TypoAOffset: 1
OS2TypoDescent: -250
OS2TypoDOffset: 1
OS2TypoLinegap: 100
OS2WinAscent: 176
OS2WinAOffset: 1
OS2WinDescent: 15
OS2WinDOffset: 1
HheadAscent: 176
HheadAOffset: 1
HheadDescent: -15
HheadDOffset: 1
OS2FamilyClass: 256
OS2Vendor: 'PYRS'
OS2CodePages: 0000000d.00000000
OS2UnicodeRanges: f7ffaeff.fbdfffff.1ffbffff.00000000
Lookup: 4 0 0 "'ccmp' Canonical Equivalents"  {"'ccmp' Canonical Equivalents-Latin"  "'ccmp' Canonical Equivalents-Greek"  "'ccmp' Canonical Equivalents-Cyrillic"  } ['ccmp' ('DFLT' <'dflt' > 'byzm' <'dflt' > 'cyrl' <'dflt' > 'geor' <'dflt' > 'grek' <'dflt' > 'latn' <'dflt' > ) ]
Lookup: 4 0 0 "'ccmp' Cyrillic Ligatures"  {"'ccmp' Cyrillic Ligatures-1"  } ['ccmp' ('DFLT' <'dflt' > 'byzm' <'dflt' > 'cyrl' <'dflt' > 'geor' <'dflt' > 'grek' <'dflt' > 'latn' <'dflt' > ) ]
Lookup: 258 0 0 "'kern' Slavonic Digraphs"  {"'kern' Slavonic Digraphs-1" [150,15,2] } ['kern' ('DFLT' <'dflt' > 'byzm' <'dflt' > 'cyrl' <'dflt' > 'geor' <'dflt' > 'grek' <'dflt' > 'latn' <'dflt' > ) ]

StartChar: uni003A
Encoding: 58 58 1
Width: 36
Flags: W
HStem: -9 122<-24.4358 60.4358> 358 124<-24.4358 60.4357>
VStem: -43 122<9.04896 94.4357 376.564 463.436>
LayerCount: 3
Fore
SplineSet
18 482 m 0
 34.6667 482 49 476 61 464 c 0
 73 452 79 437.333 79 420 c 0
 79 403.333 73 388.833 61 376.5 c 0
 49 364.167 34.6667 358 18 358 c 256
 1.33333 358 -13 364 -25 376 c 0
 -37 388 -43 402.333 -43 419 c 0
 -43 436.335 -36.8333 451.168 -24.5 463.5 c 0
 -12.1667 475.833 2 482 18 482 c 0
18 113 m 256
 35.3333 113 49.8333 107 61.5 95 c 0
 73.1667 83 79 68.6667 79 52 c 0
 79 34.6667 73 20.1667 61 8.5 c 0
 49 -3.16667 34.6667 -9 18 -9 c 256
 1.33333 -9 -13 -3.16667 -25 8.5 c 0
 -37 20.1667 -43 34.6667 -43 52 c 0
 -43 68.6667 -37.1667 83 -25.5 95 c 0
 -13.8333 107 0.666667 113 18 113 c 256
EndSplineSet
Validated: 1
Layer: 2
SplineSet
-24 464 m 0,0,1
 -6 482 -6 482 18.5 482 c 128,-1,2
 43 482 43 482 61 464 c 128,-1,3
 79 446 79 446 79 420.5 c 128,-1,4
 79 395 79 395 61 376.5 c 128,-1,5
 43 358 43 358 18 358 c 256,6,7
 -7 358 -7 358 -25 376 c 128,-1,8
 -43 394 -43 394 -43 419.5 c 128,-1,9
 -43 445 -43 445 -24 464 c 0,0,1
18 113 m 256,10,11
 44 113 44 113 61.5 95 c 128,-1,12
 79 77 79 77 79 51.5 c 129,-1,13
 79 26 79 26 61 8.5 c 128,-1,14
 43 -9 43 -9 18 -9 c 256,15,16
 -7 -9 -7 -9 -25 8.5 c 128,-1,17
 -43 26 -43 26 -43 52 c 0,18,19
 -43 77 -43 77 -25.5 95 c 128,-1,20
 -8 113 -8 113 18 113 c 256,10,11
EndSplineSet
Validated: 1
EndChar

StartChar: uni003B
Encoding: 59 59 2
Width: 31
Flags: W
HStem: 1 111<-31.467 33.7191> 360 124<-29.4358 55.951>
VStem: -48 122<379.08 465.436> 35 55<-64.1389 7.84413>
LayerCount: 3
Fore
SplineSet
13 484 m 0xe0
 30.3333 484 44.8333 478 56.5 466 c 0
 68.1667 454 74 439.333 74 422 c 0
 74 405.333 68.1667 390.833 56.5 378.5 c 0
 44.8333 366.167 30.3333 360 13 360 c 0
 -3.66667 360 -18 366 -30 378 c 0
 -42 390 -48 404.333 -48 421 c 0
 -48 438.334 -41.8333 453.168 -29.5 465.5 c 0
 -17.1667 477.833 -3 484 13 484 c 0xe0
-39 -176 m 1
 -65 -144 l 1
 1.66666 -89.3333 35 -43.6667 35 -7 c 0
 35 -4 35 -4 35 -0.5 c 0
 35 1.83333 34.6667 4.66667 34 8 c 1
 28 6 22.5 4.33333 17.5 3 c 0
 12.5 1.66667 7.66667 1 3 1 c 0
 -13 1 -25.6667 6 -35 16 c 0
 -44.3333 26 -49 39 -49 55 c 0
 -49 70.3334 -43.3333 83.6667 -32 95 c 0
 -20.6667 106.333 -7 112 9 112 c 0
 31 112 50 103.167 66 85.5 c 0
 82 67.8333 90 45 90 17 c 0xd0
 90 -0.333334 88.1667 -15.8333 84.5 -29.5 c 0
 80.8332 -43.1667 74.1665 -57.1667 64.5 -71.5 c 0
 54.8333 -85.8333 41.6667 -101.333 25 -118 c 0
 8.33333 -134.667 -13 -154 -39 -176 c 1
EndSplineSet
Validated: 1
Layer: 2
SplineSet
-30 466 m 0,0,1
 -11 484 -11 484 14 484 c 128,-1,2
 39 484 39 484 56.5 466 c 128,-1,3
 74 448 74 448 74 422.5 c 129,-1,4
 74 397 74 397 56.5 378.5 c 128,-1,5
 39 360 39 360 13.5 360 c 128,-1,6
 -12 360 -12 360 -30 378 c 128,-1,7
 -48 396 -48 396 -48 421.5 c 128,-1,8
 -48 447 -48 447 -30 466 c 0,0,1
34 8 m 1,9,10
 13 1 13 1 1 1 c 128,-1,11
 -11 1 -11 1 -35 16 c 1,12,13
 -49 31 -49 31 -49 54 c 0,14,15
 -49 78 -49 78 -32 95 c 128,-1,16
 -15 112 -15 112 14 112 c 0,17,18
 42 112 42 112 66 85 c 0,19,20
 90 59 90 59 90 25 c 0,21,22
 90 -6 90 -6 84 -30 c 0,23,24
 79 -50 79 -50 64 -72 c 0,25,26
 38 -111 38 -111 -39 -176 c 1,27,-1
 -65 -144 l 1,28,29
 35 -62 35 -62 35 -7 c 2,30,-1
 35 -0 l 2,31,32
 35 3 35 3 34 8 c 1,9,10
EndSplineSet
Validated: 1
EndChar

StartChar: uni00CB
Encoding: 203 203 3
Width: 609
Flags: W
HStem: 0 36<212.625 478.412> 0 18<21 87.52> 329 35<209 429.812> 626 36<209 480.609> 644 18<21 95.6023> 709 96<184.084 265.916 373.337 454.663>
VStem: 115 94<38.5037 329 364 625.069> 177 96<715.508 798.492> 366 96<716.337 797.663> 458 19<230 279.922 405.988 460> 519 12<517 543.747>
AnchorPoint: "Diacritic" 294 700.5 mark 0
AnchorPoint: "Stacking" 294 701.2 mark 0
AnchorPoint: "Stacking" 296 929.5 basemark 0
LayerCount: 3
Fore
SplineSet
366 757 m 0x24a0
 366 776 366 776 380.5 790.5 c 0
 395 805 395 805 414 805 c 0
 433 805 433 805 447.5 790.5 c 0
 462 776 462 776 462 757 c 0
 462 738 462 738 447.5 723.5 c 0
 433 709 433 709 414 709 c 0
 395 709 395 709 380.5 723.5 c 0
 366 738 366 738 366 757 c 0x24a0
177 757 m 0x2520
 177 776 177 776 191 790.5 c 0
 205 805 205 805 225 805 c 0
 245 805 245 805 259 790.5 c 0
 273 776 273 776 273 757 c 0
 273 738 273 738 259 723.5 c 0
 245 709 245 709 225 709 c 0
 205 709 205 709 191 723.5 c 0
 177 738 177 738 177 757 c 0x2520
209 626 m 1x3660
 209 364 l 1
 354 364 l 2
 409 364 442 375 452 417 c 0
 456 429 458 443 458 460 c 1
 477 460 l 1
 477 230 l 1
 458 230 l 1
 451 278 448 314 405 324 c 0
 392 328 375 329 354 329 c 2
 209 329 l 1
 209 110 l 2
 209 100 209 91 209 82 c 0
 209 60 211 43 232 38 c 0
 239 37 250 36 264 36 c 2
 376 36 l 2xb660
 458 36 502 55 534 105 c 0
 545 122 556 142 568 166 c 1
 588 166 l 1
 531 0 l 1
 21 0 l 1
 21 18 l 1
 44 18 l 2
 86 18 104 31 111 66 c 0
 114 79 115 96 115 117 c 2
 115 547 l 2
 115 593 113 640 76 644 c 0
 72.6667 644.667 69.3333 644.889 65.9259 644.889 c 0
 59.1111 644.889 52 644 44 644 c 2
 21 644 l 1
 21 662 l 1
 531 662 l 1x6e60
 531 517 l 1
 519 517 l 1
 508 571 500 614 447 622 c 0
 432 625 414 626 391 626 c 2
 209 626 l 1x3660
EndSplineSet
Layer: 2
SplineSet
366 757 m 0,0,1
 366 770 366 770 368 775 c 128,-1,2
 370 780 370 780 381 791 c 128,-1,3
 392 802 392 802 395 803 c 0,4,5
 400 805 400 805 414 805 c 0,6,7
 427 805 427 805 432 803 c 128,-1,8
 437 801 437 801 448 790 c 128,-1,9
 459 779 459 779 460 776 c 0,10,11
 462 771 462 771 462 757 c 0,12,13
 462 744 462 744 460 739 c 128,-1,14
 458 734 458 734 447 723 c 128,-1,15
 436 712 436 712 433 711 c 0,16,17
 428 709 428 709 414 709 c 0,18,19
 401 709 401 709 396 711 c 128,-1,20
 391 713 391 713 380 724 c 0,21,22
 370 734 370 734 368 738.5 c 128,-1,23
 366 743 366 743 366 757 c 0,0,1
177 757 m 0,24,25
 177 770 177 770 179 775 c 128,-1,26
 181 780 181 780 191 791 c 0,27,28
 201 801 201 801 205.5 803 c 128,-1,29
 210 805 210 805 225 805 c 0,30,31
 239 805 239 805 244 803 c 0,32,33
 245 802 245 802 259 790 c 0,34,35
 271 779 271 779 272 776 c 0,36,37
 273 771 273 771 273 757 c 0,38,39
 273 749 273 749 271 739 c 0,40,41
 270 734 270 734 259 723 c 0,42,43
 249 713 249 713 244.5 711 c 128,-1,44
 240 709 240 709 225 709 c 0,45,46
 211 709 211 709 206 711 c 128,-1,47
 201 713 201 713 191 724 c 0,48,49
 181 734 181 734 179 738.5 c 128,-1,50
 177 743 177 743 177 757 c 0,24,25
66 645 m 1,51,-1
 44 644 l 1,52,-1
 21 644 l 1,53,-1
 21 662 l 1,54,-1
 531 662 l 1,55,-1
 531 517 l 1,56,-1
 519 517 l 1,57,58
 508 565 508 565 499.5 584 c 128,-1,59
 491 603 491 603 478 611 c 0,60,61
 455 626 455 626 391 626 c 2,62,-1
 209 626 l 1,63,-1
 209 364 l 1,64,-1
 354 364 l 2,65,66
 398 364 398 364 421.5 375.5 c 128,-1,67
 445 387 445 387 452 417 c 1,68,69
 458 435 458 435 458 460 c 1,70,-1
 477 460 l 1,71,-1
 477 230 l 1,72,-1
 458 230 l 1,73,74
 448 301 448 301 430 313 c 0,75,76
 406 329 406 329 354 329 c 2,77,-1
 209 329 l 1,78,-1
 209 82 l 2,79,80
 209 43 209 43 232 38 c 1,81,82
 246 36 246 36 264 36 c 2,83,-1
 376 36 l 2,84,85
 438 36 438 36 474 52 c 128,-1,86
 510 68 510 68 534 105 c 0,87,88
 549 129 549 129 568 166 c 1,89,-1
 588 166 l 1,90,-1
 531 0 l 1,91,-1
 21 0 l 1,92,-1
 21 18 l 1,93,-1
 44 18 l 2,94,95
 75 18 75 18 90.5 29 c 128,-1,96
 106 40 106 40 110.5 61.5 c 128,-1,97
 115 83 115 83 115 117 c 2,98,-1
 115 547 l 2,99,100
 115 576 115 576 113.5 593 c 128,-1,101
 112 610 112 610 102 626 c 0,102,103
 91 645 91 645 66 645 c 1,51,-1
EndSplineSet
Validated: 1
LCarets2: 1 0 
Ligature2: "'ccmp' Canonical Equivalents-Latin" uni0045 uni0308
EndChar

StartChar: uni00A8
Encoding: 168 168 4
Width: 476
Flags: W
HStem: 192 123<28.049 114.436 362.049 448.436>
VStem: 10 123<210.049 296.436> 344 123<210.049 296.436>
LayerCount: 3
Fore
SplineSet
344 253 m 256
 344 270.333 349.833 285 361.5 297 c 0
 373.167 309 387.667 315 405 315 c 256
 422.333 315 437 309 449 297 c 0
 461 285 467 270.333 467 253 c 256
 467 235.667 461 221.167 449 209.5 c 0
 437 197.833 422.333 192 405 192 c 256
 387.667 192 373.167 197.833 361.5 209.5 c 0
 349.833 221.167 344 235.667 344 253 c 256
10 253 m 256
 10 270.333 15.833 285 27.5 297 c 0
 39.167 309 53.667 315 71 315 c 256
 88.333 315 103 309 115 297 c 0
 127 285 133 270.333 133 253 c 256
 133 235.667 127 221.167 115 209.5 c 0
 103 197.833 88.333 192 71 192 c 256
 53.667 192 39.167 197.833 27.5 209.5 c 0
 15.833 221.167 10 235.667 10 253 c 256
EndSplineSet
Validated: 1
Layer: 2
SplineSet
344 253 m 256,0,1
 344 279 344 279 361.5 297 c 128,-1,2
 379 315 379 315 405 315 c 256,3,4
 431 315 431 315 449 297 c 128,-1,5
 467 279 467 279 467 253 c 256,6,7
 467 227 467 227 449 209.5 c 128,-1,8
 431 192 431 192 405 192 c 128,-1,9
 379 192 379 192 361.5 209.5 c 128,-1,10
 344 227 344 227 344 253 c 256,0,1
10 253 m 128,-1,12
 10 279 10 279 27.5 297 c 128,-1,13
 45 315 45 315 71 315 c 256,14,15
 97 315 97 315 115 297 c 128,-1,16
 133 279 133 279 133 253 c 256,17,18
 133 228 133 228 115 210 c 128,-1,19
 97 192 97 192 71 192 c 256,20,21
 45 192 45 192 27.5 209.5 c 128,-1,11
 10 227 10 227 10 253 c 128,-1,12
EndSplineSet
Validated: 1
EndChar

StartChar: uni2030
Encoding: 8240 8240 5
Width: 1000
Flags: W
HStem: -27 61<469.599 557.36 798.599 886.36> 289 61<467.849 557.179 797.149 886.179> 345 62<114.599 202.36> 662 60<112.849 202.179>
VStem: 18 72<432.545 636.249> 226 72<431.716 637.847> 373 72<60.0454 263.083> 581 72<59.2159 264.387> 702 72<60.0454 262.122> 910 72<59.2159 264.387>
DStem2: 157 -25 222 -25 0.362625 0.931935<23.5707 807.996>
LayerCount: 3
Fore
SplineSet
514 728 m 1x9fc0
 222 -25 l 1
 157 -25 l 1
 450 728 l 1
 514 728 l 1x9fc0
157 722 m 256
 203 722 238 706 262 674 c 0
 286 642 298 596.667 298 538 c 0
 298 409.333 251.333 345 158 345 c 0xbfc0
 112 345 77.1667 361.167 53.5 393.5 c 0
 29.8333 425.833 18 473.333 18 536 c 0
 18 596 29.6667 642 53 674 c 0
 76.3333 706 111 722 157 722 c 256
160 407 m 0
 204 407 226 449.333 226 534 c 0
 226 619.333 203.333 662 158 662 c 0
 136 662 119.167 652.5 107.5 633.5 c 0
 95.8333 614.5 90 581 90 533 c 0
 90 449 113.333 407 160 407 c 0
841 350 m 256xdfc0
 887 350 922 334 946 302 c 0
 970 270 982 224.667 982 166 c 0
 982 37.3333 935.333 -27 842 -27 c 0
 796 -27 761.167 -10.8333 737.5 21.5 c 0
 713.833 53.8333 702 101.333 702 164 c 0
 702 222.667 713.667 268.333 737 301 c 0
 760.333 333.667 795 350 841 350 c 256xdfc0
844 34 m 0
 888 34 910 76.3333 910 161 c 0
 910 246.333 887.333 289 842 289 c 0
 820.667 289 804 279.5 792 260.5 c 0
 780 241.5 774 208 774 160 c 0
 774 76 797.333 34 844 34 c 0
512 350 m 256
 558 350 593 334 617 302 c 0
 641 270 653 224.667 653 166 c 0
 653 37.3333 606.333 -27 513 -27 c 0
 467 -27 432.167 -10.8333 408.5 21.5 c 0
 384.833 53.8333 373 101.333 373 164 c 0
 373 222.667 384.667 268.333 408 301 c 0
 431.333 333.667 466 350 512 350 c 256
515 34 m 0
 559 34 581 76.3333 581 161 c 0
 581 246.333 558.333 289 513 289 c 0
 491 289 474.167 279.5 462.5 260.5 c 0
 450.833 241.5 445 208 445 160 c 0
 445 76 468.333 34 515 34 c 0
EndSplineSet
Validated: 1
Layer: 2
SplineSet
514 728 m 1,0,-1
 222 -25 l 1,1,-1
 157 -25 l 1,2,-1
 450 728 l 1,3,-1
 514 728 l 1,0,-1
157 722 m 256,4,5
 226 722 226 722 262 674 c 128,-1,6
 298 626 298 626 298 538 c 0,7,8
 298 345 298 345 158 345 c 0,9,10
 89 345 89 345 53.5 393.5 c 128,-1,11
 18 442 18 442 18 534 c 128,-1,12
 18 626 18 626 53 674 c 128,-1,13
 88 722 88 722 157 722 c 256,4,5
160 407 m 0,14,15
 226 407 226 407 226 534.5 c 128,-1,16
 226 662 226 662 158 662 c 0,17,18
 125 662 125 662 107.5 633.5 c 128,-1,19
 90 605 90 605 90 533 c 0,20,21
 90 407 90 407 160 407 c 0,14,15
841 350 m 256,22,23
 910 350 910 350 946 302 c 128,-1,24
 982 254 982 254 982 166 c 0,25,26
 982 -27 982 -27 842 -27 c 0,27,28
 773 -27 773 -27 737.5 21.5 c 128,-1,29
 702 70 702 70 702 161 c 128,-1,30
 702 252 702 252 737 301 c 128,-1,31
 772 350 772 350 841 350 c 256,22,23
844 34 m 0,32,33
 910 34 910 34 910 161 c 0,34,35
 910 289 910 289 842 289 c 0,36,37
 810 289 810 289 792 260.5 c 128,-1,38
 774 232 774 232 774 160 c 0,39,40
 774 34 774 34 844 34 c 0,32,33
512 350 m 256,41,42
 581 350 581 350 617 302 c 128,-1,43
 653 254 653 254 653 166 c 0,44,45
 653 -27 653 -27 513 -27 c 0,46,47
 444 -27 444 -27 408.5 21.5 c 128,-1,48
 373 70 373 70 373 161 c 128,-1,49
 373 252 373 252 408 301 c 128,-1,50
 443 350 443 350 512 350 c 256,41,42
515 34 m 0,51,52
 581 34 581 34 581 161 c 0,53,54
 581 289 581 289 513 289 c 0,55,56
 480 289 480 289 462.5 260.5 c 128,-1,57
 445 232 445 232 445 160 c 0,58,59
 445 34 445 34 515 34 c 0,51,52
EndSplineSet
Validated: 1
EndChar

StartChar: uni2039
Encoding: 8249 8249 6
Width: 333
Flags: W
VStem: 44 100<208 308>
LayerCount: 3
Fore
SplineSet
271 35 m 1
 199 35 l 1
 44 258 l 1
 199 481 l 1
 271 481 l 1
 144 258 l 1
 271 35 l 1
EndSplineSet
Validated: 1
Layer: 2
SplineSet
271 35 m 1,0,-1
 199 35 l 1,1,-1
 44 258 l 1,2,-1
 199 481 l 1,3,-1
 271 481 l 1,4,-1
 144 258 l 1,5,-1
 271 35 l 1,0,-1
EndSplineSet
Validated: 1
EndChar

StartChar: uni203A
Encoding: 8250 8250 7
Width: 333
Flags: W
VStem: 189 100<208 308>
LayerCount: 3
Fore
SplineSet
289 258 m 1
 134 35 l 1
 62 35 l 1
 189 258 l 1
 62 481 l 1
 134 481 l 1
 289 258 l 1
EndSplineSet
Validated: 1
Layer: 2
SplineSet
289 258 m 1,0,-1
 134 35 l 1,1,-1
 62 35 l 1,2,-1
 189 258 l 1,3,-1
 62 481 l 1,4,-1
 134 481 l 1,5,-1
 289 258 l 1,0,-1
EndSplineSet
Validated: 1
EndChar

StartChar: uni2044
Encoding: 8260 8260 8
Width: 0
Flags: W
VStem: -309 77<-25 52> 230 76<656 732>
DStem2: -309 -25 -232 -25 0.580016 0.814605<44.6612 929.285>
LayerCount: 3
Fore
SplineSet
306 732 m 1
 -232 -25 l 1
 -309 -25 l 1
 230 732 l 1
 306 732 l 1
EndSplineSet
Validated: 1
Layer: 2
SplineSet
306 732 m 1,0,-1
 -232 -25 l 1,1,-1
 -309 -25 l 1,2,-1
 230 732 l 1,3,-1
 306 732 l 1,0,-1
EndSplineSet
Validated: 1
EndChar

StartChar: uni201A
Encoding: 8218 8218 9
Width: 222
Flags: W
HStem: 0 102<61 107>
VStem: 61 94<0.0623572 102> 107 48<-73.0488 0>
LayerCount: 3
Fore
SplineSet
155 22 m 2xc0
 155 5.33333 154.333 -10.1667 153 -24.5 c 0
 151.667 -38.8333 148.5 -52.3333 143.5 -65 c 0
 138.5 -77.6667 130.5 -89.5 119.5 -100.5 c 0
 108.5 -111.5 93.6667 -122 75 -132 c 1
 53 -98 l 1
 87.6667 -84 105.667 -51.3333 107 0 c 1xa0
 61 0 l 1
 61 102 l 1
 155 102 l 1
 155 22 l 2xc0
EndSplineSet
Validated: 1
Layer: 2
SplineSet
155 22 m 2,0,1
 155 -36 155 -36 146 -60 c 0,2,3
 136 -84 136 -84 119.5 -100.5 c 128,-1,4
 103 -117 103 -117 75 -132 c 1,5,-1
 53 -98 l 1,6,7
 105 -77 105 -77 107 0 c 1,8,-1
 61 0 l 1,9,-1
 61 102 l 1,10,-1
 155 102 l 1,11,-1
 155 22 l 2,0,1
EndSplineSet
Validated: 1
EndChar

StartChar: uni201C
Encoding: 8220 8220 10
Width: 333
Flags: W
HStem: 494 102<91 137 243 289>
VStem: 43 94<494 595.938> 43 48<596 669.438> 195 94<494 595.938> 195 48<596 669.438>
LayerCount: 3
Fore
SplineSet
297 694 m 1x90
 261.667 678.667 243.667 646 243 596 c 1x88
 289 596 l 1
 289 494 l 1
 195 494 l 1
 195 574 l 2
 195 590.667 195.667 606.167 197 620.5 c 0
 198.333 634.833 201.5 648.333 206.5 661 c 0
 211.5 673.667 219.333 685.5 230 696.5 c 0
 240.667 707.5 255.667 718 275 728 c 1
 297 694 l 1x90
145 694 m 1
 109.667 678.667 91.6666 646 91 596 c 1xa0
 137 596 l 1
 137 494 l 1
 43 494 l 1
 43 574 l 2xc0
 43 590.667 43.6667 606.167 45 620.5 c 0
 46.3333 634.833 49.5 648.333 54.5 661 c 0
 59.5 673.667 67.3333 685.5 78 696.5 c 0
 88.6667 707.5 103.667 718 123 728 c 1
 145 694 l 1
EndSplineSet
Validated: 1
Layer: 2
SplineSet
297 694 m 1,0,1
 244 671 244 671 243 596 c 1,2,-1
 289 596 l 1,3,-1
 289 494 l 1,4,-1
 195 494 l 1,5,-1
 195 574 l 2,6,7
 195 632 195 632 204.5 656 c 128,-1,8
 214 680 214 680 230 696 c 0,9,10
 246 713 246 713 275 728 c 1,11,-1
 297 694 l 1,0,1
145 694 m 1,12,13
 92 671 92 671 91 596 c 1,14,-1
 137 596 l 1,15,-1
 137 494 l 1,16,-1
 43 494 l 1,17,-1
 43 574 l 2,18,19
 43 632 43 632 52.5 656 c 128,-1,20
 62 680 62 680 78 696 c 0,21,22
 94 713 94 713 123 728 c 1,23,-1
 145 694 l 1,12,13
EndSplineSet
Validated: 1
EndChar

StartChar: uni201E
Encoding: 8222 8222 11
Width: 333
Flags: W
HStem: 0 102<44 90 196 242>
VStem: 44 94<0.0623572 102> 90 48<-73.0488 0> 196 94<0.0623572 102> 242 48<-73.0488 0>
LayerCount: 3
Fore
SplineSet
290 22 m 2x90
 290 5.33333 289.333 -10.1667 288 -24.5 c 0
 286.667 -38.8333 283.5 -52.3333 278.5 -65 c 0
 273.5 -77.6667 265.5 -89.5 254.5 -100.5 c 0
 243.5 -111.5 228.667 -122 210 -132 c 1
 188 -98 l 1
 222.667 -84 240.667 -51.3333 242 0 c 1x88
 196 0 l 1
 196 102 l 1
 290 102 l 1
 290 22 l 2x90
138 22 m 2xc0
 138 5.33333 137.333 -10.1667 136 -24.5 c 0
 134.667 -38.8333 131.5 -52.3333 126.5 -65 c 0
 121.5 -77.6667 113.5 -89.5 102.5 -100.5 c 0
 91.5 -111.5 76.6667 -122 58 -132 c 1
 36 -98 l 1
 70.6667 -84 88.6667 -51.3333 90 0 c 1xa0
 44 0 l 1
 44 102 l 1
 138 102 l 1
 138 22 l 2xc0
EndSplineSet
Validated: 1
Layer: 2
SplineSet
290 22 m 2,0,1
 290 -36 290 -36 280 -60 c 0,2,3
 271 -84 271 -84 254.5 -100.5 c 128,-1,4
 238 -117 238 -117 210 -132 c 1,5,-1
 188 -98 l 1,6,7
 240 -77 240 -77 242 0 c 1,8,-1
 196 0 l 1,9,-1
 196 102 l 1,10,-1
 290 102 l 1,11,-1
 290 22 l 2,0,1
138 22 m 2,12,13
 138 -36 138 -36 128 -60 c 0,14,15
 119 -84 119 -84 102.5 -100.5 c 128,-1,16
 86 -117 86 -117 58 -132 c 1,17,-1
 36 -98 l 1,18,19
 88 -77 88 -77 90 0 c 1,20,-1
 44 0 l 1,21,-1
 44 102 l 1,22,-1
 138 102 l 1,23,-1
 138 22 l 2,12,13
EndSplineSet
Validated: 1
EndChar

StartChar: uni2020
Encoding: 8224 8224 12
Width: 527
Flags: W
HStem: 426.2 78<22 217 305 500>
VStem: 217 88<-165.8 426.2 504.2 702.2>
LayerCount: 3
Fore
SplineSet
500 426.2 m 1
 305 426.2 l 1
 305 -165.8 l 1
 217 -165.8 l 1
 217 426.2 l 1
 22 426.2 l 1
 22 504.2 l 1
 217 504.2 l 1
 217 702.2 l 1
 305 702.2 l 1
 305 504.2 l 1
 500 504.2 l 1
 500 426.2 l 1
EndSplineSet
Validated: 1
Layer: 2
SplineSet
500 426 m 1,0,-1
 305 426 l 1,1,-1
 305 -166 l 1,2,-1
 217 -166 l 1,3,-1
 217 426 l 1,4,-1
 22 426 l 1,5,-1
 22 504 l 1,6,-1
 217 504 l 1,7,-1
 217 702 l 1,8,-1
 305 702 l 1,9,-1
 305 504 l 1,10,-1
 500 504 l 1,11,-1
 500 426 l 1,0,-1
EndSplineSet
Validated: 1
EndChar

StartChar: uni2021
Encoding: 8225 8225 13
Width: 525
Flags: W
HStem: 13.5 78<22 217 305 500> 446.5 78<22 217 305 499>
VStem: 217 88<-167.5 13.5 91.5 446.5 524.5 707.5>
LayerCount: 3
Fore
SplineSet
500 13.5 m 1
 305 13.5 l 1
 305 -167.5 l 1
 217 -167.5 l 1
 217 13.5 l 1
 22 13.5 l 1
 22 91.5 l 1
 217 91.5 l 1
 217 446.5 l 1
 22 446.5 l 1
 22 524.5 l 1
 217 524.5 l 1
 217 707.5 l 1
 305 707.5 l 1
 305 524.5 l 1
 499 524.5 l 1
 499 446.5 l 1
 305 446.5 l 1
 305 91.5 l 1
 500 91.5 l 1
 500 13.5 l 1
EndSplineSet
Validated: 1
Layer: 2
SplineSet
500 14 m 1,0,-1
 305 14 l 1,1,-1
 305 -168 l 1,2,-1
 217 -168 l 1,3,-1
 217 14 l 1,4,-1
 22 14 l 1,5,-1
 22 92 l 1,6,-1
 217 92 l 1,7,-1
 217 446 l 1,8,-1
 22 446 l 1,9,-1
 22 524 l 1,10,-1
 217 524 l 1,11,-1
 217 708 l 1,12,-1
 305 708 l 1,13,-1
 305 524 l 1,14,-1
 499 524 l 1,15,-1
 499 446 l 1,16,-1
 305 446 l 1,17,-1
 305 92 l 1,18,-1
 500 92 l 1,19,-1
 500 14 l 1,0,-1
EndSplineSet
Validated: 1
EndChar

StartChar: uni2022
Encoding: 8226 8226 14
Width: 350
Flags: W
HStem: 227 247<105.146 243.625>
VStem: 51 248<281.5 418.385>
LayerCount: 3
Fore
SplineSet
175 474 m 256
 191.667 474 207.5 470.667 222.5 464 c 0
 237.5 457.333 250.667 448.333 262 437 c 0
 273.333 425.667 282.333 412.5 289 397.5 c 0
 295.667 382.5 299 366.667 299 350 c 256
 299 333.333 295.667 317.5 289 302.5 c 0
 282.333 287.5 273.5 274.5 262.5 263.5 c 0
 251.5 252.5 238.333 243.667 223 237 c 0
 207.667 230.333 191.667 227 175 227 c 256
 158.333 227 142.5 230.167 127.5 236.5 c 0
 112.5 242.833 99.3333 251.5 88 262.5 c 0
 76.6667 273.5 67.6667 286.5 61 301.5 c 0
 54.3333 316.5 51 332.667 51 350 c 256
 51 367.333 54.3333 383.5 61 398.5 c 0
 67.6667 413.5 76.6667 426.667 88 438 c 0
 99.3333 449.335 112.5 458.168 127.5 464.5 c 0
 142.5 470.833 158.333 474 175 474 c 256
EndSplineSet
Validated: 1
Layer: 2
SplineSet
175 474 m 256,0,1
 225 474 225 474 262 437 c 128,-1,2
 299 400 299 400 299 350 c 256,3,4
 299 300 299 300 262.5 263.5 c 128,-1,5
 226 227 226 227 175 227 c 0,6,7
 125 227 125 227 88 262.5 c 128,-1,8
 51 298 51 298 51 350 c 256,9,10
 51 401 51 401 88 438 c 0,11,12
 124 474 124 474 175 474 c 256,0,1
EndSplineSet
Validated: 1
EndChar

StartChar: uni2026
Encoding: 8230 8230 15
Width: 1000
Flags: W
HStem: 0 100<117 217 450 550 783 883>
VStem: 117 100<0 100> 450 100<0 100> 783 100<0 100>
CounterMasks: 1 70
LayerCount: 3
Fore
SplineSet
883 0 m 1
 783 0 l 1
 783 100 l 1
 883 100 l 1
 883 0 l 1
550 0 m 1
 450 0 l 1
 450 100 l 1
 550 100 l 1
 550 0 l 1
217 0 m 1
 117 0 l 1
 117 100 l 1
 217 100 l 1
 217 0 l 1
EndSplineSet
Validated: 1
Layer: 2
SplineSet
883 0 m 1,0,-1
 783 0 l 1,1,-1
 783 100 l 1,2,-1
 883 100 l 1,3,-1
 883 0 l 1,0,-1
550 0 m 1,4,-1
 450 0 l 1,5,-1
 450 100 l 1,6,-1
 550 100 l 1,7,-1
 550 0 l 1,4,-1
217 0 m 1,8,-1
 117 0 l 1,9,-1
 117 100 l 1,10,-1
 217 100 l 1,11,-1
 217 0 l 1,8,-1
EndSplineSet
Validated: 1
EndChar

StartChar: uni2013
Encoding: 8211 8211 16
Width: 500
Flags: W
HStem: 223 72<-6 506>
LayerCount: 3
Fore
SplineSet
506 223 m 1
 -6 223 l 1
 -6 295 l 1
 506 295 l 1
 506 223 l 1
EndSplineSet
Validated: 1
Layer: 2
SplineSet
506 223 m 1,0,-1
 -6 223 l 1,1,-1
 -6 295 l 1,2,-1
 506 295 l 1,3,-1
 506 223 l 1,0,-1
EndSplineSet
Validated: 1
EndChar

StartChar: uni2014
Encoding: 8212 8212 17
Width: 1000
Flags: W
HStem: 223 72<-6 1006>
LayerCount: 3
Fore
SplineSet
1006 223 m 1
 -6 223 l 1
 -6 295 l 1
 1006 295 l 1
 1006 223 l 1
EndSplineSet
Validated: 1
Layer: 2
SplineSet
1006 223 m 1,0,-1
 -6 223 l 1,1,-1
 -6 295 l 1,2,-1
 1006 295 l 1,3,-1
 1006 223 l 1,0,-1
EndSplineSet
Validated: 1
EndChar

StartChar: uni201D
Encoding: 8221 8221 18
Width: 419
Flags: W
HStem: 611 111<66.533 131.719 255.533 320.719>
VStem: 133 55<545.578 614.906> 322 55<549.953 617.906>
LayerCount: 3
Fore
SplineSet
260 462 m 1
 234 494 l 1
 292.667 530 322 566.333 322 603 c 2
 322 609 l 2
 322 613 321.667 616 321 618 c 1
 315 616 309.5 614.333 304.5 613 c 0
 299.5 611.667 294.667 611 290 611 c 0
 274 611 261.333 616 252 626 c 0
 242.667 636 238 649 238 665 c 0
 238 680.333 243.667 693.667 255 705 c 0
 266.333 716.333 280 722 296 722 c 0
 318 722 337 713.167 353 695.5 c 0
 369 677.833 377 655 377 627 c 0
 377 595.667 368.5 566 351.5 538 c 0
 334.5 510 304 484.667 260 462 c 1
71 459 m 1
 45 491 l 1
 103.667 527 133 563.333 133 600 c 2
 133 606 l 2
 133 610 132.667 613 132 615 c 1
 126 613 120.5 611.333 115.5 610 c 0
 110.5 608.667 105.667 608 101 608 c 0
 85 608 72.3333 613 63 623 c 0
 53.6667 633 49 646 49 662 c 0
 49 677.333 54.6667 690.667 66 702 c 0
 77.3333 713.333 91 719 107 719 c 0
 129 719 148 710.167 164 692.5 c 0
 180 674.833 188 652 188 624 c 0
 188 592.667 179.5 563 162.5 535 c 0
 145.5 507 115 481.667 71 459 c 1
EndSplineSet
Validated: 1
Layer: 2
SplineSet
321 618 m 1,0,1
 300 611 300 611 283 611 c 128,-1,2
 266 611 266 611 252 626 c 128,-1,3
 238 641 238 641 238 664 c 0,4,5
 238 688 238 688 255 705 c 128,-1,6
 272 722 272 722 300.5 722 c 128,-1,7
 329 722 329 722 353 695.5 c 128,-1,8
 377 669 377 669 377 624 c 0,9,10
 377 522 377 522 260 462 c 1,11,-1
 234 494 l 1,12,13
 322 548 322 548 322 603 c 2,14,-1
 322 609 l 2,15,16
 322 615 322 615 321 618 c 1,0,1
132 615 m 1,17,18
 111 608 111 608 94 608 c 128,-1,19
 77 608 77 608 63 623 c 128,-1,20
 49 638 49 638 49 661.5 c 128,-1,21
 49 685 49 685 66 702 c 128,-1,22
 83 719 83 719 111.5 719 c 128,-1,23
 140 719 140 719 164 692.5 c 128,-1,24
 188 666 188 666 188 622 c 0,25,26
 188 519 188 519 71 459 c 1,27,-1
 45 491 l 1,28,29
 133 545 133 545 133 600 c 2,30,-1
 133 606 l 2,31,32
 133 612 133 612 132 615 c 1,17,18
EndSplineSet
Validated: 1
EndChar

StartChar: uni0401
Encoding: 1025 1025 19
Width: 647
GlyphClass: 3
Flags: W
HStem: -23 162<257.984 457.397> 243 114<271.468 497.459> 289 67<159.03 259.414> 494 146<269.375 474.549> 698 122<106.863 200.8 438.34 531.137>
VStem: 75 84<199.294 438.151> 92 124<712.34 805.137> 424 122<712.34 805.137>
LayerCount: 3
Fore
SplineSet
510 698 m 256x99
 476 698 450 724 450 758 c 256
 450 793 476 820 510 820 c 256
 545 820 572 793 572 758 c 256
 572 724 545 698 510 698 c 256x99
180 698 m 256
 145 698 118 724 118 758 c 256
 118 793 145 820 180 820 c 256
 214 820 242 793 242 758 c 256x9b
 242 724 214 698 180 698 c 256
440 139 m 0
 494 139 543 136 543 85 c 0
 543 71 538 55 527 36 c 1
 502 2 458 -23 393 -23 c 0
 291 -23 220 26 175 86 c 0
 131 145 101 230 101 327 c 0
 101 437 147 515 206 566 c 0
 256 607 327 640 408 640 c 0
 464 640 515 622 534 586 c 1
 543 562 545 554 545 530 c 0
 545 494 509 490 471 490 c 0
 436 490 396 494 360 494 c 0
 262 494 185 464 185 365 c 0
 185 357 226 356 256 356 c 0
 267 356 277 356 283 356 c 0xbd
 330 356 389 357 436 357 c 0
 465 357 465 357 486 357 c 0
 524 357 552 352 552 315 c 0
 552 261 488 243 435 243 c 0xdd
 361 243 292 266 234 282 c 0
 216 287 203 289 194 289 c 0xbd
 188 289 184 288 184 285 c 0
 184 181 250 138 355 138 c 0
 383 138 412 139 440 139 c 0
EndSplineSet
Validated: 1
Layer: 2
SplineSet
484 698 m 256,0,1
 458 698 458 698 441 715 c 128,-1,2
 424 732 424 732 424 758 c 128,-1,3
 424 784 424 784 441.5 802 c 128,-1,4
 459 820 459 820 484.5 820 c 128,-1,5
 510 820 510 820 528 802 c 128,-1,6
 546 784 546 784 546 758.5 c 128,-1,7
 546 733 546 733 528 715.5 c 128,-1,8
 510 698 510 698 484 698 c 256,0,1
154 698 m 256,9,10
 128 698 128 698 110 715.5 c 128,-1,11
 92 733 92 733 92 758.5 c 128,-1,12
 92 784 92 784 110 802 c 128,-1,13
 128 820 128 820 154 820 c 128,-1,14
 180 820 180 820 198 802 c 128,-1,15
 216 784 216 784 216 758.5 c 128,-1,16
 216 733 216 733 198 715.5 c 128,-1,17
 180 698 180 698 154 698 c 256,9,10
329 138 m 1,18,-1
 414 139 l 2,19,20
 492 139 492 139 509 114 c 0,21,22
 517 103 517 103 517 83.5 c 128,-1,23
 517 64 517 64 501 36 c 1,24,25
 458 -23 458 -23 367 -23 c 0,26,27
 231 -23 231 -23 153 81 c 128,-1,28
 75 185 75 185 75 330 c 128,-1,29
 75 475 75 475 180 566 c 1,30,31
 270 640 270 640 382 640 c 0,32,33
 426 640 426 640 460 626 c 128,-1,34
 494 612 494 612 508 586 c 1,35,36
 519 557 519 557 519 531.5 c 128,-1,37
 519 506 519 506 499.5 498 c 128,-1,38
 480 490 480 490 445 490 c 1,39,-1
 334 494 l 1,40,41
 159 494 159 494 159 365 c 0,42,43
 159 356 159 356 230 356 c 2,44,-1
 257 356 l 1,45,-1
 410 357 l 1,46,-1
 460 357 l 2,47,48
 493 357 493 357 509.5 348.5 c 128,-1,49
 526 340 526 340 526 315 c 0,50,51
 526 278 526 278 491 260.5 c 128,-1,52
 456 243 456 243 422 243 c 128,-1,53
 388 243 388 243 367.5 245 c 128,-1,54
 347 247 347 247 321 252.5 c 128,-1,55
 295 258 295 258 284 260 c 0,56,57
 221 276 221 276 208 282 c 1,58,59
 183 289 183 289 170.5 289 c 128,-1,60
 158 289 158 289 158 285 c 0,61,62
 158 138 158 138 329 138 c 1,18,-1
EndSplineSet
LCarets2: 1 0 
Ligature2: "'ccmp' Canonical Equivalents-Cyrillic" uni0415 uni0308
EndChar

StartChar: uni0402
Encoding: 1026 1026 20
Width: 752
Flags: W
HStem: -8 27<496.642 576.479> 0 18<147 213.25 367.953 427> 394 66<440.292 560.051> 621 41<95.377 243 337 492.118>
VStem: 37 16<517 551.647> 243 94<31.4516 329.327 358 621> 532 13<517 549.645> 614 111<101.539 330.277>
LayerCount: 3
Fore
SplineSet
327 621 m 1x7f
 327 358 l 1
 388 426 453 460 522 460 c 0
 623 460 677 391 702 312 c 0
 710 282 715 250 715 216 c 0
 715 119 676 43 613 9 c 0
 592 -2 570 -8 545 -8 c 0
 519 -8 493 -0 468 15 c 1
 479 30 l 1
 499 23 516 19 531 19 c 0xbf
 580 19 604 74 604 184 c 0
 604 294 587 394 481 394 c 0
 421 394 370 364 327 303 c 1
 327 123 l 2
 327 116 327 109 327 102 c 0
 327 61 329 33 366 24 c 0
 378 20 395 18 417 18 c 1
 417 0 l 1
 137 0 l 1
 137 18 l 1
 191 18 228 23 232 72 c 0
 232 84 233 102 233 123 c 2
 233 621 l 1
 184 621 l 2
 117 621 72 609 54 562 c 0
 50 550 46 534 43 517 c 1
 27 517 l 1
 27 662 l 1
 535 662 l 1
 535 517 l 1
 522 517 l 1
 515 576 493 608 438 617 c 0
 420 620 401 621 378 621 c 2
 327 621 l 1x7f
EndSplineSet
Validated: 1
Layer: 2
SplineSet
242 72 m 1,0,-1
 243 123 l 1,1,-1
 243 621 l 1,2,-1
 194 621 l 2,3,4
 140 621 140 621 108.5 608 c 128,-1,5
 77 595 77 595 64 562 c 1,6,7
 58 542 58 542 53 517 c 1,8,-1
 37 517 l 1,9,-1
 37 662 l 1,10,-1
 545 662 l 1,11,-1
 545 517 l 1,12,-1
 532 517 l 1,13,14
 527 563 527 563 507.5 586.5 c 128,-1,15
 488 610 488 610 456 615.5 c 128,-1,16
 424 621 424 621 388 621 c 2,17,-1
 337 621 l 1,18,-1
 337 358 l 1,19,20
 428 460 428 460 532 460 c 0,21,22
 665 460 665 460 712 312 c 1,23,24
 725 263 725 263 725 203.5 c 128,-1,25
 725 144 725 144 698 89.5 c 128,-1,26
 671 35 671 35 623 9 c 0,27,28
 591 -8 591 -8 553.5 -8 c 128,-1,29
 516 -8 516 -8 478 15 c 1,30,-1
 489 30 l 1,31,32
 520 19 520 19 541 19 c 0,33,34
 614 19 614 19 614 184 c 0,35,36
 614 339 614 339 554 378 c 0,37,38
 529 394 529 394 491 394 c 0,39,40
 401 394 401 394 337 303 c 1,41,-1
 337 102 l 2,42,43
 337 78 337 78 339 65 c 0,44,45
 344 31 344 31 376 24 c 1,46,47
 394 18 394 18 427 18 c 1,48,-1
 427 0 l 1,49,-1
 147 0 l 1,50,-1
 147 18 l 1,51,52
 194 18 194 18 216.5 28 c 128,-1,53
 239 38 239 38 242 72 c 1,0,-1
EndSplineSet
EndChar

StartChar: uni0464
Encoding: 1124 1124 21
Width: 845
Flags: HW
HStem: -21 163<609.808 720.652> 0 46<45.5 88.6569 234.447 275.5> 240 122<626.902 770.018> 279 83<575.625 637.635> 300 65<231.5 479.5> 476 161<604.754 732.984> 563 47<45.5 86.8925 235.965 276.5>
VStem: 90.5 141<50.4179 300 365 557.228> 481.5 91<183.742 278.999 365.018 440.14>
AnchorPoint: "Diacritic" 362.5 751 basechar 0
LayerCount: 3
Fore
SplineSet
45.5 46 m 1x4980
 68.5 46 90.5 55 90.5 78 c 2
 90.5 527 l 2
 90.5 549 66.5 563 45.5 563 c 1
 45.5 610 l 1
 276.5 610 l 1
 276.5 563 l 1
 252.5 563 234.5 550 231.5 527 c 1
 231.5 365 l 1
 481.5 365 l 1x4b80
 488.5 450 514.5 520 553.5 570 c 0
 581.5 605 621.5 637 672.5 637 c 0
 715.5 637 748.5 610 759.5 578 c 1
 765.5 567 767.5 555 767.5 542 c 0
 767.5 484 731.5 476 676.5 476 c 0
 674.5 476 672.5 476 670.5 476 c 0
 603.5 476 578.5 437 572.5 371 c 1
 572.5 370 l 2
 572.5 366 576.5 364 585.5 362 c 1x1580
 593.5 362 604.5 361 617.5 361 c 256
 630.5 361 645.5 361 661.5 362 c 1
 741.5 362 l 2
 775.5 362 799.5 352 799.5 317 c 0
 799.5 312 799.5 308 798.5 305 c 0
 780.5 265 757.5 240 710.5 240 c 0x2180
 682.5 240 652.5 250 631.5 260 c 1
 615.5 266 595.5 279 580.5 279 c 0
 577.5 279 576.5 278 575.5 277 c 1
 575.5 219 586.5 185 613.5 160 c 1
 624.5 152 637.5 146 651.5 142 c 1
 678.5 138 706.5 132 729.5 122 c 0
 743.5 116 760.5 97 760.5 74 c 0
 760.5 52 748.5 32 737.5 16 c 1
 719.5 -4 691.5 -21 652.5 -21 c 0x9180
 623.5 -21 598.5 -12 577.5 6 c 0
 509.5 64 482.5 177 479.5 300 c 1
 231.5 300 l 1
 231.5 78 l 1
 234.5 57 249.5 48 275.5 46 c 1
 275.5 0 l 1
 45.5 0 l 1
 45.5 46 l 1x4980
EndSplineSet
Layer: 2
SplineSet
590 362 m 1,0,-1
 622 361 l 2,1,2
 650 361 650 361 666 362 c 1,3,-1
 746 362 l 2,4,5
 804 362 804 362 804 317 c 0,6,7
 804 308 804 308 803 305 c 0,8,9
 774 240 774 240 715 240 c 0,10,11
 675 240 675 240 620 268 c 0,12,13
 597 279 597 279 589.5 279 c 128,-1,14
 582 279 582 279 580 277 c 1,15,16
 580 195 580 195 618 160 c 1,17,18
 634 148 634 148 656 142 c 1,19,20
 705 135 705 135 726 126 c 0,21,22
 765 109 765 109 765 74 c 0,23,24
 765 49 765 49 742 16 c 1,25,26
 709 -21 709 -21 661 -21 c 0,27,28
 614 -21 614 -21 582 6 c 0,29,30
 489 84 489 84 484 300 c 1,31,-1
 236 300 l 1,32,-1
 236 78 l 1,33,34
 240 49 240 49 280 46 c 1,35,-1
 280 0 l 1,36,-1
 50 0 l 1,37,-1
 50 46 l 1,38,39
 95 46 95 46 95 78 c 2,40,-1
 95 527 l 2,41,42
 95 543 95 543 81 553 c 128,-1,43
 67 563 67 563 50 563 c 1,44,-1
 50 610 l 1,45,-1
 281 610 l 1,46,-1
 281 563 l 1,47,48
 241 563 241 563 236 527 c 1,49,-1
 236 365 l 1,50,-1
 486 365 l 1,51,52
 496 491 496 491 558 570 c 1,53,54
 612 637 612 637 677 637 c 0,55,56
 708 637 708 637 731.5 620 c 128,-1,57
 755 603 755 603 764 578 c 1,58,59
 772 563 772 563 772 542 c 0,60,61
 772 502 772 502 750 489 c 128,-1,62
 728 476 728 476 681 476 c 2,63,-1
 675 476 l 2,64,65
 627 476 627 476 604.5 449.5 c 128,-1,66
 582 423 582 423 577 371 c 1,67,-1
 577 370 l 2,68,69
 577 365 577 365 590 362 c 1,0,-1
EndSplineSet
Validated: 1
EndChar

StartChar: uni047E
Encoding: 1150 1150 22
Width: 1171
Flags: HW
HStem: -7 72<335.11 441.65 733.221 838.008> 564 46<45.5 85.4292 268.693 304.5 431.5 470.498 697.424 736.5 864.5 899.234 1081.37 1125.5> 694 44<470.5 509.816 662.319 700.5> 842 143<249.5 306.912 863.495 923.5> 919 66<346.125 515.5 655.5 827.853>
VStem: 101.5 144<298.786 538.72> 515.5 140<239.496 486.164 744.991 919> 921.5 143<291.094 541.972>
AnchorPoint: "Diacritic" 582.5 1162 basechar 0
LayerCount: 3
Fore
SplineSet
657.5 282 m 1xe7
 668.5 207 684.5 153 705.5 118 c 0
 726.5 83 754.5 66 788.5 66 c 0
 853.5 66 918.5 164 918.5 360 c 0
 918.5 383 921.5 405 921.5 429 c 0
 921.5 517 902.5 562 864.5 564 c 1
 864.5 610 l 1
 1125.5 610 l 1
 1125.5 564 l 1
 1090.5 564 1070.5 541 1064.5 494 c 1
 1057.5 325 1030.5 199 984.5 116 c 0
 938.5 34 872.5 -7 787.5 -7 c 0
 695.5 -7 627.5 74 584.5 237 c 1
 561.5 152 533.5 90 498.5 52 c 0
 463.5 12 422.5 -7 374.5 -7 c 0
 208.5 -7 117.5 160 101.5 494 c 1
 95.5 541 76.5 564 45.5 564 c 1
 45.5 610 l 1
 304.5 610 l 1
 304.5 564 l 1
 265.5 562 245.5 514 245.5 419 c 2
 245.5 390 l 2
 245.5 381 246.5 371 247.5 360 c 0
 258.5 261 276.5 187 298.5 138 c 0
 322.5 89 349.5 65 382.5 65 c 0
 421.5 65 452.5 86 474.5 129 c 0
 498.5 172 509.5 235 509.5 318 c 0
 509.5 482 482.5 564 431.5 564 c 1
 431.5 610 l 1
 736.5 610 l 1
 736.5 564 l 1
 734.5 564 l 2
 683.5 564 657.5 480 657.5 311 c 2
 657.5 282 l 1xe7
434.5 919 m 1xef
 362.5 913 317.5 893 294.5 842 c 1
 249.5 842 l 1xf7
 153.5 939 l 1
 153.5 985 l 1
 1018.5 985 l 1xef
 1018.5 939 l 1
 923.5 842 l 1
 878.5 842 l 1xf7
 853.5 883 820.5 915 764.5 916 c 0
 752.5 917 743.5 918 735.5 919 c 1
 655.5 919 l 1
 655.5 784 l 1
 657.5 754 675.5 740 700.5 738 c 1
 700.5 694 l 1
 470.5 694 l 1
 470.5 738 l 1
 498.5 740 513.5 752 515.5 783 c 1
 515.5 919 l 1
 434.5 919 l 1xef
EndSplineSet
Layer: 2
SplineSet
918 360 m 1,0,-1
 921 429 l 1,1,2
 921 561 921 561 864 564 c 1,3,-1
 864 610 l 1,4,-1
 1125 610 l 1,5,-1
 1125 564 l 1,6,7
 1073 564 1073 564 1064 494 c 1,8,9
 1044 -7 1044 -7 787 -7 c 0,10,11
 648 -7 648 -7 584 237 c 1,12,13
 549 107 549 107 498 52 c 1,14,15
 446 -7 446 -7 374 -7 c 0,16,17
 125 -7 125 -7 101 494 c 1,18,19
 92 564 92 564 45 564 c 1,20,-1
 45 610 l 1,21,-1
 304 610 l 1,22,-1
 304 564 l 1,23,24
 245 561 245 561 245 419 c 2,25,-1
 245 390 l 2,26,27
 245 382 245 382 247 360 c 0,28,29
 263 216 263 216 298 138 c 1,30,31
 334 65 334 65 382 65 c 0,32,33
 441 65 441 65 474 129 c 1,34,35
 509 192 509 192 509 318 c 0,36,37
 509 564 509 564 431 564 c 1,38,-1
 431 610 l 1,39,-1
 736 610 l 1,40,-1
 736 564 l 1,41,-1
 734 564 l 2,42,43
 657 564 657 564 657 311 c 2,44,-1
 657 282 l 1,45,46
 673 171 673 171 704.5 118.5 c 128,-1,47
 736 66 736 66 788.5 66 c 128,-1,48
 841 66 841 66 879.5 143.5 c 128,-1,49
 918 221 918 221 918 360 c 1,0,-1
434 919 m 1,50,51
 378 914 378 914 344.5 896.5 c 128,-1,52
 311 879 311 879 294 842 c 1,53,-1
 249 842 l 1,54,-1
 153 939 l 1,55,-1
 153 985 l 1,56,-1
 1018 985 l 1,57,-1
 1018 939 l 1,58,-1
 923 842 l 1,59,-1
 878 842 l 1,60,61
 834 915 834 915 764 916 c 0,62,63
 749 917 749 917 735 919 c 1,64,-1
 655 919 l 1,65,-1
 655 784 l 1,66,67
 658 741 658 741 700 738 c 1,68,-1
 700 694 l 1,69,-1
 470 694 l 1,70,-1
 470 738 l 1,71,72
 512 741 512 741 515 783 c 1,73,-1
 515 919 l 1,74,-1
 434 919 l 1,50,51
EndSplineSet
Validated: 1
EndChar

StartChar: uni046E
Encoding: 1134 1134 23
Width: 781
Flags: HW
HStem: 0 65<461.5 507.5> 0 45<275.5 317.973> 333 69<290.655 319.5 461.5 489.522> 563 46<15.5 53.1895 207.756 243.5 535.5 570.938 725.995 765.5>
VStem: 319.5 142<65.6546 335.393> 565.5 136<-785.778 -625.622>
AnchorPoint: "Diacritic" 389 750 basechar 0
LayerCount: 3
Fore
SplineSet
573.5 526 m 0x7c
 573.5 549 559.5 563 535.5 563 c 1
 535.5 609 l 1
 765.5 609 l 1
 765.5 563 l 1
 759.5 563 l 2
 744.5 563 730.5 554 725.5 540 c 0
 710.5 491 694.5 449 659.5 414 c 0
 613.5 369 549.5 345 461.5 333 c 1
 461.5 65 l 1
 701.5 65 l 1xbc
 701.5 0 l 1x7c
 401.5 -404 l 1
 532.5 -404 629.5 -481 677.5 -576 c 0
 693.5 -609 701.5 -644 701.5 -681 c 0
 701.5 -728 687.5 -777 659.5 -828 c 0
 631.5 -880 585.5 -932 521.5 -985 c 1
 473.5 -985 l 1
 485.5 -972 l 1
 518.5 -929 544.5 -866 557.5 -803 c 0
 563.5 -779 565.5 -755 565.5 -730 c 0
 565.5 -605 494.5 -542 394.5 -510 c 0
 351.5 -497 297.5 -490 231.5 -490 c 2
 203.5 -490 l 1
 203.5 -443 l 1
 507.5 0 l 1xbc
 275.5 0 l 1
 275.5 45 l 1
 297.5 48 319.5 53 319.5 76 c 1
 319.5 333 l 1
 227.5 343 159.5 370 113.5 418 c 0
 81.5 451 64.5 492 53.5 540 c 0
 50.5 555 37.5 563 15.5 563 c 1
 15.5 609 l 1
 243.5 609 l 1
 243.5 563 l 1
 219.5 563 205.5 550 205.5 527 c 0
 205.5 493 229.5 465 252.5 447 c 0
 284.5 421 331.5 402 389.5 402 c 256
 448.5 402 495.5 420 527.5 446 c 0
 550.5 465 573.5 492 573.5 526 c 0x7c
EndSplineSet
Layer: 2
SplineSet
702 -681 m 0,0,1
 702 -835 702 -835 522 -985 c 1,2,-1
 474 -985 l 1,3,-1
 486 -972 l 1,4,5
 537 -906 537 -906 558 -803 c 1,6,7
 566 -771 566 -771 566 -730 c 0,8,9
 566 -565 566 -565 395 -510 c 1,10,11
 329 -490 329 -490 232 -490 c 2,12,-1
 204 -490 l 1,13,-1
 204 -443 l 1,14,-1
 508 0 l 1,15,-1
 276 0 l 1,16,-1
 276 45 l 1,17,18
 320 51 320 51 320 76 c 2,19,-1
 320 333 l 1,20,21
 181 348 181 348 114 418 c 0,22,23
 72 461 72 461 54 540 c 0,24,25
 49 563 49 563 16 563 c 1,26,-1
 16 609 l 1,27,-1
 244 609 l 1,28,-1
 244 563 l 1,29,30
 206 563 206 563 206 523.5 c 128,-1,31
 206 484 206 484 253 447 c 1,32,33
 308 402 308 402 391 402 c 128,-1,34
 474 402 474 402 524 443 c 128,-1,35
 574 484 574 484 574 523.5 c 128,-1,36
 574 563 574 563 536 563 c 1,37,-1
 536 609 l 1,38,-1
 766 609 l 1,39,-1
 766 563 l 1,40,-1
 760 563 l 2,41,42
 734 563 734 563 726 540 c 1,43,44
 700 454 700 454 660 414 c 0,45,46
 596 351 596 351 462 333 c 1,47,-1
 462 65 l 1,48,-1
 702 65 l 1,49,-1
 702 0 l 1,50,-1
 402 -404 l 1,51,52
 496 -404 496 -404 568 -452 c 0,53,54
 642 -501 642 -501 678 -576 c 0,55,56
 702 -626 702 -626 702 -681 c 0,0,1
EndSplineSet
Validated: 1
EndChar

StartChar: uni0470
Encoding: 1136 1136 24
Width: 894
Flags: HW
HStem: 0 46<331 372.27 518.812 561> 207 63<318 376 516 578> 564 46<202.098 236 331 374.071 518.378 561 658 692.991>
VStem: 376 140<50.199 207 270 560.124>
AnchorPoint: "Diacritic" 444 751 basechar 0
LayerCount: 3
Fore
SplineSet
561 564 m 1
 533 564 516 552 516 528 c 2
 516 270 l 1
 578 270 l 1
 691 532 l 2
 692 536 693 539 693 542 c 0
 693 557 681 564 658 564 c 1
 658 610 l 1
 862 610 l 1
 862 564 l 1
 657 207 l 1
 516 207 l 1
 516 85 l 2
 516 59 531 46 561 46 c 1
 561 0 l 1
 331 0 l 1
 331 46 l 1
 360 46 376 60 376 87 c 1
 376 207 l 1
 236 207 l 1
 32 564 l 1
 32 610 l 1
 236 610 l 1
 236 564 l 1
 217 564 202 557 202 540 c 0
 202 536 202 533 203 532 c 2
 318 270 l 1
 376 270 l 1
 376 528 l 1
 376 554 363 564 331 564 c 1
 331 610 l 1
 561 610 l 1
 561 564 l 1
EndSplineSet
Layer: 2
SplineSet
569 564 m 1,0,1
 524 564 524 564 524 528 c 2,2,-1
 524 270 l 1,3,-1
 586 270 l 1,4,-1
 699 532 l 1,5,6
 701 540 701 540 701 542 c 0,7,8
 701 564 701 564 666 564 c 1,9,-1
 666 610 l 1,10,-1
 870 610 l 1,11,-1
 870 564 l 1,12,-1
 665 207 l 1,13,-1
 524 207 l 1,14,-1
 524 85 l 2,15,16
 524 46 524 46 569 46 c 1,17,-1
 569 0 l 1,18,-1
 339 0 l 1,19,-1
 339 46 l 1,20,21
 384 46 384 46 384 87 c 2,22,-1
 384 207 l 1,23,-1
 244 207 l 1,24,-1
 40 564 l 1,25,-1
 40 610 l 1,26,-1
 244 610 l 1,27,-1
 244 564 l 1,28,29
 210 564 210 564 210 540 c 0,30,31
 210 533 210 533 211 532 c 2,32,-1
 326 270 l 1,33,-1
 384 270 l 1,34,-1
 384 528 l 2,35,36
 384 547 384 547 373.5 555.5 c 128,-1,37
 363 564 363 564 339 564 c 1,38,-1
 339 610 l 1,39,-1
 569 610 l 1,40,-1
 569 564 l 1,0,1
EndSplineSet
Validated: 1
EndChar

StartChar: uni0481
Encoding: 1153 1153 25
Width: 467
Flags: HW
HStem: -19 94<197.203 328.107> 360 92<185.605 325.948>
VStem: 43.5 91<137.813 303.197> 368.5 55<-147 19 113.377 157>
LayerCount: 3
Fore
SplineSet
267.5 452 m 0
 323.5 452 376.5 434 396.5 399 c 1
 396.5 375 382.5 345 372.5 329 c 0
 368.5 322 364.5 318 359.5 318 c 0
 357.5 318 355.5 319 354.5 320 c 0
 323.5 342 292.5 360 249.5 360 c 0
 190.5 360 155.5 317 142.5 271 c 0
 136.5 254 134.5 237 134.5 219 c 0
 134.5 156 165.5 111 208.5 89 c 0
 225.5 80 245.5 75 268.5 75 c 0
 304.5 75 337.5 99 354.5 122 c 0
 362.5 132 368.5 144 368.5 157 c 1
 423.5 157 l 1
 423.5 -147 l 1
 368.5 -147 l 1
 368.5 19 l 1
 351.5 2 318.5 -9 289.5 -15 c 0
 277.5 -18 265.5 -19 254.5 -19 c 0
 108.5 -16 43.5 82 43.5 235 c 0
 43.5 347 104.5 414 189.5 440 c 0
 216.5 448 242.5 452 267.5 452 c 0
EndSplineSet
Layer: 2
SplineSet
191 440 m 0,0,1
 232 452 232 452 272.5 452 c 128,-1,2
 313 452 313 452 348 438 c 128,-1,3
 383 424 383 424 398 399 c 1,4,5
 398 367 398 367 374 329 c 0,6,7
 368 318 368 318 361 318 c 0,8,9
 358 318 358 318 356 320 c 0,10,11
 300 360 300 360 255 360 c 128,-1,12
 210 360 210 360 182.5 334.5 c 128,-1,13
 155 309 155 309 144 271 c 1,14,15
 136 248 136 248 136 219 c 0,16,17
 136 127 136 127 210 89 c 0,18,19
 236 75 236 75 270 75 c 0,20,21
 321 75 321 75 356 122 c 0,22,23
 370 140 370 140 370 157 c 1,24,-1
 425 157 l 1,25,-1
 425 -147 l 1,26,-1
 370 -147 l 1,27,-1
 370 19 l 1,28,29
 348 -3 348 -3 291 -15 c 0,30,31
 275 -19 275 -19 256 -19 c 0,32,33
 150 -17 150 -17 97.5 49.5 c 128,-1,34
 45 116 45 116 45 235 c 0,35,36
 45 316 45 316 84.5 368 c 128,-1,37
 124 420 124 420 191 440 c 0,0,1
EndSplineSet
Validated: 1
EndChar

StartChar: uni0462
Encoding: 1122 1122 26
Width: 895
Flags: HW
HStem: 0 66<465.5 713.262> 0 46<279.5 321.529> 276 64<465.5 550.202> 344 144<125.5 180.579 701.466 759.5> 422 66<217.547 325.5 465.5 664.353> 564 46<279.5 321.969 470.468 509.5>
VStem: 325.5 140<66.5188 276 336.491 422 488 558.568> 713.5 152<37 137.362>
AnchorPoint: "Diacritic" 394 751.5 basechar 0
LayerCount: 3
Fore
SplineSet
465.5 66 m 1xa7
 675.5 66 l 2
 700.5 66 713.5 74 713.5 92 c 1
 706.5 137 679.5 174 647.5 201 c 0
 602.5 239 540.5 264 465.5 276 c 1
 465.5 66 l 1xa7
309.5 422 m 2x6f
 232.5 422 193.5 395 169.5 344 c 1
 125.5 344 l 1x37
 29.5 442 l 1
 29.5 488 l 1
 325.5 488 l 1
 325.5 526 l 2
 325.5 551 305.5 564 279.5 564 c 1
 279.5 610 l 1
 509.5 610 l 1
 509.5 564 l 1
 483.5 564 465.5 546 465.5 522 c 2
 465.5 488 l 1
 855.5 488 l 1x2f
 855.5 442 l 1
 759.5 344 l 1
 715.5 344 l 1x37
 689.5 385 657.5 419 600.5 419 c 0
 589.5 419 579.5 420 571.5 422 c 1
 465.5 422 l 1
 465.5 340 l 1
 598.5 316 725.5 272 803.5 190 c 0
 836.5 156 865.5 113 865.5 52 c 0
 865.5 22 851.5 0 817.5 0 c 2
 279.5 0 l 1
 279.5 46 l 1
 305.5 46 325.5 59 325.5 86 c 2
 325.5 422 l 1
 309.5 422 l 2x6f
EndSplineSet
Layer: 2
SplineSet
456 66 m 1,0,-1
 666 66 l 2,1,2
 704 66 704 66 704 92 c 1,3,4
 694 153 694 153 632.5 205.5 c 128,-1,5
 571 258 571 258 456 276 c 1,6,-1
 456 66 l 1,0,-1
300 422 m 2,7,8
 244 422 244 422 211.5 403 c 128,-1,9
 179 384 179 384 160 344 c 1,10,-1
 116 344 l 1,11,-1
 20 442 l 1,12,-1
 20 488 l 1,13,-1
 316 488 l 1,14,-1
 316 526 l 2,15,16
 316 544 316 544 303 554 c 128,-1,17
 290 564 290 564 270 564 c 1,18,-1
 270 610 l 1,19,-1
 500 610 l 1,20,-1
 500 564 l 1,21,22
 481 564 481 564 468.5 552 c 128,-1,23
 456 540 456 540 456 522 c 2,24,-1
 456 488 l 1,25,-1
 846 488 l 1,26,-1
 846 442 l 1,27,-1
 750 344 l 1,28,-1
 706 344 l 1,29,30
 658 419 658 419 591 419 c 0,31,32
 574 419 574 419 562 422 c 1,33,-1
 456 422 l 1,34,-1
 456 340 l 1,35,36
 692 297 692 297 794 190 c 0,37,38
 856 126 856 126 856 52 c 0,39,40
 856 0 856 0 808 0 c 2,41,-1
 270 0 l 1,42,-1
 270 46 l 1,43,44
 290 46 290 46 303 56.5 c 128,-1,45
 316 67 316 67 316 86 c 2,46,-1
 316 422 l 1,47,-1
 300 422 l 2,7,8
EndSplineSet
Validated: 1
EndChar

StartChar: uni0460
Encoding: 1120 1120 27
Width: 1159
Flags: W
HStem: -7 72<331.703 432.578 729.721 830.98> 564 46<40 81.7432 265.193 301 428 466.876 693.924 733 861 895.734 1077.26 1119>
VStem: 98 144<298.786 538.72> 502 152<240.049 508.5> 918 143<291.094 541.972>
AnchorPoint: "Diacritic" 575 751 basechar 0
LayerCount: 3
Fore
SplineSet
654 282 m 1
 665 207 681 153 702 118 c 0
 723 83 751 66 785 66 c 0
 850 66 893 164 915 360 c 0
 917 383 918 405 918 429 c 0
 918 517 899 562 861 564 c 1
 861 610 l 1
 1119 610 l 1
 1119 564 l 1
 1086 564 1067 541 1061 494 c 1
 1054 325 1027 199 981 116 c 0
 935 34 869 -7 784 -7 c 0
 692 -7 624 74 581 237 c 1
 558 152 530 90 495 52 c 0
 460 12 419 -7 371 -7 c 0
 205 -7 114 160 98 494 c 1
 92 541 73 564 40 564 c 1
 40 610 l 1
 301 610 l 1
 301 564 l 1
 262 562 242 514 242 419 c 2
 242 390 l 2
 242 381 243 371 244 360 c 0
 255 259 272 185 296 137 c 0
 318 89 347 65 380 65 c 0
 423 65 450 100 466 134 c 0
 492 187 502 259 502 342 c 0
 502 490 477 564 428 564 c 1
 428 610 l 1
 733 610 l 1
 733 564 l 1
 731 564 l 2
 680 564 654 480 654 311 c 2
 654 282 l 1
EndSplineSet
Validated: 1
Layer: 2
SplineSet
654 282 m 1,0,1
 670 171 670 171 701.5 118.5 c 128,-1,2
 733 66 733 66 785 66 c 0,3,4
 882 66 882 66 915 360 c 0,5,6
 918 394 918 394 918 429 c 0,7,8
 918 561 918 561 861 564 c 1,9,-1
 861 610 l 1,10,-1
 1119 610 l 1,11,-1
 1119 564 l 1,12,13
 1070 564 1070 564 1061 494 c 1,14,15
 1041 -7 1041 -7 784 -7 c 0,16,17
 645 -7 645 -7 581 237 c 1,18,19
 546 107 546 107 495 52 c 1,20,21
 443 -7 443 -7 371 -7 c 0,22,23
 122 -7 122 -7 98 494 c 1,24,25
 89 564 89 564 40 564 c 1,26,-1
 40 610 l 1,27,-1
 301 610 l 1,28,-1
 301 564 l 1,29,30
 242 561 242 561 242 419 c 2,31,-1
 242 390 l 2,32,33
 242 382 242 382 244 360 c 0,34,35
 261 208 261 208 296 137 c 1,36,37
 329 65 329 65 381.5 65 c 128,-1,38
 434 65 434 65 466 134 c 1,39,40
 502 207 502 207 502 342 c 0,41,42
 502 564 502 564 428 564 c 1,43,-1
 428 610 l 1,44,-1
 733 610 l 1,45,-1
 733 564 l 1,46,-1
 731 564 l 2,47,48
 654 564 654 564 654 311 c 2,49,-1
 654 282 l 1,0,1
EndSplineSet
Validated: 1
EndChar

StartChar: uni0466
Encoding: 1126 1126 28
Width: 981
Flags: HW
HStem: 0 46<197.53 236 340 382.749 526.448 569 694 729.396> 225 66<325 385 524 603> 564 46<340 378.57>
VStem: 385 139<49.9807 225> 730 207<0 75>
AnchorPoint: "Diacritic" 450 751 basechar 0
LayerCount: 3
Fore
SplineSet
197 74 m 0
 197 53 212 46 236 46 c 1
 236 0 l 1
 44 0 l 1
 44 3 44 5 44 8 c 0
 44 33 52 60 69 91 c 0
 143 228 274 336 357 463 c 0
 374 488 382 509 382 526 c 0
 382 551 365 560 340 564 c 1
 340 610 l 1
 543 610 l 1
 552 581 569 550 592 517 c 0
 642 446 703 373 761 305 c 0
 817 240 874 169 912 93 c 0
 929 60 937 29 937 0 c 1
 694 0 l 1
 694 46 l 1
 717 46 730 54 730 75 c 0
 730 106 707 140 692 162 c 0
 678 183 658 212 642 225 c 1
 524 225 l 1
 524 81 l 1
 524 55 545 46 569 46 c 1
 569 0 l 1
 340 0 l 1
 340 46 l 1
 366 46 385 57 385 81 c 2
 385 225 l 1
 281 225 l 1
 256 195 236 167 220 140 c 0
 205 114 197 92 197 74 c 0
325 291 m 1
 603 291 l 1
 590 304 571 326 545 357 c 0
 519 388 486 429 446 480 c 1
 419 421 382 360 345 313 c 0
 336 301 329 294 325 291 c 1
EndSplineSet
Layer: 2
SplineSet
285 225 m 1,0,1
 201 125 201 125 201 74 c 0,2,3
 201 46 201 46 240 46 c 1,4,-1
 240 0 l 1,5,-1
 48 0 l 1,6,-1
 48 8 l 2,7,8
 48 45 48 45 81 105.5 c 128,-1,9
 114 166 114 166 220 288 c 128,-1,10
 326 410 326 410 356 455 c 128,-1,11
 386 500 386 500 386 526 c 0,12,13
 386 557 386 557 344 564 c 1,14,-1
 344 610 l 1,15,-1
 547 610 l 1,16,17
 560 569 560 569 606 503 c 128,-1,18
 652 437 652 437 762 309 c 128,-1,19
 872 181 872 181 916 93 c 0,20,21
 941 44 941 44 941 0 c 1,22,-1
 698 0 l 1,23,-1
 698 46 l 1,24,25
 734 46 734 46 734 75 c 0,26,27
 734 106 734 106 698.5 158.5 c 128,-1,28
 663 211 663 211 646 225 c 1,29,-1
 528 225 l 1,30,-1
 528 81 l 2,31,32
 528 46 528 46 573 46 c 1,33,-1
 573 0 l 1,34,-1
 344 0 l 1,35,-1
 344 46 l 1,36,37
 389 46 389 46 389 81 c 2,38,-1
 389 225 l 1,39,-1
 285 225 l 1,0,1
329 291 m 1,40,-1
 607 291 l 1,41,42
 566 332 566 332 450 480 c 1,43,44
 408 388 408 388 349 313 c 0,45,46
 337 297 337 297 329 291 c 1,40,-1
EndSplineSet
Validated: 1
EndChar

StartChar: uni0467
Encoding: 1127 1127 29
Width: 763
Flags: HW
HStem: 0 46<166.504 183.5 247.5 279.491 411.542 442.5 518.5 535.496> 140 60<239.5 280.5 410.5 460.5> 387 46<240.5 275.184>
VStem: 43.5 123<3.56959 66.6394> 280.5 130<48.3906 140>
AnchorPoint: "Diacritic" 338.5 563 basechar 0
LayerCount: 3
Fore
SplineSet
247.5 46 m 1
 262.5 46 280.5 60 280.5 73 c 2
 280.5 140 l 1
 208.5 140 l 1
 195.5 124 184.5 110 177.5 98 c 0
 170.5 86 166.5 75 166.5 66 c 0
 166.5 53 172.5 46 183.5 46 c 1
 183.5 0 l 1
 44.5 0 l 1
 44.5 3 43.5 4 43.5 7 c 0
 43.5 22 49.5 39 60.5 59 c 0
 100.5 129 164.5 196 215.5 258 c 0
 232.5 278 247.5 298 258.5 316 c 0
 269.5 334 275.5 349 275.5 361 c 0
 275.5 376 263.5 385 240.5 387 c 1
 240.5 433 l 1
 432.5 433 l 1
 453.5 387 493.5 341 527.5 300 c 0
 587.5 229 658.5 153 701.5 69 c 0
 713.5 46 719.5 24 719.5 5 c 2
 719.5 0 l 1
 518.5 0 l 1
 518.5 46 l 1
 529.5 46 535.5 56 535.5 67 c 0
 535.5 84 522.5 102 514.5 112 c 0
 509.5 120 503.5 126 499.5 130 c 2
 489.5 140 l 1
 410.5 140 l 1
 410.5 73 l 1
 412.5 57 425.5 46 442.5 46 c 1
 442.5 0 l 1
 247.5 0 l 1
 247.5 46 l 1
239.5 200 m 1
 460.5 200 l 1
 455.5 208 414.5 258 339.5 351 c 1
 317.5 304 282.5 255 253.5 217 c 0
 245.5 207 240.5 201 239.5 200 c 1
EndSplineSet
Layer: 2
SplineSet
47 0 m 1,0,-1
 46 7 l 1,1,2
 46 45 46 45 104 122 c 0,3,4
 121 144 121 144 169 200 c 0,5,6
 195 230 195 230 228 269 c 0,7,8
 278 330 278 330 278 361 c 0,9,10
 278 384 278 384 243 387 c 1,11,-1
 243 433 l 1,12,-1
 435 433 l 1,13,14
 457 384 457 384 566 258 c 0,15,16
 648 163 648 163 669 129 c 0,17,18
 694 89 694 89 707 64 c 0,19,20
 722 34 722 34 722 5 c 2,21,-1
 722 0 l 1,22,-1
 521 0 l 1,23,-1
 521 46 l 1,24,25
 538 46 538 46 538 66 c 128,-1,26
 538 86 538 86 517 112 c 1,27,28
 512 120 512 120 502 130 c 2,29,-1
 492 140 l 1,30,-1
 413 140 l 1,31,-1
 413 73 l 1,32,33
 415 61 415 61 423.5 53.5 c 128,-1,34
 432 46 432 46 445 46 c 1,35,-1
 445 0 l 1,36,-1
 250 0 l 1,37,-1
 250 46 l 1,38,39
 261 46 261 46 272 54.5 c 128,-1,40
 283 63 283 63 283 73 c 2,41,-1
 283 140 l 1,42,-1
 211 140 l 1,43,44
 169 89 169 89 169 67.5 c 128,-1,45
 169 46 169 46 186 46 c 1,46,-1
 186 0 l 1,47,-1
 47 0 l 1,0,-1
242 200 m 1,48,-1
 463 200 l 1,49,50
 460 204 460 204 342 351 c 1,51,52
 316 296 316 296 256 217 c 0,53,54
 244 202 244 202 242 200 c 1,48,-1
EndSplineSet
Validated: 1
EndChar

StartChar: uni0468
Encoding: 1128 1128 30
Width: 1319
Flags: HW
HStem: 0 46<46 88.0616 233.472 276 533.53 572 676 718.749 862.835 905 1030 1065.4> 225 66<661 721 860 939> 309 65<231 569> 564 46<46 88.7324 233.55 276 676 714.812>
VStem: 91 140<50.6494 309 374 559.412> 380 153<4.57031 83.381> 721 139<49.9807 225> 1066 207<0 75>
AnchorPoint: "Diacritic" 770 751 basechar 0
LayerCount: 3
Fore
SplineSet
533 74 m 0
 533 53 548 46 572 46 c 1
 572 0 l 1
 381 0 l 1
 381 3 380 6 380 9 c 0
 380 29 385 51 397 74 c 0
 437 162 508 238 569 309 c 1
 231 309 l 1
 231 82 l 2
 231 59 246 46 276 46 c 1
 276 0 l 1
 46 0 l 1
 46 46 l 1
 69 46 91 58 91 82 c 2
 91 532 l 1
 91 553 68 564 46 564 c 1
 46 610 l 1
 276 610 l 1
 276 564 l 1
 253 564 233 554 231 532 c 1
 231 374 l 1
 625 374 l 1
 652 406 674 435 691 462 c 0
 709 488 718 510 718 527 c 0
 718 551 700 560 676 564 c 1
 676 610 l 1
 879 610 l 1
 888 581 905 550 928 517 c 0
 1004 408 1105 303 1183 196 c 0
 1210 161 1231 126 1248 93 c 0
 1265 60 1273 29 1273 0 c 1
 1030 0 l 1
 1030 46 l 1
 1053 46 1066 54 1066 75 c 0
 1066 106 1043 140 1028 162 c 0
 1014 183 994 212 978 225 c 1
 860 225 l 1
 860 81 l 1
 861 55 881 46 905 46 c 1
 905 0 l 1
 676 0 l 1
 676 46 l 1
 702 46 721 57 721 81 c 2
 721 225 l 1
 617 225 l 1
 592 195 572 167 557 140 c 0
 541 114 533 92 533 74 c 0
661 291 m 1
 939 291 l 1
 926 304 907 326 881 357 c 0
 855 388 822 429 782 480 c 1
 755 421 718 360 681 313 c 0
 672 301 665 294 661 291 c 1
EndSplineSet
Layer: 2
SplineSet
620 225 m 1,0,1
 536 123 536 123 536 74 c 0,2,3
 536 46 536 46 575 46 c 1,4,-1
 575 0 l 1,5,-1
 384 0 l 1,6,-1
 383 9 l 1,7,8
 383 41 383 41 396.5 68 c 128,-1,9
 410 95 410 95 423.5 118 c 128,-1,10
 437 141 437 141 447.5 157 c 128,-1,11
 458 173 458 173 479 199.5 c 128,-1,12
 500 226 500 226 508 235 c 128,-1,13
 516 244 516 244 542 274.5 c 128,-1,14
 568 305 568 305 572 309 c 1,15,-1
 234 309 l 1,16,-1
 234 82 l 2,17,18
 234 46 234 46 279 46 c 1,19,-1
 279 0 l 1,20,-1
 49 0 l 1,21,-1
 49 46 l 1,22,23
 68 46 68 46 81 55.5 c 128,-1,24
 94 65 94 65 94 82 c 2,25,-1
 94 532 l 2,26,27
 94 547 94 547 80.5 555.5 c 128,-1,28
 67 564 67 564 49 564 c 1,29,-1
 49 610 l 1,30,-1
 279 610 l 1,31,-1
 279 564 l 1,32,33
 237 564 237 564 234 532 c 1,34,-1
 234 374 l 1,35,-1
 628 374 l 1,36,37
 721 482 721 482 721 527 c 0,38,39
 721 557 721 557 679 564 c 1,40,-1
 679 610 l 1,41,-1
 882 610 l 1,42,43
 895 569 895 569 933 514 c 128,-1,44
 971 459 971 459 1060.5 352 c 128,-1,45
 1150 245 1150 245 1186 197 c 0,46,47
 1276 77 1276 77 1276 0 c 1,48,-1
 1033 0 l 1,49,-1
 1033 46 l 1,50,51
 1069 46 1069 46 1069 75 c 0,52,53
 1069 106 1069 106 1033.5 158.5 c 128,-1,54
 998 211 998 211 981 225 c 1,55,-1
 863 225 l 1,56,-1
 863 81 l 1,57,58
 864 46 864 46 908 46 c 1,59,-1
 908 0 l 1,60,-1
 679 0 l 1,61,-1
 679 46 l 1,62,63
 724 46 724 46 724 81 c 2,64,-1
 724 225 l 1,65,-1
 620 225 l 1,0,1
664 291 m 1,66,-1
 942 291 l 1,67,68
 901 332 901 332 785 480 c 1,69,70
 743 388 743 388 684 313 c 0,71,72
 672 297 672 297 664 291 c 1,66,-1
EndSplineSet
Validated: 1
EndChar

StartChar: uni046A
Encoding: 1130 1130 31
Width: 973
Flags: HW
HStem: 0 46<202.681 248 371 415.152 559.917 603 722 765.716> 544 66<332.003 642.997>
VStem: 45 156<6 81.0362> 166 166<532 598> 417 141<50.3242 332>
AnchorPoint: "Diacritic" 490 751 basechar 0
LayerCount: 3
Fore
SplineSet
371 46 m 1xd8
 395 46 417 55 417 79 c 2
 417 332 l 1
 359 287 303 236 259 184 c 0
 240 162 226 142 216 124 c 0
 206 106 201 91 201 79 c 0
 201 57 217 46 248 46 c 1
 248 0 l 1
 48 0 l 2
 46 0 45 3 45 9 c 0xe8
 45 19 49 36 58 60 c 0
 67 85 83 114 108 148 c 0
 133 182 167 220 212 260 c 0
 257 302 315 344 387 388 c 1
 386 389 l 1
 325 419 258 459 212 506 c 0
 191 529 166 559 166 598 c 0
 166 603 165 607 166 610 c 1
 807 610 l 1
 808 608 808 606 808 604 c 2
 808 597 l 2
 808 586 805 574 800 560 c 0
 794 546 783 530 767 513 c 0
 751 496 729 477 700 456 c 0
 671 435 634 413 588 389 c 1
 588 388 l 1
 665 341 744 286 808 224 c 0
 850 185 888 139 912 86 c 0
 923 61 928 37 928 12 c 2
 928 0 l 1
 722 0 l 1
 722 46 l 1
 749 46 767 54 767 78 c 0
 767 92 760 110 748 131 c 0
 718 180 674 227 631 268 c 0
 606 292 582 313 558 332 c 1
 558 78 l 2
 558 56 581 46 603 46 c 1
 603 0 l 1
 371 0 l 1
 371 46 l 1xd8
344 544 m 1
 336 542 332 538 332 532 c 0xd8
 332 523 338 512 352 500 c 0
 377 474 416 448 450 431 c 0
 467 422 480 418 489 418 c 0
 498 418 512 423 529 432 c 0
 562 451 600 479 624 506 c 0
 637 518 643 529 643 536 c 0
 643 541 639 544 630 544 c 2
 344 544 l 1
EndSplineSet
Layer: 2
SplineSet
375 46 m 1,0,1
 421 46 421 46 421 79 c 2,2,-1
 421 332 l 1,3,4
 326 258 326 258 263 184 c 0,5,6
 205 117 205 117 205 79 c 0,7,8
 205 46 205 46 252 46 c 1,9,-1
 252 0 l 1,10,-1
 52 0 l 2,11,12
 49 0 49 0 49 12.5 c 128,-1,13
 49 25 49 25 62.5 62 c 128,-1,14
 76 99 76 99 115 151.5 c 128,-1,15
 154 204 154 204 216 260 c 1,16,17
 281 321 281 321 391 388 c 1,18,-1
 390 389 l 1,19,20
 275 445 275 445 216 506 c 1,21,22
 170 556 170 556 170 598 c 2,23,-1
 170 610 l 1,24,-1
 811 610 l 1,25,26
 812 608 812 608 812 604 c 2,27,-1
 812 597 l 2,28,29
 812 533 812 533 704 456 c 0,30,31
 657 422 657 422 592 389 c 1,32,-1
 592 388 l 1,33,34
 729 304 729 304 812 224 c 1,35,36
 932 112 932 112 932 12 c 2,37,-1
 932 0 l 1,38,-1
 726 0 l 1,39,-1
 726 46 l 1,40,41
 771 46 771 46 771 78 c 0,42,43
 771 98 771 98 752 131 c 0,44,45
 715 192 715 192 635 268 c 0,46,47
 598 303 598 303 562 332 c 1,48,-1
 562 78 l 2,49,50
 562 63 562 63 575.5 54.5 c 128,-1,51
 589 46 589 46 607 46 c 1,52,-1
 607 0 l 1,53,-1
 375 0 l 1,54,-1
 375 46 l 1,0,1
348 544 m 1,55,56
 336 541 336 541 336 529 c 128,-1,57
 336 517 336 517 356 500 c 1,58,59
 393 461 393 461 454 431 c 0,60,61
 479 418 479 418 493 418 c 128,-1,62
 507 418 507 418 533 432 c 0,63,64
 593 466 593 466 628 506 c 1,65,66
 647 524 647 524 647 536 c 0,67,68
 647 544 647 544 634 544 c 2,69,-1
 348 544 l 1,55,56
EndSplineSet
Validated: 1
EndChar

StartChar: uni046C
Encoding: 1132 1132 32
Width: 1324
Flags: HW
HStem: 0 46<46 88.7324 232.843 276 552.681 598 721 765.152 909.917 953 1072 1115.72> 346 60<231 672> 544 66<682.003 992.997> 564 46<46 88.0616 234.868 276>
VStem: 91 140<50.5879 346 406 559.201> 395 156<8.5 84.5961> 767 141<50.3242 332>
AnchorPoint: "Diacritic" 850 751 basechar 0
LayerCount: 3
Fore
SplineSet
694 544 m 1xee
 686 542 682 538 682 532 c 0
 682 523 689 512 701 500 c 0
 727 474 766 450 800 433 c 0
 817 424 830 418 839 418 c 0
 848 418 862 424 879 433 c 0
 912 452 950 479 975 506 c 0
 987 518 993 529 993 536 c 0
 993 541 989 544 980 544 c 2
 694 544 l 1xee
46 46 m 1
 68 46 91 57 91 78 c 1
 91 528 l 2
 91 552 69 564 46 564 c 1
 46 610 l 1
 276 610 l 1
 276 564 l 1
 247 564 235 553 231 528 c 1
 231 406 l 1
 704 406 l 1
 643 438 574 483 536 539 c 0
 523 558 516 578 516 598 c 0
 516 603 515 607 516 610 c 1
 1157 610 l 1xde
 1158 608 1158 606 1158 604 c 2
 1158 597 l 2
 1158 586 1155 574 1149 560 c 0
 1144 546 1133 530 1117 513 c 0
 1101 496 1079 477 1050 456 c 0
 1021 435 984 413 938 389 c 1
 938 388 l 1
 1015 341 1094 286 1159 224 c 0
 1200 185 1238 139 1262 86 c 0
 1273 61 1278 37 1278 12 c 2
 1278 0 l 1
 1072 0 l 1
 1072 46 l 1
 1099 46 1117 54 1117 78 c 0
 1117 92 1111 110 1097 131 c 0
 1068 180 1024 227 981 268 c 0
 956 292 932 313 908 332 c 1
 908 78 l 2
 908 56 931 46 953 46 c 1
 953 0 l 1
 721 0 l 1
 721 46 l 1
 745 46 767 55 767 79 c 2
 767 332 l 1
 709 287 653 236 609 184 c 0
 590 162 576 142 566 124 c 0
 556 106 551 91 551 79 c 0
 551 57 567 46 598 46 c 1
 598 0 l 1
 398 0 l 2
 396 0 395 4 395 13 c 0
 395 24 399 40 407 61 c 0
 414 82 428 108 449 137 c 0
 470 166 498 199 534 234 c 0
 570 270 616 307 672 346 c 1
 231 346 l 1
 231 78 l 1
 231 56 253 46 276 46 c 1
 276 0 l 1
 46 0 l 1
 46 46 l 1
EndSplineSet
Layer: 2
SplineSet
697 544 m 1,0,1
 685 541 685 541 685 530 c 128,-1,2
 685 519 685 519 712 492 c 128,-1,3
 739 465 739 465 803 433 c 0,4,5
 831 418 831 418 842.5 418 c 128,-1,6
 854 418 854 418 898.5 443 c 128,-1,7
 943 468 943 468 978 506 c 1,8,9
 996 524 996 524 996 536 c 0,10,11
 996 544 996 544 983 544 c 2,12,-1
 697 544 l 1,0,1
49 46 m 1,13,14
 67 46 67 46 80.5 54.5 c 128,-1,15
 94 63 94 63 94 78 c 2,16,-1
 94 528 l 2,17,18
 94 545 94 545 81 554.5 c 128,-1,19
 68 564 68 564 49 564 c 1,20,-1
 49 610 l 1,21,-1
 279 610 l 1,22,-1
 279 564 l 1,23,24
 240 564 240 564 234 528 c 1,25,-1
 234 406 l 1,26,-1
 707 406 l 1,27,28
 586 469 586 469 539 539 c 0,29,30
 519 568 519 568 519 598 c 2,31,-1
 519 610 l 1,32,-1
 1160 610 l 1,33,34
 1161 608 1161 608 1161 604 c 2,35,-1
 1161 597 l 2,36,37
 1161 581 1161 581 1152 560 c 1,38,39
 1137 516 1137 516 1053 456 c 0,40,41
 1006 422 1006 422 941 389 c 1,42,-1
 941 388 l 1,43,44
 1199 231 1199 231 1265 86 c 0,45,46
 1281 51 1281 51 1281 12 c 2,47,-1
 1281 0 l 1,48,-1
 1075 0 l 1,49,-1
 1075 46 l 1,50,51
 1120 46 1120 46 1120 78 c 0,52,53
 1120 101 1120 101 1100 131 c 1,54,55
 1064 192 1064 192 984 268 c 0,56,57
 947 303 947 303 911 332 c 1,58,-1
 911 78 l 2,59,60
 911 63 911 63 924.5 54.5 c 128,-1,61
 938 46 938 46 956 46 c 1,62,-1
 956 0 l 1,63,-1
 724 0 l 1,64,-1
 724 46 l 1,65,66
 770 46 770 46 770 79 c 2,67,-1
 770 332 l 1,68,69
 675 258 675 258 612 184 c 0,70,71
 554 117 554 117 554 79 c 0,72,73
 554 46 554 46 601 46 c 1,74,-1
 601 0 l 1,75,-1
 401 0 l 2,76,77
 398 0 398 0 398 15 c 128,-1,78
 398 30 398 30 409.5 62 c 128,-1,79
 421 94 421 94 454 140 c 128,-1,80
 487 186 487 186 537 234 c 1,81,82
 589 286 589 286 675 346 c 1,83,-1
 234 346 l 1,84,-1
 234 78 l 2,85,86
 234 62 234 62 247 54 c 128,-1,87
 260 46 260 46 279 46 c 1,88,-1
 279 0 l 1,89,-1
 49 0 l 1,90,-1
 49 46 l 1,13,14
EndSplineSet
Validated: 1
EndChar

StartChar: uni0472
Encoding: 1138 1138 33
Width: 971
Flags: HW
HStem: -29 142<423.457 547.419> 186 135<119.5 179.298 792.824 850.5> 253 68<202.328 293.5 362.5 610.5 681.5 767.079> 498 141<419.92 551.967>
VStem: 293.5 69<184.136 253 321 432.009> 610.5 69<187.547 253 321 431.83>
AnchorPoint: "Diacritic" 486.5 754 basechar 0
LayerCount: 3
Fore
SplineSet
362.5 253 m 1xbc
 374.5 183 412.5 113 486.5 113 c 1
 558.5 113 598.5 185 610.5 253 c 1
 362.5 253 l 1xbc
485.5 498 m 0
 421.5 498 388.5 453 371.5 402 c 0
 363.5 380 358.5 353 358.5 321 c 1
 613.5 321 l 1
 613.5 384 597.5 430 573.5 457 c 0
 549.5 484 520.5 498 485.5 498 c 0
805.5 186 m 1xdc
 783.5 230 747.5 253 679.5 253 c 1
 679.5 160 651.5 90 617.5 42 c 0
 581.5 -5 538.5 -29 486.5 -29 c 0
 425.5 -29 386.5 3 357.5 42 c 0
 320.5 94 293.5 168 293.5 253 c 1
 266.5 253 l 2xbc
 215.5 253 184.5 220 164.5 186 c 1
 119.5 186 l 1xdc
 24.5 275 l 1
 24.5 321 l 1
 293.5 321 l 1
 293.5 429 312.5 513 355.5 571 c 0
 385.5 610 426.5 639 485.5 639 c 0
 545.5 639 586.5 611 616.5 571 c 0
 660.5 513 681.5 428 681.5 321 c 1
 946.5 321 l 1xbc
 946.5 275 l 1
 850.5 186 l 1
 805.5 186 l 1xdc
EndSplineSet
Layer: 2
SplineSet
361 253 m 1,0,1
 371 194 371 194 402 153.5 c 128,-1,2
 433 113 433 113 484 113 c 128,-1,3
 535 113 535 113 567 154 c 128,-1,4
 599 195 599 195 609 253 c 1,5,-1
 361 253 l 1,0,1
484 498 m 0,6,7
 402 498 402 498 370 402 c 0,8,9
 357 366 357 366 357 321 c 1,10,-1
 612 321 l 1,11,12
 612 412 612 412 574 455 c 128,-1,13
 536 498 536 498 484 498 c 0,6,7
804 186 m 1,14,15
 770 253 770 253 678 253 c 1,16,17
 678 130 678 130 616 42 c 1,18,19
 562 -29 562 -29 485.5 -29 c 128,-1,20
 409 -29 409 -29 356 42 c 1,21,22
 292 132 292 132 292 253 c 1,23,-1
 265 253 l 2,24,25
 202 253 202 253 163 186 c 1,26,-1
 118 186 l 1,27,-1
 23 275 l 1,28,-1
 23 321 l 1,29,-1
 292 321 l 1,30,31
 292 487 292 487 354 571 c 1,32,33
 406 639 406 639 485 639 c 128,-1,34
 564 639 564 639 615 571 c 0,35,36
 680 485 680 485 680 321 c 1,37,-1
 945 321 l 1,38,-1
 945 275 l 1,39,-1
 849 186 l 1,40,-1
 804 186 l 1,14,15
EndSplineSet
Validated: 1
EndChar

StartChar: uni0474
Encoding: 1140 1140 34
Width: 828
Flags: HW
HStem: 0 66<389.957 420.641> 564 46<14.5 52.0243>
DStem2: 217.5 582 64.5 518 0.34116 -0.940005<-29.3403 545.769>
AnchorPoint: "Diacritic" 406.5 751 basechar 0
LayerCount: 3
Fore
SplineSet
679.5 421 m 1
 676.5 443 673.5 468 648.5 468 c 0
 642.5 468 636.5 463 631.5 454 c 0
 630.5 453 624.5 441 612.5 418 c 0
 579.5 352 550.5 267 526.5 178 c 0
 511.5 122 495.5 63 495.5 0 c 1
 414.5 0 333.5 0 252.5 0 c 1
 64.5 518 l 1
 55.5 539 44.5 564 14.5 564 c 1
 14.5 610 l 1
 208.5 610 l 2
 208.5 609 211.5 600 217.5 582 c 0
 273.5 415 336.5 231 395.5 66 c 1
 418.5 66 l 1
 440.5 229 489.5 394 551.5 516 c 0
 570.5 552 587.5 578 604.5 594 c 0
 613.5 603 628.5 610 644.5 610 c 2
 773.5 610 l 2
 800.5 610 813.5 604 813.5 591 c 0
 813.5 586 812.5 584 811.5 580 c 0
 801.5 542 779.5 502 761.5 472 c 0
 753.5 458 744.5 445 737.5 436 c 0
 730.5 427 725.5 422 724.5 421 c 2
 679.5 421 l 1
EndSplineSet
Layer: 2
SplineSet
680 421 m 1,0,1
 674 468 674 468 649 468 c 0,2,3
 640 468 640 468 632 454 c 2,4,-1
 613 418 l 1,5,6
 567 326 567 326 531.5 194 c 128,-1,7
 496 62 496 62 496 0 c 1,8,-1
 253 0 l 1,9,-1
 65 518 l 2,10,11
 59 532 59 532 54.5 540 c 128,-1,12
 50 548 50 548 39.5 556 c 128,-1,13
 29 564 29 564 15 564 c 1,14,-1
 15 610 l 1,15,-1
 209 610 l 1,16,17
 209 609 209 609 262.5 449 c 128,-1,18
 316 289 316 289 396 66 c 1,19,-1
 419 66 l 1,20,21
 454 322 454 322 552 516 c 0,22,23
 581 572 581 572 601 591 c 128,-1,24
 621 610 621 610 645 610 c 2,25,-1
 774 610 l 2,26,27
 814 610 814 610 814 591 c 0,28,29
 814 587 814 587 812 580 c 0,30,31
 800 536 800 536 762 472 c 0,32,33
 743 439 743 439 725 421 c 1,34,-1
 680 421 l 1,0,1
EndSplineSet
Validated: 1
EndChar

StartChar: uni0478
Encoding: 1144 1144 35
Width: 1159
GlyphClass: 3
Flags: HW
HStem: -29 161<185.6 287.337> 391 42<476.5 519.339> 488 151<179.55 293.137>
VStem: 40.5 85<206.082 423.345> 347.5 83<207.566 422.449> 795.5 53<-394.575 -97.7244> 811.5 42<-435.855 -203.789>
DStem2: 665.5 415 527.5 358 0.368703 -0.929547<-18.8972 378.85>
AnchorPoint: "Diacritic" 812.5 607 basechar 0
LayerCount: 3
Fore
SplineSet
347.5 309 m 0xf8
 347.5 389 325.5 455 272.5 479 c 0
 260.5 485 247.5 488 234.5 488 c 0
 203.5 488 179.5 470 162.5 450 c 1
 137.5 418 125.5 370 125.5 309 c 0
 125.5 233 153.5 172 198.5 144 c 0
 212.5 136 224.5 132 235.5 132 c 0
 268.5 132 293.5 156 310.5 179 c 0
 332.5 210 347.5 254 347.5 309 c 0xf8
40.5 305 m 0
 40.5 418 58.5 507 102.5 568 c 0
 132.5 610 173.5 639 234.5 639 c 256
 295.5 639 337.5 610 367.5 568 c 0
 411.5 507 430.5 418 430.5 305 c 0
 430.5 165 396.5 45 312.5 -7 c 0
 289.5 -22 263.5 -29 235.5 -29 c 0
 169.5 -29 125.5 10 97.5 56 c 0
 60.5 117 40.5 204 40.5 305 c 0
995.5 265 m 2
 995.5 274 994.5 293 985.5 293 c 0
 980.5 293 973.5 287 965.5 275 c 0
 928.5 221 903.5 161 889.5 86 c 0
 863.5 -56 848.5 -177 848.5 -316 c 0xfc
 848.5 -352 851.5 -380 851.5 -400 c 0
 851.5 -420 853.5 -432 853.5 -436 c 1
 824.5 -436 l 1
 819.5 -433 815.5 -424 811.5 -410 c 0xfa
 796.5 -346 795.5 -258 795.5 -177 c 0
 795.5 -116 802.5 -57 802.5 0 c 1
 669.5 0 l 1
 527.5 358 l 2
 520.5 374 500.5 391 476.5 391 c 1
 476.5 433 l 1
 659.5 433 l 1
 659.5 432 661.5 427 665.5 415 c 0
 707.5 301 752.5 174 795.5 59 c 1xfc
 812.5 59 l 1
 824.5 147 848.5 243 875.5 314 c 0
 888.5 350 902.5 379 916.5 401 c 0
 930.5 423 943.5 433 955.5 433 c 2
 1101.5 433 l 1
 1112.5 431 1118.5 424 1118.5 410 c 0
 1118.5 383 1106.5 357 1097.5 334 c 1
 1084.5 307 1066.5 277 1047.5 256 c 1
 995.5 256 l 1
 995.5 265 l 2
EndSplineSet
Layer: 2
SplineSet
347 309 m 0,0,1
 347 445 347 445 272 479 c 0,2,3
 254 488 254 488 234 488 c 0,4,5
 194 488 194 488 162 450 c 1,6,7
 125 403 125 403 125 309 c 0,8,9
 125 252 125 252 144.5 208.5 c 128,-1,10
 164 165 164 165 191.5 148.5 c 128,-1,11
 219 132 219 132 235 132 c 0,12,13
 275 132 275 132 310 179 c 1,14,15
 347 231 347 231 347 309 c 0,0,1
97 56 m 0,16,17
 40 150 40 150 40 316 c 128,-1,18
 40 482 40 482 102 568 c 0,19,20
 153 639 153 639 234.5 639 c 128,-1,21
 316 639 316 639 367 568 c 0,22,23
 430 481 430 481 430 305 c 0,24,25
 430 66 430 66 312 -7 c 0,26,27
 278 -29 278 -29 235 -29 c 0,28,29
 149 -29 149 -29 97 56 c 0,16,17
795 -177 m 1,30,-1
 802 0 l 1,31,-1
 669 0 l 1,32,-1
 527 358 l 2,33,34
 521 371 521 371 507 381 c 128,-1,35
 493 391 493 391 476 391 c 1,36,-1
 476 433 l 1,37,-1
 659 433 l 1,38,39
 661 425 661 425 671 398 c 128,-1,40
 681 371 681 371 726 247 c 128,-1,41
 771 123 771 123 795 59 c 1,42,-1
 812 59 l 1,43,44
 831 198 831 198 875 314 c 1,45,46
 918 433 918 433 955 433 c 2,47,-1
 1101 433 l 1,48,49
 1118 430 1118 430 1118 409 c 128,-1,50
 1118 388 1118 388 1097 334 c 1,51,52
 1074 285 1074 285 1047 256 c 1,53,-1
 995 256 l 1,54,-1
 995 265 l 2,55,56
 995 293 995 293 986 293 c 128,-1,57
 977 293 977 293 965 275 c 0,58,59
 909 193 909 193 889 86 c 0,60,61
 848 -138 848 -138 848 -316 c 1,62,-1
 851 -400 l 1,63,-1
 853 -436 l 1,64,-1
 824 -436 l 1,65,66
 795 -419 795 -419 795 -177 c 1,30,-1
EndSplineSet
Validated: 1
EndChar

StartChar: uni0407
Encoding: 1031 1031 36
Width: 435
GlyphClass: 3
Flags: W
HStem: 0 46<84 126.361 271.55 314> 564 46<84 126.062 272.868 314> 664 123<-3.2296 89.8 327.77 420.8>
VStem: -18 123<678.77 771.8> 129 140<50.5879 559.351> 313 123<678.77 771.8>
AnchorPoint: "Diacritic" 207 800 basechar 0
LayerCount: 3
Fore
SplineSet
391 664 m 256
 357 664 330 691 330 725 c 256
 330 759 357 787 391 787 c 256
 425 787 453 759 453 725 c 256
 453 691 425 664 391 664 c 256
60 664 m 256
 26 664 -1 691 -1 725 c 256
 -1 759 26 787 60 787 c 256
 94 787 122 759 122 725 c 256
 122 691 94 664 60 664 c 256
101 46 m 1
 123 46 145 57 146 78 c 1
 146 528 l 2
 146 552 124 564 101 564 c 1
 101 610 l 1
 331 610 l 1
 331 564 l 1
 302 563 290 553 286 528 c 1
 286 78 l 1
 288 56 308 46 331 46 c 1
 331 0 l 1
 101 0 l 1
 101 46 l 1
EndSplineSet
Validated: 1
Layer: 2
SplineSet
374 664 m 256,0,1
 349 664 349 664 331 682 c 128,-1,2
 313 700 313 700 313 725.5 c 128,-1,3
 313 751 313 751 331 769 c 128,-1,4
 349 787 349 787 374 787 c 128,-1,5
 399 787 399 787 417.5 768.5 c 128,-1,6
 436 750 436 750 436 725 c 128,-1,7
 436 700 436 700 418 682 c 128,-1,8
 400 664 400 664 374 664 c 256,0,1
43 664 m 256,9,10
 17 664 17 664 -0.5 682 c 128,-1,11
 -18 700 -18 700 -18 725.5 c 128,-1,12
 -18 751 -18 751 0 769 c 128,-1,13
 18 787 18 787 43.5 787 c 128,-1,14
 69 787 69 787 87 768.5 c 128,-1,15
 105 750 105 750 105 725 c 128,-1,16
 105 700 105 700 87 682 c 128,-1,17
 69 664 69 664 43 664 c 256,9,10
84 46 m 1,18,19
 102 46 102 46 115 54.5 c 128,-1,20
 128 63 128 63 129 78 c 1,21,-1
 129 528 l 2,22,23
 129 545 129 545 116 554.5 c 128,-1,24
 103 564 103 564 84 564 c 1,25,-1
 84 610 l 1,26,-1
 314 610 l 1,27,-1
 314 564 l 1,28,29
 292 563 292 563 282 555 c 128,-1,30
 272 547 272 547 269 528 c 1,31,-1
 269 78 l 1,32,33
 272 46 272 46 314 46 c 1,34,-1
 314 0 l 1,35,-1
 84 0 l 1,36,-1
 84 46 l 1,18,19
EndSplineSet
LCarets2: 1 0 
Ligature2: "'ccmp' Canonical Equivalents-Cyrillic" uni0406 uni0308
EndChar

StartChar: uni0406
Encoding: 1030 1030 37
Width: 435
Flags: W
HStem: 0 46<104 146.732 290.843 334> 564 46<104 146.062 292.868 334>
VStem: 149 140<50.5879 559.201>
AnchorPoint: "Diacritic" 223 742 basechar 0
LayerCount: 3
Fore
SplineSet
101 46 m 1
 123 46 146 57 146 78 c 1
 146 528 l 2
 146 552 124 564 101 564 c 1
 101 610 l 1
 331 610 l 1
 331 564 l 1
 302 564 290 553 286 528 c 1
 286 78 l 1
 286 56 308 46 331 46 c 1
 331 0 l 1
 101 0 l 1
 101 46 l 1
EndSplineSet
Validated: 1
Layer: 2
SplineSet
104 46 m 1,0,1
 122 46 122 46 135.5 54.5 c 128,-1,2
 149 63 149 63 149 78 c 2,3,-1
 149 528 l 2,4,5
 149 545 149 545 136 554.5 c 128,-1,6
 123 564 123 564 104 564 c 1,7,-1
 104 610 l 1,8,-1
 334 610 l 1,9,-1
 334 564 l 1,10,11
 295 564 295 564 289 528 c 1,12,-1
 289 78 l 2,13,14
 289 62 289 62 302 54 c 128,-1,15
 315 46 315 46 334 46 c 1,16,-1
 334 0 l 1,17,-1
 104 0 l 1,18,-1
 104 46 l 1,0,1
EndSplineSet
EndChar

StartChar: uni0405
Encoding: 1029 1029 38
Width: 654
Flags: W
HStem: -21 68<268.112 367.541> 155 44<255.922 292> 419 45<367 407.172> 553 70<269.391 391.01>
VStem: 81 160<391.666 525.581> 110 141<62.5224 149.313> 395 130<76.0201 212.166> 408 158<466.957 535.938>
AnchorPoint: "Diacritic" 317 750 basechar 0
LayerCount: 3
Fore
SplineSet
328 47 m 1xf6
 375 50 402 94 402 145 c 0xf6
 402 170 395 193 382 212 c 0
 369 231 344 248 307 261 c 1
 161 299 88 362 88 450 c 0
 88 585 204 623 351 623 c 0
 499 623 573 565 573 448 c 0
 573 441 573 440 573 433 c 0
 573 428 573 424 572 419 c 1
 374 419 l 1
 374 464 l 1
 401 465 415 475 415 493 c 0
 415 536 376 552 331 553 c 1
 276 549 248 516 248 459 c 0xf9
 248 396 285 370 329 345 c 0
 350 333 378 321 412 308 c 0
 492 278 532 227 532 154 c 1
 527 37 459 -21 328 -21 c 1
 202 -19 117 27 117 148 c 0
 117 170 125 186 135 199 c 1
 299 199 l 1
 299 155 l 1
 272 152 258 137 258 109 c 0
 258 69 289 47 328 47 c 1xf6
EndSplineSet
Validated: 1
Layer: 2
SplineSet
271 64 m 0,0,1
 290 48 290 48 319 48 c 0,2,3
 321 48 321 48 323 48 c 0,4,5
 354 48 354 48 375 77 c 0,6,7
 395 105 395 105 395 144 c 128,-1,8
 395 183 395 183 375 212.5 c 128,-1,9
 355 242 355 242 300 261 c 1,10,11
 81 318 81 318 81 450 c 0,12,13
 81 623 81 623 344 623 c 0,14,15
 566 623 566 623 566 448 c 2,16,-1
 566 433 l 2,17,18
 566 424 566 424 565 419 c 1,19,-1
 367 419 l 1,20,-1
 367 464 l 1,21,22
 408 466 408 466 408 493 c 0,23,24
 408 551 408 551 324 553 c 1,25,26
 241 547 241 547 241 459 c 0,27,28
 241 416 241 416 261 392 c 0,29,30
 299 349 299 349 405 308 c 0,31,32
 525 262 525 262 525 154 c 1,33,34
 518 -21 518 -21 321 -21 c 1,35,36
 110 -18 110 -18 110 148 c 0,37,38
 110 176 110 176 128 199 c 1,39,-1
 292 199 l 1,40,-1
 292 155 l 1,41,42
 251 150 251 150 251 109 c 0,43,44
 251 81 251 81 271 64 c 0,0,1
EndSplineSet
EndChar

StartChar: uni04380435
Encoding: 59089 59089 39
Width: 1098
GlyphClass: 3
Flags: HW
HStem: -16 132<852.245 949.025> 0 46<95.5 135.431 265.737 305.5 436.5 476.431 606.737 646.5> 171 89<867.844 989.676> 203 54<831.548 894.871> 209 60<265.5 476.5 606.5 761.5> 331 122<850.38 955.27> 387 46<95.5 135.238 266.386 303.5 436.5 476.227 606.729 646.5>
VStem: 135.5 130<49.012 209 269 384.123> 476.5 130<49.012 209 269 384.1>
AnchorPoint: "Diacritic" 536.5 563 basechar 0
LayerCount: 3
Fore
SplineSet
968.5 62 m 0x9180
 968.5 15 942.5 -16 892.5 -16 c 0x9180
 846.5 -16 816.5 18 798.5 50 c 0
 776.5 88 761.5 142 761.5 200 c 1
 761.5 209 l 1
 606.5 209 l 1
 606.5 69 l 1
 608.5 51 627.5 46 646.5 46 c 1
 646.5 0 l 1
 436.5 0 l 1
 436.5 46 l 1
 452.5 46 476.5 54 476.5 69 c 1
 476.5 209 l 1
 265.5 209 l 1
 265.5 69 l 1
 267.5 51 286.5 46 305.5 46 c 1
 305.5 0 l 1
 95.5 0 l 1
 95.5 46 l 1
 111.5 46 135.5 54 135.5 69 c 1
 135.5 362 l 2
 135.5 379 112.5 387 95.5 387 c 1
 95.5 433 l 1
 303.5 433 l 1
 303.5 387 l 1
 281.5 387 268.5 378 265.5 362 c 1
 265.5 269 l 1
 476.5 269 l 1
 476.5 362 l 2
 476.5 379 452.5 387 436.5 387 c 1
 436.5 433 l 1
 646.5 433 l 1
 646.5 387 l 1
 626.5 387 606.5 381 606.5 362 c 1
 606.5 269 l 1
 765.5 269 l 1x4b80
 777.5 346 809.5 412 865.5 442 c 0
 880.5 449 894.5 453 907.5 453 c 0
 948.5 453 974.5 418 974.5 378 c 0
 974.5 345 964.5 331 932.5 331 c 2
 903.5 331 l 2
 855.5 331 838.5 305 831.5 262 c 0
 831.5 259 837.5 257 848.5 257 c 256x1580
 873.5 257 913.5 260 940.5 260 c 0
 951.5 260 951.5 260 962.5 260 c 0
 983.5 260 1002.5 255 1002.5 233 c 0
 1002.5 196 978.5 171 943.5 171 c 0x2180
 910.5 171 879.5 188 856.5 198 c 0
 848.5 201 842.5 203 837.5 203 c 0
 834.5 203 832.5 202 831.5 201 c 1
 836.5 158 848.5 129 876.5 116 c 0
 901.5 105 941.5 119 960.5 98 c 0
 965.5 92 968.5 80 968.5 62 c 0x9180
EndSplineSet
Layer: 2
SplineSet
844 257 m 2,0,-1
 936 260 l 1,1,-1
 958 260 l 2,2,3
 998 260 998 260 998 232.5 c 128,-1,4
 998 205 998 205 981.5 188 c 128,-1,5
 965 171 965 171 939.5 171 c 128,-1,6
 914 171 914 171 852 198 c 0,7,8
 839 203 839 203 834 203 c 128,-1,9
 829 203 829 203 827 201 c 1,10,11
 835 133 835 133 872 116 c 0,12,13
 881 112 881 112 913 111 c 128,-1,14
 945 110 945 110 954.5 99 c 128,-1,15
 964 88 964 88 964 57 c 128,-1,16
 964 26 964 26 944.5 5 c 128,-1,17
 925 -16 925 -16 888 -16 c 0,18,19
 831 -16 831 -16 794 49 c 128,-1,20
 757 114 757 114 757 200 c 2,21,-1
 757 209 l 1,22,-1
 602 209 l 1,23,-1
 602 69 l 1,24,25
 605 46 605 46 642 46 c 1,26,-1
 642 0 l 1,27,-1
 432 0 l 1,28,-1
 432 46 l 1,29,30
 446 46 446 46 459 52.5 c 128,-1,31
 472 59 472 59 472 69 c 2,32,-1
 472 209 l 1,33,-1
 261 209 l 1,34,-1
 261 69 l 1,35,36
 264 46 264 46 301 46 c 1,37,-1
 301 0 l 1,38,-1
 91 0 l 1,39,-1
 91 46 l 1,40,41
 105 46 105 46 118 52.5 c 128,-1,42
 131 59 131 59 131 69 c 2,43,-1
 131 362 l 2,44,45
 131 374 131 374 118.5 380.5 c 128,-1,46
 106 387 106 387 91 387 c 1,47,-1
 91 433 l 1,48,-1
 299 433 l 1,49,-1
 299 387 l 1,50,51
 266 387 266 387 261 362 c 1,52,-1
 261 269 l 1,53,-1
 472 269 l 1,54,-1
 472 362 l 2,55,56
 472 374 472 374 459 380.5 c 128,-1,57
 446 387 446 387 432 387 c 1,58,-1
 432 433 l 1,59,-1
 642 433 l 1,60,-1
 642 387 l 1,61,62
 602 387 602 387 602 362 c 2,63,-1
 602 269 l 1,64,-1
 761 269 l 1,65,66
 781 399 781 399 861 442 c 1,67,68
 885 453 885 453 909 453 c 128,-1,69
 933 453 933 453 951.5 431 c 128,-1,70
 970 409 970 409 970 381 c 128,-1,71
 970 353 970 353 961 342 c 128,-1,72
 952 331 952 331 928 331 c 2,73,-1
 899 331 l 2,74,75
 865 331 865 331 849 314 c 128,-1,76
 833 297 833 297 827 262 c 0,77,78
 827 257 827 257 844 257 c 2,0,-1
EndSplineSet
Validated: 1
Ligature2: "'ccmp' Cyrillic Ligatures-1" uni0438 uni200D uni0435
Colour: ffff00
EndChar

StartChar: uni043D0438
Encoding: 59211 59211 40
Width: 1093
GlyphClass: 3
Flags: HW
HStem: 0 46<101 141.877 270.143 310 442 481.872 612.326 652 782 821.878 952.148 992> 209 60<612 822> 387 46<101 141.622 281.861 310 442 481.703 612.821 652 782 821.766 964.346 992>
VStem: 142 128<49.3569 286 345 380.326> 482 130<48.9771 121 187 209 269 383.699> 822 130<49.0937 209 269 380.326>
DStem2: 270 345 270 286 0.789152 -0.614198<36.2377 264.344>
AnchorPoint: "Diacritic" 533 563 basechar 0
LayerCount: 3
Fore
SplineSet
142 361 m 2
 142 370.333 136.833 377 126.5 381 c 0
 116.167 385 107.667 387 101 387 c 1
 101 433 l 1
 310 433 l 1
 310 387 l 1
 298.667 386.327 289.167 384.161 281.5 380.5 c 0
 273.833 376.833 270 370.333 270 361 c 2
 270 345 l 1
 482 187 l 1
 482 361 l 2
 482 371 477 377.833 467 381.5 c 0
 457 385.167 448.667 387 442 387 c 1
 442 433 l 1
 652 433 l 1
 652 387 l 1
 628 385.667 614.667 377.333 612 362 c 1
 612 269 l 1
 822 269 l 1
 822 362 l 2
 822 371.333 817 377.833 807 381.5 c 0
 797 385.167 788.667 387 782 387 c 1
 782 433 l 1
 992 433 l 1
 992 387 l 1
 980.659 386.327 971.326 384.161 964 380.5 c 0
 956.667 376.83 952.667 370.664 952 362 c 1
 952 69 l 1
 952.696 63 954.862 58.5 958.5 55.5 c 0
 962.181 52.5 966.348 50.333 971 49 c 0
 975.667 47.666 980 46.833 984 46.5 c 0
 988 46.167 990.667 46 992 46 c 1
 992 0 l 1
 782 0 l 1
 782 46 l 1
 789.333 46 797.667 47.833 807 51.5 c 0
 816.333 55.167 821.333 61 822 69 c 1
 822 209 l 1
 612 209 l 1
 612 70 l 1
 612.685 64 614.852 59.5 618.5 56.5 c 0
 622.176 53.5 626.343 51.167 631 49.5 c 0
 635.667 47.833 640 46.833 644 46.5 c 0
 648 46.167 650.667 46 652 46 c 1
 652 0 l 1
 442 0 l 1
 442 46 l 1
 449.333 46 457.833 47.833 467.5 51.5 c 0
 477.167 55.167 482 61.333 482 70 c 2
 482 121 l 1
 270 286 l 1
 270 69 l 1
 270.667 63 272.833 58.5 276.5 55.5 c 0
 280.167 52.5 284.333 50.333 289 49 c 0
 293.667 47.666 298 46.833 302 46.5 c 0
 306 46.167 308.667 46 310 46 c 1
 310 0 l 1
 101 0 l 1
 101 46 l 1
 108.333 46 116.833 47.833 126.5 51.5 c 0
 136.167 55.167 141.334 61 142 69 c 1
 142 361 l 2
EndSplineSet
Layer: 2
SplineSet
269 69 m 1,0,1
 272 46 272 46 309 46 c 1,2,-1
 309 0 l 1,3,-1
 100 0 l 1,4,-1
 100 46 l 1,5,6
 111 46 111 46 126 52 c 0,7,8
 140 57 140 57 141 69 c 2,9,-1
 141 361 l 2,10,11
 141 375 141 375 126 381 c 0,12,13
 110 387 110 387 100 387 c 1,14,-1
 100 433 l 1,15,-1
 309 433 l 1,16,-1
 309 387 l 1,17,18
 269 385 269 385 269 361 c 2,19,-1
 269 345 l 1,20,-1
 481 187 l 1,21,-1
 481 361 l 2,22,23
 481 376 481 376 466 381.5 c 128,-1,24
 451 387 451 387 441 387 c 1,25,-1
 441 433 l 1,26,-1
 651 433 l 1,27,-1
 651 387 l 1,28,29
 615 385 615 385 611 362 c 1,30,-1
 611 269 l 1,31,-1
 821 269 l 1,32,-1
 821 362 l 2,33,34
 821 376 821 376 806 381.5 c 128,-1,35
 791 387 791 387 781 387 c 1,36,-1
 781 433 l 1,37,-1
 991 433 l 1,38,-1
 991 387 l 1,39,40
 953 385 953 385 951 362 c 1,41,-1
 951 69 l 1,42,43
 954 46 954 46 991 46 c 1,44,-1
 991 0 l 1,45,-1
 781 0 l 1,46,-1
 781 46 l 1,47,48
 792 46 792 46 806 51.5 c 128,-1,49
 820 57 820 57 821 69 c 1,50,-1
 821 209 l 1,51,-1
 611 209 l 1,52,-1
 611 70 l 1,53,54
 614 46 614 46 651 46 c 1,55,-1
 651 0 l 1,56,-1
 441 0 l 1,57,-1
 441 46 l 1,58,59
 452 46 452 46 466.5 51.5 c 128,-1,60
 481 57 481 57 481 70 c 2,61,-1
 481 121 l 1,62,-1
 269 286 l 1,63,-1
 269 69 l 1,0,1
EndSplineSet
Validated: 1
Ligature2: "'ccmp' Cyrillic Ligatures-1" uni043D uni200D uni0438
Colour: ffff00
EndChar

StartChar: uni043D0467
Encoding: 59216 59216 41
Width: 1493
GlyphClass: 3
Flags: HW
HStem: 0 46<101 141.877 270.143 310 442 481.872 612.326 652 846.737 873 913 943.715 1083.53 1123 1173 1200.75> 140 60<912 953 1083 1133> 200 60<612 839> 387 46<101 141.622 281.861 310 442 481.703 612.821 652 913 946.469>
VStem: 142 128<49.3569 286 345 380.326> 482 130<48.9771 121 187 200 260 383.699> 716 157<0 46> 716 123<6 69.2316> 953 130<56.827 140>
DStem2: 270 345 270 286 0.789152 -0.614198<36.2377 264.344> 1200 300 1012 351 0.629442 -0.777047<-157.672 35.5321>
AnchorPoint: "Diacritic" 531 563 basechar 0
LayerCount: 3
Fore
SplineSet
142 361 m 2xbd80
 142 370.333 136.833 377 126.5 381 c 0
 116.167 385 107.667 387 101 387 c 1
 101 433 l 1
 310 433 l 1
 310 387 l 1
 298.667 386.327 289.167 384.161 281.5 380.5 c 0
 273.833 376.833 270 370.333 270 361 c 2
 270 345 l 1
 482 187 l 1
 482 361 l 2
 482 371 477 377.833 467 381.5 c 0
 457 385.167 448.667 387 442 387 c 1
 442 433 l 1
 652 433 l 1
 652 387 l 1
 628 385.667 614.667 377.333 612 362 c 1
 612 260 l 1
 889 260 l 1xbd80
 906.333 280.667 920.333 299.667 931 317 c 0
 941.667 334.334 947 348.667 947 360 c 0
 947 376 935.667 385 913 387 c 1
 913 433 l 1
 1105 433 l 1
 1113 415 1125.5 394.667 1142.5 372 c 0
 1159.5 349.333 1178.67 325.333 1200 300 c 0
 1221.33 274.667 1243.33 248.667 1266 222 c 0
 1288.67 195.333 1309.33 169 1328 143 c 0
 1346.67 117 1362 92.333 1374 69 c 0
 1386 45.667 1392 24.333 1392 5 c 2
 1392 0 l 1
 1173 0 l 1
 1173 46 l 1
 1186.34 46 1195.68 48 1201 52 c 0
 1206.33 56 1209 61 1209 67 c 0
 1209 73.667 1206.83 80.833 1202.5 88.5 c 0
 1198.17 96.167 1193.17 103.667 1187.5 111 c 0
 1181.83 118.334 1176.5 124.667 1171.5 130 c 0
 1166.5 135.333 1163.33 138.667 1162 140 c 1
 1083 140 l 1
 1083 73 l 2
 1083 67.667 1084.5 63.167 1087.5 59.5 c 0
 1090.5 55.833 1094 53 1098 51 c 0
 1102 49 1106.33 47.667 1111 47 c 0
 1115.67 46.333 1119.67 46 1123 46 c 1
 1123 0 l 1
 913 0 l 1
 913 46 l 1
 927.667 46 938 49.5 944 56.5 c 0
 950 63.5 953 69 953 73 c 2
 953 140 l 1
 881 140 l 1
 867.666 124.667 857.333 111.167 850 99.5 c 0
 842.667 87.833 839 77.333 839 68 c 0xdd80
 839 61.333 841.5 56 846.5 52 c 0
 851.5 48 860.333 46 873 46 c 1
 873 0 l 1
 717 0 l 1
 716.333 1.33301 716 4 716 8 c 0xde80
 716 19.333 719.5 32.5 726.5 47.5 c 0
 733.5 62.5 742.833 78.333 754.5 95 c 0
 766.17 111.667 779.336 129 794 147 c 0
 808.667 165 823.667 182.667 839 200 c 1
 612 200 l 1
 612 70 l 1
 612.685 64 614.852 59.5 618.5 56.5 c 0
 622.176 53.5 626.343 51.167 631 49.5 c 0
 635.667 47.833 640 46.833 644 46.5 c 0
 648 46.167 650.667 46 652 46 c 1
 652 0 l 1
 442 0 l 1
 442 46 l 1
 449.333 46 457.833 47.833 467.5 51.5 c 0
 477.167 55.167 482 61.333 482 70 c 2
 482 121 l 1
 270 286 l 1
 270 69 l 1
 270.667 63 272.833 58.5 276.5 55.5 c 0
 280.167 52.5 284.333 50.333 289 49 c 0
 293.667 47.666 298 46.833 302 46.5 c 0
 306 46.167 308.667 46 310 46 c 1
 310 0 l 1
 101 0 l 1
 101 46 l 1
 108.333 46 116.833 47.833 126.5 51.5 c 0
 136.167 55.167 141.334 61 142 69 c 1
 142 361 l 2xbd80
1133 200 m 1xdc80
 1127.67 208 1087.33 258.333 1012 351 c 1
 1004.67 335 995.667 318.333 985 301 c 0
 974.333 283.667 963.667 267.833 953 253.5 c 0
 942.333 239.167 933.167 227 925.5 217 c 0
 917.833 207 913.333 201.333 912 200 c 1
 1133 200 l 1xdc80
EndSplineSet
Layer: 2
SplineSet
271 69 m 1,0,1
 274 46 274 46 311 46 c 1,2,-1
 311 0 l 1,3,-1
 102 0 l 1,4,-1
 102 46 l 1,5,6
 113 46 113 46 128 52 c 0,7,8
 142 57 142 57 143 69 c 2,9,-1
 143 361 l 2,10,11
 143 375 143 375 128 381 c 0,12,13
 112 387 112 387 102 387 c 1,14,-1
 102 433 l 1,15,-1
 311 433 l 1,16,-1
 311 387 l 1,17,18
 271 385 271 385 271 361 c 2,19,-1
 271 345 l 1,20,-1
 483 187 l 1,21,-1
 483 361 l 2,22,23
 483 376 483 376 468 381.5 c 128,-1,24
 453 387 453 387 443 387 c 1,25,-1
 443 433 l 1,26,-1
 653 433 l 1,27,-1
 653 387 l 1,28,29
 617 385 617 385 613 362 c 1,30,-1
 613 260 l 1,31,-1
 890 260 l 1,32,33
 948 329 948 329 948 360 c 0,34,35
 948 384 948 384 914 387 c 1,36,-1
 914 433 l 1,37,-1
 1106 433 l 1,38,39
 1125 390 1125 390 1201 300 c 0,40,41
 1219 278 1219 278 1267 222 c 0,42,43
 1301 182 1301 182 1329 143 c 0,44,45
 1393 54 1393 54 1393 5 c 2,46,-1
 1393 0 l 1,47,-1
 1174 0 l 1,48,-1
 1174 46 l 1,49,50
 1210 46 1210 46 1210 67 c 0,51,52
 1210 93 1210 93 1163 140 c 1,53,-1
 1084 140 l 1,54,-1
 1084 73 l 2,55,56
 1084 46 1084 46 1124 46 c 1,57,-1
 1124 0 l 1,58,-1
 914 0 l 1,59,-1
 914 46 l 1,60,61
 936 46 936 46 945 56.5 c 128,-1,62
 954 67 954 67 954 73 c 2,63,-1
 954 140 l 1,64,-1
 882 140 l 1,65,66
 840 92 840 92 840 69 c 128,-1,67
 840 46 840 46 874 46 c 1,68,-1
 874 0 l 1,69,-1
 718 0 l 1,70,71
 717 2 717 2 717 8 c 0,72,73
 717 61 717 61 840 200 c 1,74,-1
 613 200 l 1,75,-1
 613 70 l 1,76,77
 616 46 616 46 653 46 c 1,78,-1
 653 0 l 1,79,-1
 443 0 l 1,80,-1
 443 46 l 1,81,82
 454 46 454 46 468.5 51.5 c 128,-1,83
 483 57 483 57 483 70 c 2,84,-1
 483 121 l 1,85,-1
 271 286 l 1,86,-1
 271 69 l 1,0,1
1134 200 m 1,87,88
 1126 212 1126 212 1013 351 c 1,89,90
 991 304 991 304 965 268 c 0,91,92
 921 208 921 208 913 200 c 1,93,-1
 1134 200 l 1,87,88
EndSplineSet
Validated: 1
Ligature2: "'ccmp' Cyrillic Ligatures-1" uni043D uni200D uni0467
Colour: ffff00
EndChar

StartChar: uni04410432
Encoding: 59359 59359 42
Width: 861
GlyphClass: 3
Flags: HW
HStem: 0 117<203.155 304.715> 0 60<434 597.893> 377 56<434 534>
VStem: 97 67<156.513 280.045> 305 129<117.073 242 292 317.225> 598 166<32.5 115.901>
AnchorPoint: "Diacritic" 388 563 basechar 0
LayerCount: 3
Fore
SplineSet
578 60 m 2x7c
 597 60 598 72 598 88 c 0
 598 151 558 192 514 217 c 0
 494 229 467 237 434 242 c 1
 434 60 l 1
 578 60 l 2x7c
434 292 m 1
 454 292 478 307 494 317 c 0
 510 328 534 348 534 371 c 2
 534 377 l 1
 434 377 l 1
 434 292 l 1
764 45 m 0
 764 20 755 3 731 0 c 1
 392 0 l 2x7c
 337 0 304 0 262 0 c 0xbc
 224 0 206 13 182 32 c 0
 130 72 97 140 97 232 c 1
 97 305 121 358 158 392 c 0
 185 416 220 433 263 433 c 2
 653 433 l 2
 666 433 672 427 672 415 c 0
 672 404 666 390 652 375 c 0
 629 347 594 316 566 294 c 0
 554 284 547 279 547 278 c 0
 547 275 550 273 557 270 c 0
 582 262 603 249 629 232 c 0
 646 221 666 205 687 185 c 0
 714 160 733 135 745 110 c 0
 757 85 764 64 764 45 c 0
279 117 m 0xbc
 288 117 299 118 305 120 c 1
 305 312 l 1
 295 316 283 318 268 318 c 0
 247 318 227 312 206 299 c 0
 185 286 171 265 164 234 c 1
 164 226 l 2
 164 153 209 117 279 117 c 0xbc
EndSplineSet
Layer: 2
SplineSet
582 60 m 2,0,1
 595 60 595 60 598.5 66.5 c 128,-1,2
 602 73 602 73 602 88 c 0,3,4
 602 169 602 169 518 217 c 0,5,6
 489 234 489 234 438 242 c 1,7,-1
 438 60 l 1,8,-1
 582 60 l 2,0,1
438 292 m 1,9,10
 458 292 458 292 498 317 c 1,11,12
 538 344 538 344 538 371 c 2,13,-1
 538 377 l 1,14,-1
 438 377 l 1,15,-1
 438 292 l 1,9,10
768 45 m 0,16,17
 768 4 768 4 735 0 c 1,18,-1
 266 0 l 2,19,20
 226 0 226 0 186 32 c 1,21,22
 101 97 101 97 101 232 c 0,23,24
 101 336 101 336 162 392 c 0,25,26
 208 433 208 433 267 433 c 2,27,-1
 657 433 l 2,28,29
 676 433 676 433 676 414.5 c 128,-1,30
 676 396 676 396 656 375 c 1,31,32
 625 337 625 337 570 294 c 1,33,-1
 551 278 l 1,34,35
 551 274 551 274 569.5 267.5 c 128,-1,36
 588 261 588 261 624 238 c 128,-1,37
 660 215 660 215 695.5 181.5 c 128,-1,38
 731 148 731 148 749.5 109 c 128,-1,39
 768 70 768 70 768 45 c 0,16,17
283 117 m 0,40,41
 300 117 300 117 309 120 c 1,42,-1
 309 312 l 1,43,44
 294 318 294 318 267.5 318 c 128,-1,45
 241 318 241 318 209.5 298.5 c 128,-1,46
 178 279 178 279 168 234 c 1,47,-1
 168 226 l 2,48,49
 168 172 168 172 198.5 144.5 c 128,-1,50
 229 117 229 117 283 117 c 0,40,41
EndSplineSet
Validated: 1
Ligature2: "'ccmp' Cyrillic Ligatures-1" uni0441 uni200D uni0432
Colour: ffff00
EndChar

StartChar: uni04420440
Encoding: 59363 59363 43
Width: 896
GlyphClass: 3
Flags: W
HStem: -3 76<515.085 631.333> 477 133<174 223.678 686 726> 554 56<250.125 385 515 650.775>
VStem: 385 130<74.0635 375.873 484.449 554> 387 107<-211.697 15> 625 132<96.039 259.265>
AnchorPoint: "Diacritic" 451 800 basechar 0
LayerCount: 3
Fore
SplineSet
625 185 m 1x94
 624.333 209 620.5 232.667 613.5 256 c 0
 606.5 279.333 598.333 300.167 589 318.5 c 0
 579.662 336.834 569.829 351.667 559.5 363 c 0
 549.167 374.333 540.667 380 534 380 c 0
 530 380 526 378.667 522 376 c 0
 518 373.333 515.667 367.333 515 358 c 1
 515 91 l 2
 515 84.3332 518.667 79.6665 526 77 c 0
 533.333 74.3333 541 73 549 73 c 0
 555 73 562.333 73.8333 571 75.5 c 0
 579.667 77.1667 588 81.5 596 88.5 c 0
 604 95.5 610.833 105.833 616.5 119.5 c 0
 622.167 133.167 625 151.667 625 175 c 2
 625 185 l 1x94
686 477 m 1xd4
 682 486 682 486 676 499.5 c 0
 672 508.5 666.167 517 658.5 525 c 0
 650.833 533 641.333 539.833 630 545.5 c 0
 618.667 551.167 604 554 586 554 c 2
 515 554 l 1
 515 488 l 1xb4
 545.667 485.333 575.5 472.5 604.5 449.5 c 0
 633.5 426.5 659.333 398.333 682 365 c 0
 704.669 331.667 722.836 295.333 736.5 256 c 0
 750.167 216.667 757 179.333 757 144 c 0
 757 124 754.5 105.167 749.5 87.5 c 0
 744.5 69.8333 736.5 54.5 725.5 41.5 c 0
 714.5 28.5 700.167 18 682.5 10 c 0
 664.833 2 643.667 -2.33333 619 -3 c 0
 611 -3 601.833 -2.66667 591.5 -2 c 0
 581.166 -1.33333 570.333 -0.333334 559 1 c 0
 547.663 2.33333 536.329 4.16667 525 6.5 c 0
 513.667 8.83333 503.333 11.6667 494 15 c 1
 486 -386 l 1
 484 -396 480.667 -401 476 -401 c 0
 470.667 -401 463.833 -395.333 455.5 -384 c 0
 447.167 -372.667 438.833 -351.667 430.5 -321 c 0
 422.167 -290.333 414 -248.167 406 -194.5 c 0
 398 -140.833 391.667 -72 387 12 c 1xac
 385 92 l 1
 385 554 l 1
 313 554 l 2xb4
 306.332 554 298.666 553.333 290 552 c 0
 281.333 550.65 272.5 547.317 263.5 542 c 0
 254.5 536.663 245.667 528.829 237 518.5 c 0
 228.333 508.167 220.667 494.333 214 477 c 1
 174 477 l 1xd4
 99 564 l 1
 99 610 l 1
 797 610 l 1xb4
 797 564 l 1
 726 477 l 1
 686 477 l 1xd4
EndSplineSet
Validated: 1
Layer: 2
SplineSet
515 91 m 2,0,1
 515 73 515 73 549 73 c 0,2,3
 578 73 578 73 593 86 c 0,4,5
 625 113 625 113 625 175 c 2,6,-1
 625 185 l 1,7,8
 623 251 623 251 589 318 c 0,9,10
 575 346 575 346 559.5 363 c 128,-1,11
 544 380 544 380 534 380 c 0,12,13
 517 380 517 380 515 358 c 1,14,-1
 515 91 l 2,0,1
313 554 m 2,15,16
 244 554 244 554 214 477 c 1,17,-1
 174 477 l 1,18,-1
 99 564 l 1,19,-1
 99 610 l 1,20,-1
 797 610 l 1,21,-1
 797 564 l 1,22,-1
 726 477 l 1,23,-1
 686 477 l 1,24,-1
 676 500 l 2,25,26
 663 529 663 529 630 546 c 0,27,28
 613 554 613 554 586 554 c 2,29,-1
 515 554 l 1,30,-1
 515 488 l 1,31,32
 561 484 561 484 604.5 449.5 c 128,-1,33
 648 415 648 415 682 365 c 0,34,35
 714 318 714 318 736 256 c 0,36,37
 757 197 757 197 757 156 c 0,38,39
 757 112 757 112 750 88 c 0,40,41
 742 60 742 60 726 42 c 0,42,43
 688 -2 688 -2 617 -2 c 0,44,45
 614 -2 614 -2 610 -2 c 0,46,47
 604 -2 604 -2 598 -2 c 0,48,49
 593 -2 593 -2 588 -2 c 0,50,-1
 494 15 l 1,51,-1
 486 -386 l 1,52,53
 483 -401 483 -401 476 -401 c 128,-1,54
 469 -401 469 -401 456 -384 c 128,-1,55
 443 -367 443 -367 430 -321 c 0,56,57
 399 -205 399 -205 387 12 c 1,58,-1
 385 92 l 1,59,-1
 385 554 l 1,60,-1
 313 554 l 2,15,16
EndSplineSet
Validated: 1
Ligature2: "'ccmp' Cyrillic Ligatures-1" uni0442 uni200D uni0440
Ligature2: "'ccmp' Cyrillic Ligatures-1" uni1C84 uni200D uni0440
Colour: ffff00
EndChar

StartChar: uni04100423
Encoding: 58860 58860 44
Width: 1211
GlyphClass: 3
Flags: W
HStem: -30 125<171 268.217> 0 46<562 605.671> 413 20G<956 1095.68> 564 46<331 365.937>
VStem: 97 127<42.3334 152.578> 793.5 48.5<-428.768 -2.24609>
DStem2: 519 610 421 476 0.44981 -0.893124<75.5973 286.68 353.749 379.685 404.953 515.45> 514 286 541 225 0.677883 0.735169<-241.069 -26.5425>
AnchorPoint: "Diacritic" 772 671 basechar 0
LayerCount: 3
Fore
SplineSet
850 -428 m 1xbc
 850 -430 l 2
 850 -436 846 -439 838 -439 c 0
 833.333 -439 828.5 -437.833 823.5 -435.5 c 0
 818.5 -433.17 815 -429.337 813 -424 c 0
 809.667 -416 806.667 -404.167 804 -388.5 c 0
 801.333 -372.833 799.167 -354.5 797.5 -333.5 c 0
 795.833 -312.5 794.5 -289.333 793.5 -264 c 0
 792.5 -238.667 792 -212.333 792 -185 c 0
 792 -155 792.5 -124.167 793.5 -92.5 c 0
 794.5 -60.8333 796.333 -30 799 0 c 1
 562 0 l 1
 562 46 l 1x7c
 592 46 607 56.3333 607 77 c 0
 607 81 606.5 85.8333 605.5 91.5 c 0
 604.5 97.1667 602.333 103 599 109 c 0
 591 125.667 584.167 139.5 578.5 150.5 c 0
 572.833 161.5 567.833 171 563.5 179 c 0
 559.158 187 555.325 194.5 552 201.5 c 0
 548.667 208.5 545 216.333 541 225 c 1
 517 195.667 489.833 165.833 459.5 135.5 c 0
 429.167 105.167 398.167 77.8333 366.5 53.5 c 0
 334.833 29.1667 303.333 9.16667 272 -6.5 c 0
 240.667 -22.1667 212 -30 186 -30 c 0
 156 -30 133.667 -22.1667 119 -6.5 c 0
 104.333 9.16667 97 29.6667 97 55 c 0
 97 79.6667 101.5 105 110.5 131 c 0
 119.5 157 132.833 185 150.5 215 c 0
 168.167 245 190.334 277.667 217 313 c 0
 243.667 348.333 274.667 388 310 432 c 1
 348 478 367 512 367 534 c 0
 367 552 355 562 331 564 c 1
 331 610 l 1
 519 610 l 1
 796 60 l 1
 809 60 l 1
 814.333 100.667 821.833 140.833 831.5 180.5 c 0
 841.173 220.167 851.84 256.667 863.5 290 c 0
 875.167 323.333 887.167 352 899.5 376 c 0
 911.833 400 923.667 416.667 935 426 c 0
 939.667 430.667 949 433 963 433 c 2
 1090 433 l 2
 1101.35 433 1108.18 430.333 1110.5 425 c 0
 1112.83 419.667 1114 414.333 1114 409 c 0
 1114 399.667 1111.67 388.333 1107 375 c 0
 1102.33 361.667 1096.5 348 1089.5 334 c 0
 1082.5 320 1074.5 306.167 1065.5 292.5 c 0
 1056.5 278.833 1047.67 266.666 1039 256 c 1
 999 256 l 1
 997 265.334 994.5 273.668 991.5 281 c 0
 988.5 288.333 984.333 292 979 292 c 0
 972.333 292 965 286 957 274 c 0
 933 238 913.667 196.833 899 150.5 c 0
 884.333 104.167 872.667 56.3333 864 7 c 0
 855.333 -42.3333 849.5 -91.3333 846.5 -140 c 0
 843.5 -188.667 842 -233 842 -273 c 256
 842 -313 843 -347 845 -375 c 0
 847 -403 848.667 -420.667 850 -428 c 1xbc
514 286 m 1
 515 287 l 1
 421 476 l 1
 352.333 381.333 302.333 306 271 250 c 0
 239.667 194 224 153.333 224 128 c 0
 224 106 234 95 254 95 c 0xbc
 270 95 288.167 99.8333 308.5 109.5 c 0
 328.833 119.167 350.5 132.5 373.5 149.5 c 0
 396.5 166.5 420 186.667 444 210 c 0
 468 233.333 491.333 258.667 514 286 c 1
EndSplineSet
Validated: 1
Layer: 2
SplineSet
842 -273 m 256,0,1
 842 -384 842 -384 850 -428 c 1,2,-1
 850 -430 l 2,3,4
 850 -439 850 -439 840 -439 c 0,5,6
 819 -439 819 -439 813.5 -425.5 c 128,-1,7
 808 -412 808 -412 804 -388 c 0,8,9
 801 -373 801 -373 798 -334 c 0,10,11
 792 -256 792 -256 792 -171 c 0,12,13
 792 -79 792 -79 799 0 c 1,14,-1
 562 0 l 1,15,-1
 562 46 l 1,16,17
 607 46 607 46 607 77 c 0,18,19
 607 95 607 95 597 115 c 0,20,21
 587 134 587 134 578.5 150.5 c 128,-1,22
 570 167 570 167 564 179 c 0,23,24
 555 195 555 195 541 225 c 1,25,26
 458 123 458 123 366 54 c 0,27,28
 255 -30 255 -30 191 -30 c 0,29,30
 191 -30 191 -30 190 -30 c 0,31,32
 188 -30 188 -30 186 -30 c 1,33,34
 142 -30 142 -30 119 -6 c 0,35,36
 97 17 97 17 97 54 c 0,37,38
 97 92 97 92 110.5 131 c 128,-1,39
 124 170 124 170 150 215 c 0,40,41
 191 284 191 284 310 432 c 1,42,43
 367 501 367 501 367 534 c 0,44,45
 367 561 367 561 331 564 c 1,46,-1
 331 610 l 1,47,-1
 519 610 l 1,48,-1
 796 60 l 1,49,-1
 809 60 l 1,50,51
 825 179 825 179 864 290 c 0,52,53
 901 398 901 398 935 426 c 0,54,55
 944 433 944 433 963 433 c 2,56,-1
 1090 433 l 2,57,58
 1107 433 1107 433 1110 425 c 0,59,60
 1114 417 1114 417 1114 406 c 128,-1,61
 1114 395 1114 395 1107 375 c 0,62,63
 1098 350 1098 350 1090 334 c 0,64,65
 1069 293 1069 293 1039 256 c 1,66,-1
 999 256 l 1,67,68
 988 288 988 288 980 292 c 1,69,70
 969 292 969 292 957 274 c 0,71,72
 894 179 894 179 864 7 c 0,73,74
 842 -118 842 -118 842 -273 c 256,0,1
421 476 m 1,75,76
 224 204 224 204 224 128 c 0,77,78
 224 95 224 95 254 95 c 0,79,80
 300 95 300 95 374 150 c 0,81,82
 444 202 444 202 514 286 c 1,83,-1
 515 287 l 1,84,-1
 421 476 l 1,75,76
EndSplineSet
Validated: 1
Ligature2: "'ccmp' Cyrillic Ligatures-1" uni0410 uni200D uni0423
Ligature2: "'ccmp' Cyrillic Ligatures-1" uni0410 uni200D uni0443
Colour: ffff00
EndChar

StartChar: uni04300443
Encoding: 58875 58875 45
Width: 1025
GlyphClass: 3
Flags: HW
HStem: -16 117<121.229 255> 0 46<405 442.769> 390 43<249 281.927>
VStem: 93 120<14.9766 134.333> 611.5 48.5<-428.768 -2.24609>
DStem2: 135 154 245 208 0.573774 0.819014<20.9862 246.548> 419 433 326 322 0.461428 -0.887178<55.564 202.523 247.806 332.149>
AnchorPoint: "Diacritic" 527 563 basechar 0
LayerCount: 3
Fore
SplineSet
668 -428 m 1xb8
 668 -430 l 2
 668 -436 664 -439 656 -439 c 0
 651.333 -439 646.5 -437.833 641.5 -435.5 c 0
 636.5 -433.17 633 -429.337 631 -424 c 0
 627.667 -416 624.667 -404.167 622 -388.5 c 0
 619.333 -372.833 617.167 -354.5 615.5 -333.5 c 0
 613.833 -312.5 612.5 -289.333 611.5 -264 c 0
 610.5 -238.667 610 -212.333 610 -185 c 0
 610 -155 610.5 -124.167 611.5 -92.5 c 0
 612.5 -60.833 614.333 -30 617 0 c 1
 405 0 l 1
 405 46 l 1x78
 430.333 47.333 443 55.667 443 71 c 0
 443 73 442.833 75 442.5 77 c 0
 442.167 79 441.667 81.333 441 84 c 2
 410 149 l 1
 392.667 131 372.333 112.167 349 92.5 c 0
 325.667 72.833 301.667 55 277 39 c 0
 252.333 23 228.333 9.83301 205 -0.5 c 0
 181.667 -10.833 161 -16 143 -16 c 0
 109.667 -16 93 1.33301 93 36 c 0
 93 54.667 96.667 73.667 104 93 c 0
 111.333 112.333 121.667 132.667 135 154 c 0
 148.333 175.333 164.667 198.333 184 223 c 0
 203.333 247.667 224.667 274.667 248 304 c 0
 270.667 332.667 282 353.667 282 367 c 256
 282 380.333 271 388 249 390 c 1
 249 433 l 1
 419 433 l 1
 613 60 l 1
 627 60 l 1
 632.333 100.667 639.833 140.833 649.5 180.5 c 0
 659.172 220.167 669.838 256.667 681.5 290 c 0
 693.167 323.333 705.167 352 717.5 376 c 0
 729.833 400 741.667 416.667 753 426 c 0
 757.667 430.667 767 433 781 433 c 2
 908 433 l 2
 919.333 433 926.167 430.333 928.5 425 c 0
 930.833 419.667 932 414.333 932 409 c 0
 932 399.667 929.667 388.333 925 375 c 0
 920.333 361.667 914.5 348 907.5 334 c 0
 900.5 320 892.5 306.167 883.5 292.5 c 0
 874.5 278.833 865.667 266.666 857 256 c 1
 817 256 l 1
 815 265.334 812.5 273.668 809.5 281 c 0
 806.5 288.333 802.333 292 797 292 c 0
 790.333 292 783 286 775 274 c 0
 751 238 731.667 196.833 717 150.5 c 0
 702.333 104.167 690.667 56.333 682 7 c 0
 673.333 -42.333 667.5 -91.333 664.5 -140 c 0
 661.5 -188.667 660 -233 660 -273 c 256
 660 -313 661 -347 663 -375 c 0
 665 -403 666.667 -420.667 668 -428 c 1xb8
390 196 m 1
 326 322 l 1
 293.333 281.333 266.333 243.333 245 208 c 0
 223.667 172.667 213 144.667 213 124 c 0
 213 108.667 221 101 237 101 c 0xb8
 273 101 324 132.667 390 196 c 1
EndSplineSet
Layer: 2
SplineSet
665 -273 m 256,0,1
 665 -384 665 -384 673 -428 c 1,2,-1
 673 -430 l 2,3,4
 673 -439 673 -439 664 -439 c 0,5,6
 642 -439 642 -439 636.5 -425.5 c 128,-1,7
 631 -412 631 -412 627 -388 c 0,8,9
 622 -357 622 -357 620 -334 c 0,10,11
 615 -276 615 -276 615 -171 c 0,12,13
 615 -79 615 -79 622 0 c 1,14,-1
 410 0 l 1,15,-1
 410 46 l 1,16,17
 448 48 448 48 448 71 c 0,18,19
 448 76 448 76 446 84 c 1,20,-1
 415 149 l 1,21,22
 316 47 316 47 210 -0 c 0,23,24
 175 -16 175 -16 148 -16 c 0,25,26
 98 -16 98 -16 98 36 c 0,27,28
 98 109 98 109 189 223 c 0,29,30
 221 263 221 263 252 304 c 0,31,32
 287 348 287 348 287 367 c 256,33,34
 287 387 287 387 254 390 c 1,35,-1
 254 433 l 1,36,-1
 424 433 l 1,37,-1
 618 60 l 1,38,-1
 632 60 l 1,39,40
 648 179 648 179 686 290 c 0,41,42
 724 398 724 398 758 426 c 0,43,44
 766 433 766 433 786 433 c 2,45,-1
 913 433 l 2,46,47
 930 433 930 433 933.5 425 c 128,-1,48
 937 417 937 417 937 406 c 128,-1,49
 937 395 937 395 930 375 c 128,-1,50
 923 355 923 355 912 334 c 0,51,52
 892 293 892 293 862 256 c 1,53,-1
 822 256 l 1,54,55
 811 288 811 288 803 292 c 1,56,57
 792 292 792 292 780 274 c 0,58,59
 717 179 717 179 687 7 c 0,60,61
 665 -118 665 -118 665 -273 c 256,0,1
331 322 m 1,62,63
 218 181 218 181 218 124 c 0,64,65
 218 101 218 101 242 101 c 0,66,67
 296 101 296 101 395 196 c 1,68,-1
 331 322 l 1,62,63
EndSplineSet
Validated: 1
Ligature2: "'ccmp' Cyrillic Ligatures-1" uni0430 uni200D uni0443
Colour: ffff00
EndChar

StartChar: uni04300442
Encoding: 58874 58874 46
Width: 896
GlyphClass: 3
Flags: HW
HStem: -16 117<142.229 273.667> 0 46<336 365.593 528.468 556> 390 43<306 333.993> 477 133<170 210 672.322 722> 554 56<245.225 381 511 645.875>
VStem: 114 120<15.3384 128.667> 381 130<56.2856 102 150.481 320 433 554>
AnchorPoint: "Diacritic" 447 757 basechar 0
LayerCount: 3
Fore
SplineSet
170 477 m 1x36
 99 564 l 1
 99 610 l 1
 797 610 l 1x2e
 797 564 l 1
 722 477 l 1
 682 477 l 1x36
 675.333 494.334 667.667 508.168 659 518.5 c 0
 650.333 528.833 641.5 536.667 632.5 542 c 0
 623.5 547.333 614.667 550.667 606 552 c 0
 597.333 553.333 589.667 554 583 554 c 2
 511 554 l 1
 511 92 l 1
 512.333 74 518 62 528 56 c 0
 538 50 547.333 46.667 556 46 c 1
 556 0 l 1
 336 0 l 1
 336 46 l 1x6e
 347.333 46.667 357.333 49.833 366 55.5 c 0
 374.667 61.167 379.667 73 381 91 c 1
 381 102 l 1
 363.667 86.667 345.167 72 325.5 58 c 0
 305.833 44 286.5 31.5 267.5 20.5 c 0
 248.5 9.5 230 0.666992 212 -6 c 0
 194 -12.667 178 -16 164 -16 c 0
 130.667 -16 114 1.33301 114 36 c 0
 114 54.667 117.5 73.667 124.5 93 c 0
 131.5 112.333 142 132.667 156 154 c 0
 170 175.333 187.833 198.333 209.5 223 c 0
 231.167 247.667 257 274.667 287 304 c 0
 318.333 335.334 334 357.667 334 371 c 0
 334 383 324.667 389.333 306 390 c 1
 306 433 l 1
 381 433 l 1
 381 554 l 1
 310 554 l 2xae
 292 554 277.333 551.167 266 545.5 c 0
 254.667 539.833 245.167 533 237.5 525 c 0
 229.833 517 224 508.5 220 499.5 c 0
 214 486 214 486 210 477 c 1
 170 477 l 1x36
243 161 m 0
 237 145.666 234 133.333 234 124 c 0
 234 108.667 242 101 258 101 c 0xa6
 289.333 101 330.333 123.333 381 168 c 1
 381 320 l 1
 307 258 261 205 243 161 c 0
EndSplineSet
Layer: 2
SplineSet
683 477 m 1,0,1
 653 554 653 554 584 554 c 2,2,-1
 512 554 l 1,3,-1
 512 92 l 1,4,5
 514 65 514 65 529 56 c 128,-1,6
 544 47 544 47 557 46 c 1,7,-1
 557 0 l 1,8,-1
 337 0 l 1,9,-1
 337 46 l 1,10,11
 354 47 354 47 367 55.5 c 128,-1,12
 380 64 380 64 382 91 c 1,13,-1
 382 102 l 1,14,15
 294 24 294 24 213 -6 c 0,16,17
 186 -16 186 -16 165 -16 c 0,18,19
 115 -16 115 -16 115 36 c 0,20,21
 115 116 115 116 210 223 c 0,22,23
 243 260 243 260 289 306 c 0,24,25
 335 351 335 351 335 370 c 128,-1,26
 335 389 335 389 307 390 c 1,27,-1
 307 433 l 1,28,-1
 382 433 l 1,29,-1
 382 554 l 1,30,-1
 311 554 l 2,31,32
 265 554 265 554 238 525 c 0,33,34
 227 513 227 513 221 500 c 2,35,-1
 211 477 l 1,36,-1
 171 477 l 1,37,-1
 100 564 l 1,38,-1
 100 610 l 1,39,-1
 798 610 l 1,40,-1
 798 564 l 1,41,-1
 723 477 l 1,42,-1
 683 477 l 1,0,1
382 320 m 1,43,44
 235 197 235 197 235 124 c 0,45,46
 235 101 235 101 259 101 c 0,47,48
 306 101 306 101 382 168 c 1,49,-1
 382 320 l 1,43,44
EndSplineSet
Validated: 1
Ligature2: "'ccmp' Cyrillic Ligatures-1" uni0430 uni200D uni0442
Colour: ffff00
EndChar

StartChar: uni04180415
Encoding: 59075 59075 47
Width: 1385
GlyphClass: 3
Flags: HW
HStem: -10 164<1095.89 1205.87> 0 46<100 143.157 287.268 330 536 580.152 727.268 770> 251 122<1110.37 1254.71> 290 82<1061.36 1120.01> 311 66<285 582 725 965> 488 160<1091.86 1218.43> 564 46<100 141.497 289.219 330 537 578.132 727.826 770>
VStem: 145 140<50.5879 311 377 557.839> 582 143<50.5879 311 377 559.351> 967 91<193.799 289.999 376.219 451.14> 1009 237<52.4375 126.916>
AnchorPoint: "Diacritic" 660 774 basechar 0
LayerCount: 3
Fore
SplineSet
1227 373 m 0x21c0
 1262 373 1285 363 1285 328 c 0
 1285 323 1285 319 1284 316 c 0
 1266 276 1242 251 1195 251 c 0x21c0
 1152 251 1115 271 1085 284 c 0
 1077 288 1070 290 1066 290 c 0
 1064 290 1062 289 1061 288 c 1
 1061 214 1080 166 1137 154 c 0
 1164 147 1191 144 1215 133 c 0
 1229 126 1246 109 1246 85 c 0
 1246 64 1234 42 1223 28 c 0
 1205 6 1177 -10 1138 -10 c 0x91a0
 1072 -10 1033 39 1009 89 c 0
 982 147 965 227 965 311 c 1
 725 311 l 1
 725 78 l 1
 725 57 748 46 770 46 c 1
 770 0 l 1
 536 0 l 1
 536 46 l 1
 560 46 582 55 582 78 c 1
 582 311 l 1
 285 311 l 1
 285 78 l 1
 285 57 308 46 330 46 c 1
 330 0 l 1
 100 0 l 1
 100 46 l 1
 123 46 145 55 145 78 c 1
 145 529 l 1
 141 554 129 564 100 564 c 1
 100 610 l 1
 330 610 l 1
 330 564 l 1
 310 564 285 549 285 528 c 2
 285 377 l 1
 582 377 l 1
 582 528 l 1
 578 553 566 563 537 563 c 1
 537 610 l 1
 770 610 l 1
 770 564 l 1x4ba0
 746 564 725 552 725 528 c 2
 725 376 l 1
 967 376 l 1
 974 461 1000 531 1039 581 c 0
 1066 615 1106 648 1158 648 c 0
 1202 648 1232 621 1245 590 c 0
 1251 578 1253 566 1253 553 c 0
 1253 498 1221 487 1171 487 c 0
 1168 487 1165 487 1162 488 c 0
 1161 488 1159 488 1158 488 c 0
 1092 488 1064 450 1058 382 c 1
 1058 381 l 2
 1058 373 1078 372 1093 372 c 0
 1097 372 1100 372 1103 372 c 256x15c0
 1131 372 1167 373 1195 373 c 0
 1211 373 1211 373 1227 373 c 0x21c0
EndSplineSet
Layer: 2
SplineSet
1104 372 m 257,0,-1
 1196 373 l 1,1,-1
 1228 373 l 2,2,3
 1286 373 1286 373 1286 328 c 0,4,5
 1286 319 1286 319 1285 316 c 0,6,7
 1256 251 1256 251 1196 251 c 0,8,9
 1152 251 1152 251 1086 284 c 0,10,11
 1074 290 1074 290 1069 290 c 128,-1,12
 1064 290 1064 290 1062 288 c 1,13,14
 1062 173 1062 173 1138 154 c 0,15,16
 1146 152 1146 152 1163 148 c 0,17,18
 1199 141 1199 141 1216 133 c 0,19,20
 1247 119 1247 119 1247 88 c 128,-1,21
 1247 57 1247 57 1220 23.5 c 128,-1,22
 1193 -10 1193 -10 1139 -10 c 0,23,24
 1058 -10 1058 -10 1010 89 c 1,25,26
 966 184 966 184 966 311 c 1,27,-1
 726 311 l 1,28,-1
 726 78 l 2,29,30
 726 63 726 63 739.5 54.5 c 128,-1,31
 753 46 753 46 771 46 c 1,32,-1
 771 0 l 1,33,-1
 537 0 l 1,34,-1
 537 46 l 1,35,36
 583 46 583 46 583 78 c 2,37,-1
 583 311 l 1,38,-1
 286 311 l 1,39,-1
 286 78 l 2,40,41
 286 63 286 63 299.5 54.5 c 128,-1,42
 313 46 313 46 331 46 c 1,43,-1
 331 0 l 1,44,-1
 101 0 l 1,45,-1
 101 46 l 1,46,47
 146 46 146 46 146 78 c 2,48,-1
 146 529 l 1,49,50
 143 548 143 548 133 556 c 128,-1,51
 123 564 123 564 101 564 c 1,52,-1
 101 610 l 1,53,-1
 331 610 l 1,54,-1
 331 564 l 1,55,56
 315 564 315 564 300.5 553.5 c 128,-1,57
 286 543 286 543 286 528 c 2,58,-1
 286 377 l 1,59,-1
 583 377 l 1,60,-1
 583 528 l 1,61,62
 580 547 580 547 570 555 c 128,-1,63
 560 563 560 563 538 563 c 1,64,-1
 538 610 l 1,65,-1
 771 610 l 1,66,-1
 771 564 l 1,67,68
 752 564 752 564 739 554.5 c 128,-1,69
 726 545 726 545 726 528 c 2,70,-1
 726 376 l 1,71,-1
 968 376 l 1,72,73
 978 502 978 502 1040 581 c 0,74,75
 1093 648 1093 648 1159 648 c 0,76,77
 1190 648 1190 648 1212 632 c 0,78,79
 1254 601 1254 601 1254 557.5 c 128,-1,80
 1254 514 1254 514 1233.5 500.5 c 128,-1,81
 1213 487 1213 487 1172 487 c 0,82,83
 1166 487 1166 487 1163 488 c 1,84,-1
 1159 488 l 2,85,86
 1068 488 1068 488 1059 382 c 1,87,-1
 1059 381 l 2,88,89
 1059 372 1059 372 1094 372 c 2,90,-1
 1104 372 l 257,0,-1
EndSplineSet
Validated: 1
Ligature2: "'ccmp' Cyrillic Ligatures-1" uni0418 uni200D uni0415
Colour: ffff00
EndChar

StartChar: uni041B0413
Encoding: 59136 59136 48
Width: 952
GlyphClass: 3
Flags: HW
HStem: 0 46<236.8 269 522 556.169> 544 66<500 666.805> 564 46<286 318.2>
VStem: 96 173<0 51.9375> 96 131<62.4398 146.806> 567 198<21.3334 120.447>
AnchorPoint: "Diacritic" 458 801 basechar 0
LayerCount: 3
Fore
SplineSet
97 0 m 1xd4
 96.333 4 96 8.16699 96 12.5 c 0
 96 19 96 19 96 25 c 0
 96 61 101.667 96.667 113 132 c 0
 124.333 167.333 138.667 201.333 156 234 c 0
 173.333 266.667 192 297.833 212 327.5 c 0
 232 357.167 250.667 384.667 268 410 c 0
 285.334 435.333 299.667 458.167 311 478.5 c 0
 322.333 498.833 328 515.667 328 529 c 0
 328 538.333 324.833 546 318.5 552 c 0
 312.167 558 301.333 562 286 564 c 1
 286 610 l 1
 856 610 l 1
 856 564 l 1xb4
 763 467 l 1
 712 467 l 1
 700 487 688.833 502 678.5 512 c 0
 668.167 522 657.667 529.333 647 534 c 0
 636.333 538.671 625.333 541.337 614 542 c 0
 602.664 542.683 590.331 543.35 577 544 c 1
 500 544 l 1
 528.667 497.333 558.5 449.666 589.5 401 c 0
 620.5 352.333 649 305 675 259 c 0
 701 213 722.5 169.833 739.5 129.5 c 0
 756.5 89.167 765 54.667 765 26 c 0
 765 16.667 764 8 762 0 c 1
 522 0 l 1
 522 46 l 1
 538 47.333 549.5 52.833 556.5 62.5 c 0
 563.5 72.167 567 84.667 567 100 c 0
 567 122 561.167 148.333 549.5 179 c 0
 537.833 209.667 523 241.833 505 275.5 c 0
 487 309.167 467.167 342.667 445.5 376 c 0
 423.833 409.334 403 439.667 383 467 c 1
 371.667 448.333 357.167 423.166 339.5 391.5 c 0
 321.833 359.833 304.666 326.5 288 291.5 c 0
 271.333 256.5 257 221.833 245 187.5 c 0
 233 153.167 227 124 227 100 c 0xcc
 227 84 230.167 71.333 236.5 62 c 0
 242.833 52.667 253.667 47.333 269 46 c 1
 269 0 l 1
 97 0 l 1xd4
EndSplineSet
Layer: 2
SplineSet
229 100 m 0,0,1
 229 50 229 50 271 46 c 1,2,-1
 271 0 l 1,3,-1
 99 0 l 1,4,5
 98 6 98 6 98 12 c 2,6,-1
 98 25 l 2,7,8
 98 155 98 155 214 328 c 0,9,10
 240 366 240 366 270 410 c 0,11,12
 330 498 330 498 330 528 c 0,13,14
 330 559 330 559 288 564 c 1,15,-1
 288 610 l 1,16,-1
 858 610 l 1,17,-1
 858 564 l 1,18,-1
 765 467 l 1,19,-1
 714 467 l 1,20,21
 671 539 671 539 616 542 c 0,22,23
 582 544 582 544 579 544 c 2,24,-1
 502 544 l 1,25,26
 545 474 545 474 591.5 401 c 128,-1,27
 638 328 638 328 677 259 c 0,28,29
 767 100 767 100 767 26 c 0,30,31
 767 12 767 12 764 0 c 1,32,-1
 524 0 l 1,33,-1
 524 46 l 1,34,35
 569 50 569 50 569 100 c 0,36,37
 569 160 569 160 507 276 c 0,38,39
 458 367 458 367 385 467 c 1,40,41
 290 311 290 311 247 188 c 0,42,43
 229 136 229 136 229 100 c 0,0,1
EndSplineSet
Validated: 1
Ligature2: "'ccmp' Cyrillic Ligatures-1" uni041B uni200D uni0413
Ligature2: "'ccmp' Cyrillic Ligatures-1" uni041B uni200D uni0433
Colour: ffff00
EndChar

StartChar: uni043B0433
Encoding: 59146 59146 49
Width: 815
GlyphClass: 3
Flags: HW
HStem: 0 46<224.753 251.5 405.5 434.217> 377 56<432.5 568.557> 387 46<242.5 275.492>
VStem: 100.5 151<0 46> 100.5 116<21 119.185> 443.5 178<15.3334 97.6826>
DStem2: 432.5 377 321.5 332 0.53287 -0.846197<0 239.723>
AnchorPoint: "Diacritic" 389.5 563 basechar 0
LayerCount: 3
Fore
SplineSet
242.5 433 m 1xb4
 714.5 433 l 1
 714.5 387 l 1xb4
 641.5 307 l 1
 601.5 307 l 1
 592.167 325.667 583 339.833 574 349.5 c 0
 565 359.167 556.333 365.833 548 369.5 c 0
 539.667 373.167 532 375.167 525 375.5 c 0
 518 375.833 511.5 376.333 505.5 377 c 1
 432.5 377 l 1
 452.5 344.333 473.667 311 496 277 c 0
 518.333 243 538.833 210.167 557.5 178.5 c 0
 576.167 146.833 591.5 117.167 603.5 89.5 c 0
 615.5 61.833 621.5 38 621.5 18 c 0
 621.5 12.667 620.833 6.66699 619.5 0 c 1
 404.5 0 l 1
 405.5 46 l 1
 418.833 46.667 428.5 50.5 434.5 57.5 c 0
 440.5 64.5 443.5 74 443.5 86 c 0
 443.5 101.333 439.333 119.5 431 140.5 c 0
 422.667 161.5 412.5 183.333 400.5 206 c 0
 388.5 228.667 375.333 251 361 273 c 0
 346.667 295 333.5 314.667 321.5 332 c 1
 314.832 320.667 305.665 304.5 294 283.5 c 0
 282.333 262.5 270.666 240 259 216 c 0
 247.333 192 237.333 168.167 229 144.5 c 0
 220.667 120.833 216.5 100.667 216.5 84 c 0xcc
 216.5 72.667 219.167 63.5 224.5 56.5 c 0
 229.833 49.5 238.833 46 251.5 46 c 1
 251.5 0 l 1
 102.5 0 l 1
 101.833 4 101.333 7.83301 101 11.5 c 0
 100.667 15.167 100.5 19 100.5 23 c 0
 100.5 47.667 104.833 72.167 113.5 96.5 c 0
 122.167 120.833 133 144.167 146 166.5 c 0
 159 188.833 173 210 188 230 c 0
 203 250 217 268.5 230 285.5 c 0
 243 302.5 253.833 317.667 262.5 331 c 0
 271.167 344.335 275.5 355.668 275.5 365 c 0
 275.5 377.667 264.5 385 242.5 387 c 1
 242.5 433 l 1xb4
EndSplineSet
Layer: 2
SplineSet
103 56 m 1,0,-1
 103 60 l 2,1,2
 103 115 103 115 190 230 c 0,3,4
 253 313 253 313 265 331 c 0,5,6
 278 350 278 350 278 365 c 0,7,8
 278 384 278 384 245 387 c 1,9,-1
 245 433 l 1,10,-1
 717 433 l 1,11,-1
 717 387 l 1,12,-1
 644 307 l 1,13,-1
 604 307 l 1,14,15
 571 373 571 373 528 376 c 0,16,17
 515 376 515 376 508 377 c 1,18,-1
 435 377 l 1,19,20
 465 328 465 328 498 277 c 0,21,22
 624 86 624 86 624 18 c 0,23,24
 624 10 624 10 622 0 c 1,25,-1
 407 0 l 1,26,-1
 408 46 l 1,27,28
 446 48 446 48 446 86 c 0,29,30
 446 156 446 156 324 332 c 1,31,32
 219 154 219 154 219 84 c 0,33,34
 219 46 219 46 254 46 c 1,35,-1
 254 0 l 1,36,-1
 105 0 l 1,37,38
 103 12 103 12 103 26 c 2,39,-1
 103 56 l 1,0,-1
EndSplineSet
Validated: 1
LCarets2: 2 0 0 
Ligature2: "'ccmp' Cyrillic Ligatures-1" uni043B uni200D uni0433
Colour: ffff00
EndChar

StartChar: uni041D0418
Encoding: 59202 59202 50
Width: 1302
GlyphClass: 3
Flags: HW
HStem: 0 46<99.5 142.391 286.536 329.5 536.5 579.394 723.536 767.5 972.5 1015.39 1159.65 1202.5> 311 66<721.5 1017.5> 564 46<99.5 141.533 296.877 329.5 536.5 578.533 734.816 767.5 972.5 1014.09 1170.3 1202.5>
VStem: 144.5 140<50.5932 408 483 553.717> 581.5 140<50.5932 163 262 311 377 554.232> 1017.5 140<50.5932 311 377 554.203>
AnchorPoint: "Diacritic" 648.5 799 basechar 0
LayerCount: 3
Fore
SplineSet
144.5 528 m 2
 144.5 540 139.333 549 129 555 c 0
 118.667 561 108.833 564 99.5 564 c 1
 99.5 610 l 1
 329.5 610 l 1
 329.5 564 l 1
 315.5 563.333 304.5 560 296.5 554 c 0
 288.5 548 284.5 539.333 284.5 528 c 2
 284.5 483 l 1
 581.5 262 l 1
 581.5 528 l 2
 581.5 540 576.333 549 566 555 c 0
 555.665 561 545.831 564 536.5 564 c 1
 536.5 610 l 1
 767.5 610 l 1
 767.5 564 l 1
 752.167 563.333 741.167 560.167 734.5 554.5 c 0
 727.833 548.833 723.5 540 721.5 528 c 1
 721.5 377 l 1
 1017.5 377 l 1
 1017.5 528 l 2
 1017.5 539.333 1012.33 548.167 1002 554.5 c 0
 991.659 560.833 981.826 564 972.5 564 c 1
 972.5 610 l 1
 1202.5 610 l 1
 1202.5 564 l 1
 1187.17 563.333 1176.33 560.333 1170 555 c 0
 1163.67 549.667 1159.5 541 1157.5 529 c 1
 1157.5 78 l 1
 1158.17 70 1160.67 63.833 1165 59.5 c 0
 1169.33 55.167 1174 52 1179 50 c 0
 1184 48 1188.83 46.833 1193.5 46.5 c 0
 1198.17 46.167 1201.17 46 1202.5 46 c 1
 1202.5 0 l 1
 972.5 0 l 1
 972.5 46 l 1
 982.5 46 992.333 48.5 1002 53.5 c 0
 1011.67 58.5 1016.84 66.667 1017.5 78 c 1
 1017.5 311 l 1
 721.5 311 l 1
 721.5 78 l 1
 722.167 70 724.5 63.833 728.5 59.5 c 0
 732.5 55.167 737 52 742 50 c 0
 747 48 752 46.833 757 46.5 c 0
 762 46.167 765.5 46 767.5 46 c 1
 767.5 0 l 1
 536.5 0 l 1
 536.5 46 l 1
 546.5 46 556.333 48.5 566 53.5 c 0
 575.671 58.5 580.838 66.667 581.5 78 c 1
 581.5 163 l 1
 284.5 408 l 1
 284.5 78 l 1
 285.167 70 287.5 63.833 291.5 59.5 c 0
 295.5 55.167 300 52 305 50 c 0
 310 48 314.833 46.833 319.5 46.5 c 0
 324.167 46.167 327.5 46 329.5 46 c 1
 329.5 0 l 1
 99.5 0 l 1
 99.5 46 l 1
 109.5 46 119.333 48.5 129 53.5 c 0
 138.667 58.5 143.834 66.667 144.5 78 c 1
 144.5 528 l 2
EndSplineSet
Layer: 2
SplineSet
286 78 m 1,0,1
 289 46 289 46 331 46 c 1,2,-1
 331 0 l 1,3,-1
 101 0 l 1,4,-1
 101 46 l 1,5,6
 116 46 116 46 130 54 c 0,7,8
 145 61 145 61 146 78 c 2,9,-1
 146 528 l 2,10,11
 146 546 146 546 130.5 555 c 128,-1,12
 115 564 115 564 101 564 c 1,13,-1
 101 610 l 1,14,-1
 331 610 l 1,15,-1
 331 564 l 1,16,17
 286 562 286 562 286 528 c 2,18,-1
 286 483 l 1,19,-1
 583 262 l 1,20,-1
 583 528 l 2,21,22
 583 546 583 546 568 555 c 0,23,24
 552 564 552 564 538 564 c 1,25,-1
 538 610 l 1,26,-1
 769 610 l 1,27,-1
 769 564 l 1,28,29
 746 563 746 563 736 554.5 c 128,-1,30
 726 546 726 546 723 528 c 1,31,-1
 723 377 l 1,32,-1
 1019 377 l 1,33,-1
 1019 528 l 2,34,35
 1019 545 1019 545 1004 554 c 0,36,37
 988 564 988 564 974 564 c 1,38,-1
 974 610 l 1,39,-1
 1204 610 l 1,40,-1
 1204 564 l 1,41,42
 1182 563 1182 563 1172 555 c 128,-1,43
 1162 547 1162 547 1159 529 c 1,44,-1
 1159 78 l 1,45,46
 1161 58 1161 58 1180 50 c 0,47,48
 1190 46 1190 46 1204 46 c 1,49,-1
 1204 0 l 1,50,-1
 974 0 l 1,51,-1
 974 46 l 1,52,53
 989 46 989 46 1004 54 c 0,54,55
 1018 61 1018 61 1019 78 c 2,56,-1
 1019 311 l 1,57,-1
 723 311 l 1,58,-1
 723 78 l 1,59,60
 726 46 726 46 769 46 c 1,61,-1
 769 0 l 1,62,-1
 538 0 l 1,63,-1
 538 46 l 1,64,65
 553 46 553 46 568 54 c 0,66,67
 582 61 582 61 583 78 c 2,68,-1
 583 163 l 1,69,-1
 286 408 l 1,70,-1
 286 78 l 1,0,1
EndSplineSet
Validated: 1
Ligature2: "'ccmp' Cyrillic Ligatures-1" uni041D uni200D uni0418
Colour: ffff00
EndChar

StartChar: uni041D0466
Encoding: 59207 59207 51
Width: 1883
GlyphClass: 3
Flags: HW
HStem: 0 46<101 143.891 288.036 331 538 580.896 725.036 769 1050.77 1081 1185 1227.49 1385.47 1414 1539 1566.75> 225 66<1170 1230 1369 1448> 309 65<723 1078> 564 46<101 143.033 298.377 331 538 580.033 736.316 769 1185 1217.2>
VStem: 146 140<50.5932 408 483 553.717> 583 140<50.5932 163 262 309 374 554.232> 889 153<8.33333 85.5819> 1230 139<52.7069 225> 1575 207<0 74>
DStem2: 1437 517 1291 480 0.613744 -0.789505<-59.5641 184.338 261.489 430.225>
AnchorPoint: "Diacritic" 666 799 basechar 0
LayerCount: 3
Fore
SplineSet
1448 291 m 1
 1435.33 303.667 1416 325.667 1390 357 c 0
 1364 388.333 1331 429.333 1291 480 c 1
 1281 458 1269.83 436.5 1257.5 415.5 c 0
 1245.17 394.5 1233.17 375.167 1221.5 357.5 c 0
 1209.83 339.833 1199.33 325 1190 313 c 0
 1180.67 301 1174 293.667 1170 291 c 1
 1448 291 l 1
146 528 m 2
 146 540 140.833 549 130.5 555 c 0
 120.167 561 110.333 564 101 564 c 1
 101 610 l 1
 331 610 l 1
 331 564 l 1
 317 563.333 306 560 298 554 c 0
 290 548 286 539.333 286 528 c 2
 286 483 l 1
 583 262 l 1
 583 528 l 2
 583 540 577.833 549 567.5 555 c 0
 557.162 561 547.329 564 538 564 c 1
 538 610 l 1
 769 610 l 1
 769 564 l 1
 753.667 563.333 742.667 560.167 736 554.5 c 0
 729.333 548.833 725 540 723 528 c 1
 723 374 l 1
 1134 374 l 1
 1160.67 406 1182.83 435.167 1200.5 461.5 c 0
 1218.17 487.834 1227 509.667 1227 527 c 0
 1227 536.333 1223.83 544.167 1217.5 550.5 c 0
 1211.17 556.833 1200.33 561.333 1185 564 c 1
 1185 610 l 1
 1388 610 l 1
 1397.34 581.333 1413.68 550.333 1437 517 c 0
 1460.33 483.667 1486.5 449.167 1515.5 413.5 c 0
 1544.5 377.833 1574.67 341.666 1606 305 c 0
 1637.34 268.333 1666.17 232.167 1692.5 196.5 c 0
 1718.83 160.833 1740.33 126.333 1757 93 c 0
 1773.67 59.667 1782 28.667 1782 0 c 1
 1539 0 l 1
 1539 46 l 1
 1552.36 46 1561.69 48.5 1567 53.5 c 0
 1572.33 58.5 1575 65.333 1575 74 c 0
 1575 86 1571.17 99.833 1563.5 115.5 c 0
 1555.83 131.167 1547 146.5 1537 161.5 c 0
 1527 176.5 1517.17 189.833 1507.5 201.5 c 0
 1497.83 213.167 1491 221 1487 225 c 1
 1369 225 l 1
 1369 81 l 1
 1369.67 66.333 1375 56.833 1385 52.5 c 0
 1395 48.167 1404.67 46 1414 46 c 1
 1414 0 l 1
 1185 0 l 1
 1185 46 l 1
 1195 46 1203 47.333 1209 50 c 0
 1215 52.667 1219.5 55.833 1222.5 59.5 c 0
 1225.5 63.167 1227.5 67 1228.5 71 c 0
 1229.5 75 1230 78.333 1230 81 c 2
 1230 225 l 1
 1126 225 l 1
 1101.33 195 1081.17 166.833 1065.5 140.5 c 0
 1049.83 114.167 1042 92 1042 74 c 0
 1042 65.333 1044.83 58.5 1050.5 53.5 c 0
 1056.17 48.5 1066.33 46 1081 46 c 1
 1081 0 l 1
 890 0 l 1
 890 1.33301 889.833 2.83301 889.5 4.5 c 0
 889.167 6.16699 889 7.66699 889 9 c 0
 889 29 894.5 50.833 905.5 74.5 c 0
 916.5 98.167 931 123 949 149 c 0
 967 175 987.333 201.5 1010 228.5 c 0
 1032.67 255.5 1055.33 282.333 1078 309 c 1
 723 309 l 1
 723 78 l 1
 723.667 70 726 63.833 730 59.5 c 0
 734 55.167 738.5 52 743.5 50 c 0
 748.5 48 753.5 46.833 758.5 46.5 c 0
 763.5 46.167 767 46 769 46 c 1
 769 0 l 1
 538 0 l 1
 538 46 l 1
 548 46 557.833 48.5 567.5 53.5 c 0
 577.175 58.5 582.342 66.667 583 78 c 1
 583 163 l 1
 286 408 l 1
 286 78 l 1
 286.667 70 289 63.833 293 59.5 c 0
 297 55.167 301.5 52 306.5 50 c 0
 311.5 48 316.333 46.833 321 46.5 c 0
 325.667 46.167 329 46 331 46 c 1
 331 0 l 1
 101 0 l 1
 101 46 l 1
 111 46 120.833 48.5 130.5 53.5 c 0
 140.167 58.5 145.334 66.667 146 78 c 1
 146 528 l 2
EndSplineSet
Layer: 2
SplineSet
1446 291 m 1,0,1
 1409 328 1409 328 1289 480 c 1,2,3
 1247 389 1247 389 1188 313 c 0,4,5
 1174 295 1174 295 1168 291 c 1,6,-1
 1446 291 l 1,0,1
284 78 m 1,7,8
 287 46 287 46 329 46 c 1,9,-1
 329 0 l 1,10,-1
 99 0 l 1,11,-1
 99 46 l 1,12,13
 114 46 114 46 128 54 c 0,14,15
 143 61 143 61 144 78 c 2,16,-1
 144 528 l 2,17,18
 144 546 144 546 128.5 555 c 128,-1,19
 113 564 113 564 99 564 c 1,20,-1
 99 610 l 1,21,-1
 329 610 l 1,22,-1
 329 564 l 1,23,24
 284 562 284 562 284 528 c 2,25,-1
 284 483 l 1,26,-1
 581 262 l 1,27,-1
 581 528 l 2,28,29
 581 546 581 546 566 555 c 0,30,31
 550 564 550 564 536 564 c 1,32,-1
 536 610 l 1,33,-1
 767 610 l 1,34,-1
 767 564 l 1,35,36
 744 563 744 563 734 554.5 c 128,-1,37
 724 546 724 546 721 528 c 1,38,-1
 721 374 l 1,39,-1
 1132 374 l 1,40,41
 1170 420 1170 420 1198 461 c 0,42,43
 1225 501 1225 501 1225 527 c 0,44,45
 1225 557 1225 557 1183 564 c 1,46,-1
 1183 610 l 1,47,-1
 1386 610 l 1,48,49
 1400 567 1400 567 1435 517 c 0,50,51
 1471 465 1471 465 1513 414 c 0,52,53
 1557 360 1557 360 1604 305 c 128,-1,54
 1651 250 1651 250 1690 196 c 0,55,56
 1780 75 1780 75 1780 0 c 1,57,-1
 1537 0 l 1,58,-1
 1537 46 l 1,59,60
 1573 46 1573 46 1573 74 c 0,61,62
 1573 104 1573 104 1535 162 c 0,63,64
 1509 201 1509 201 1485 225 c 1,65,-1
 1367 225 l 1,66,-1
 1367 81 l 1,67,68
 1369 46 1369 46 1412 46 c 1,69,-1
 1412 0 l 1,70,-1
 1183 0 l 1,71,-1
 1183 46 l 1,72,73
 1220 46 1220 46 1226 71 c 0,74,75
 1228 77 1228 77 1228 81 c 2,76,-1
 1228 225 l 1,77,-1
 1124 225 l 1,78,79
 1040 123 1040 123 1040 74 c 0,80,81
 1040 46 1040 46 1079 46 c 1,82,-1
 1079 0 l 1,83,-1
 888 0 l 1,84,-1
 887 9 l 1,85,86
 887 82 887 82 1008 228 c 0,87,88
 1037 263 1037 263 1076 309 c 1,89,-1
 721 309 l 1,90,-1
 721 78 l 1,91,92
 724 46 724 46 767 46 c 1,93,-1
 767 0 l 1,94,-1
 536 0 l 1,95,-1
 536 46 l 1,96,97
 551 46 551 46 566 54 c 0,98,99
 580 61 580 61 581 78 c 2,100,-1
 581 163 l 1,101,-1
 284 408 l 1,102,-1
 284 78 l 1,7,8
EndSplineSet
Validated: 1
Ligature2: "'ccmp' Cyrillic Ligatures-1" uni041D uni200D uni0467
Ligature2: "'ccmp' Cyrillic Ligatures-1" uni041D uni200D uni0466
Colour: ffff00
EndChar

StartChar: uni04210412
Encoding: 59358 59358 52
Width: 1060
GlyphClass: 3
Flags: HW
HStem: 0 67<524 789.796> 346 64<524 596.819> 544 66<524 701.999>
VStem: 80 89<220.784 329 331 406.994> 385 139<147.22 346 410 477.172> 702 152<527.36 586.5> 792 188<69.5595 156.9>
AnchorPoint: "Diacritic" 470 799 basechar 0
LayerCount: 3
Fore
SplineSet
758 67 m 2xfa
 778 67 792 83 792 101 c 0
 792 139 767 174 748 200 c 0
 708 254 651 306 588 334 c 0
 568 342 551 346 534 346 c 2
 524 346 l 1
 524 67 l 1
 758 67 l 2xfa
524 410 m 1
 567 410 611 437 640 457 c 0
 658 470 673 483 684 496 c 0
 696 510 702 522 702 533 c 0xfc
 702 537 701 541 699 544 c 1
 524 544 l 1
 524 410 l 1
828 610 m 0
 844 610 854 594 854 579 c 0xfc
 854 549 829 522 811 503 c 0
 776 466 729 429 686 402 c 0
 674 395 665 390 659 388 c 1
 666 386 680 380 698 371 c 0
 772 335 851 280 907 222 c 0
 928 200 946 177 960 154 c 0
 973 130 980 106 980 82 c 0xfa
 980 53 964 27 946 13 c 0
 937 6 924 0 908 0 c 1
 341 0 l 2
 311 0 279 2 256 10 c 0
 141 47 80 166 80 326 c 0
 80 390 89 441 106 478 c 0
 142 563 201 610 314 610 c 0
 485 610 657 610 828 610 c 0
313 140 m 0
 338 140 370 148 385 154 c 1
 385 257 385 359 385 462 c 1
 381 477 340 485 315 485 c 0
 252 485 213 451 190 407 c 0
 180 387 170 362 170 331 c 1
 169 329 l 1
 169 260 188 208 221 176 c 0
 244 153 273 140 313 140 c 0
EndSplineSet
Layer: 2
SplineSet
778 67 m 2,0,1
 793 67 793 67 802.5 77 c 128,-1,2
 812 87 812 87 812 101 c 0,3,4
 812 140 812 140 768 200 c 0,5,6
 699 294 699 294 608 334 c 1,7,8
 578 346 578 346 554 346 c 2,9,-1
 544 346 l 1,10,-1
 544 67 l 1,11,-1
 778 67 l 2,0,1
544 410 m 1,12,13
 592 410 592 410 660 457 c 1,14,15
 722 501 722 501 722 533 c 0,16,17
 722 540 722 540 719 544 c 1,18,-1
 544 544 l 1,19,-1
 544 410 l 1,12,13
848 610 m 2,20,21
 859 610 859 610 866.5 600.5 c 128,-1,22
 874 591 874 591 874 579 c 0,23,24
 874 548 874 548 826.5 498 c 128,-1,25
 779 448 779 448 706 402 c 0,26,27
 686 390 686 390 679 388 c 1,28,29
 691 385 691 385 718 371 c 0,30,31
 841 311 841 311 927 222 c 0,32,33
 959 188 959 188 980 154 c 1,34,35
 1000 117 1000 117 1000 78 c 128,-1,36
 1000 39 1000 39 966 13 c 0,37,38
 949 0 949 0 928 0 c 2,39,-1
 361 0 l 2,40,41
 305 0 305 0 276 10 c 0,42,43
 191 37 191 37 145.5 120.5 c 128,-1,44
 100 204 100 204 100 312.5 c 128,-1,45
 100 421 100 421 127 482.5 c 128,-1,46
 154 544 154 544 203 577 c 128,-1,47
 252 610 252 610 334 610 c 2,48,-1
 848 610 l 2,20,21
333 140 m 0,49,50
 370 140 370 140 405 154 c 1,51,-1
 405 462 l 1,52,53
 402 472 402 472 379.5 478.5 c 128,-1,54
 357 485 357 485 335 485 c 0,55,56
 251 485 251 485 210 407 c 0,57,58
 190 367 190 367 190 331 c 1,59,-1
 189 329 l 1,60,61
 189 226 189 226 241 176 c 0,62,63
 277 140 277 140 333 140 c 0,49,50
EndSplineSet
Validated: 1
Ligature2: "'ccmp' Cyrillic Ligatures-1" uni0421 uni200D uni0412
Colour: ffff00
EndChar

StartChar: uni04420463
Encoding: 59389 59389 53
Width: 920
GlyphClass: 3
Flags: HW
HStem: 0 60<514 671.325> 0 46<344 382.496> 217 133<242 282 664.322 714> 294 56<317.225 384 514 637.875> 387 46<344 380.312 514.347 550> 477 133<173 213 675.322 725> 554 56<248.225 384 514 648.875>
VStem: 384 130<60.0114 168 223.16 294 350 381.389 433 554>
AnchorPoint: "Diacritic" 442 801 basechar 0
LayerCount: 3
Fore
SplineSet
242 217 m 1x29
 171 304 l 1
 171 350 l 1
 384 350 l 1
 384 353 l 1
 382.667 364.333 377.167 372.833 367.5 378.5 c 0
 357.833 384.167 350 387 344 387 c 1
 344 433 l 1
 384 433 l 1
 384 554 l 1
 313 554 l 2x1b
 295 554 280.333 551.167 269 545.5 c 0
 257.667 539.833 248.167 533 240.5 525 c 0
 232.833 517 227 508.5 223 499.5 c 0
 217 486 217 486 213 477 c 1
 173 477 l 1x0d
 102 564 l 1
 102 610 l 1
 800 610 l 1x0b
 800 564 l 1
 725 477 l 1
 685 477 l 1x0d
 678.333 494.334 670.667 508.168 662 518.5 c 0
 653.333 528.833 644.5 536.667 635.5 542 c 0
 626.5 547.333 617.667 550.667 609 552 c 0
 600.333 553.333 592.667 554 586 554 c 2
 514 554 l 1
 514 433 l 1
 550 433 l 1
 550 387 l 1
 533.333 387 521.333 380 514 366 c 1
 514 350 l 1
 789 350 l 1x1b
 789 304 l 1
 714 217 l 1
 674 217 l 1x29
 667.333 234.333 659.667 248.167 651 258.5 c 0
 642.333 268.834 633.5 276.668 624.5 282 c 0
 615.5 287.338 606.667 290.671 598 292 c 0
 589.333 293.333 581.667 294 575 294 c 2
 514 294 l 1
 514 228 l 1
 528.669 224.666 545.835 220.832 565.5 216.5 c 0
 585.167 212.166 605.5 206.833 626.5 200.5 c 0
 647.5 194.167 668.667 186.667 690 178 c 0
 711.333 169.333 730.833 159 748.5 147 c 0
 766.167 135 781.167 121 793.5 105 c 0
 805.833 89 814 70.333 818 49 c 1
 818 41 l 2
 818 33 815.667 24.167 811 14.5 c 0
 806.333 4.83301 796.333 0 781 0 c 2
 344 0 l 1
 344 46 l 1
 347.333 46 351.333 46.5 356 47.5 c 0
 360.667 48.5 365 50.167 369 52.5 c 0
 373 54.833 376.5 58 379.5 62 c 0
 382.5 66 384 71.333 384 78 c 2
 384 294 l 1
 382 294 l 2x59
 364 294 349.333 291.167 338 285.5 c 0
 326.667 279.833 317.167 273 309.5 265 c 0
 301.833 257 296 248.5 292 239.5 c 0
 286 226 286 226 282 217 c 1
 242 217 l 1x29
514 60 m 1x89
 651 60 l 2
 661 60 667.833 62 671.5 66 c 0
 675.167 70 677 73.333 677 76 c 0
 677 83.333 674 91.333 668 100 c 0
 662 108.667 652.5 117.333 639.5 126 c 0
 626.5 134.667 609.667 142.667 589 150 c 0
 568.333 157.333 543.333 163.333 514 168 c 1
 514 60 l 1x89
EndSplineSet
Layer: 2
SplineSet
660 217 m 1,0,1
 630 294 630 294 561 294 c 2,2,-1
 500 294 l 1,3,-1
 500 228 l 1,4,5
 522 223 522 223 552 216 c 0,6,7
 588 209 588 209 612 201 c 0,8,9
 644 191 644 191 676 178 c 128,-1,10
 708 165 708 165 734 147 c 0,11,12
 793 107 793 107 804 49 c 1,13,-1
 804 41 l 2,14,15
 804 29 804 29 797 14 c 0,16,17
 790 -0 790 -0 767 0 c 2,18,-1
 330 0 l 1,19,-1
 330 46 l 1,20,21
 354 46 354 46 366 62 c 0,22,23
 370 68 370 68 370 78 c 2,24,-1
 370 294 l 1,25,-1
 368 294 l 2,26,27
 325 294 325 294 296 265 c 0,28,29
 284 253 284 253 278 240 c 2,30,-1
 268 217 l 1,31,-1
 228 217 l 1,32,-1
 157 304 l 1,33,-1
 157 350 l 1,34,-1
 370 350 l 1,35,-1
 370 353 l 1,36,37
 368 370 368 370 353.5 378.5 c 128,-1,38
 339 387 339 387 330 387 c 1,39,-1
 330 433 l 1,40,-1
 370 433 l 1,41,-1
 370 554 l 1,42,-1
 299 554 l 2,43,44
 253 554 253 554 226 525 c 0,45,46
 215 513 215 513 209 500 c 2,47,-1
 199 477 l 1,48,-1
 159 477 l 1,49,-1
 88 564 l 1,50,-1
 88 610 l 1,51,-1
 786 610 l 1,52,-1
 786 564 l 1,53,-1
 711 477 l 1,54,-1
 671 477 l 1,55,56
 641 554 641 554 572 554 c 2,57,-1
 500 554 l 1,58,-1
 500 433 l 1,59,-1
 536 433 l 1,60,-1
 536 387 l 1,61,62
 511 387 511 387 500 366 c 1,63,-1
 500 350 l 1,64,-1
 775 350 l 1,65,-1
 775 304 l 1,66,-1
 700 217 l 1,67,-1
 660 217 l 1,0,1
500 60 m 1,68,-1
 637 60 l 2,69,70
 652 60 652 60 657.5 66 c 128,-1,71
 663 72 663 72 663 79 c 0,72,73
 663 87 663 87 654 100 c 128,-1,74
 645 113 645 113 626 126 c 0,75,76
 582 155 582 155 500 168 c 1,77,-1
 500 60 l 1,68,-1
EndSplineSet
Validated: 1
Ligature2: "'ccmp' Cyrillic Ligatures-1" uni0442 uni200D uni0463
Ligature2: "'ccmp' Cyrillic Ligatures-1" uni1C84 uni200D uni0463
Colour: ffff00
EndChar

StartChar: uni04220412
Encoding: 59360 59360 54
Width: 1069
GlyphClass: 3
Flags: HW
HStem: 0 60<604 754.934> 0 46<418 450.654> 377 56<604 693> 387 46<422 457.745> 458 152<198 254.73 815.142 872> 544 66<300.125 464 604 767.372>
VStem: 464 140<60.343 240 293 376.866 433 544> 757 166<39.3334 115.832>
AnchorPoint: "Diacritic" 521 801 basechar 0
LayerCount: 3
Fore
SplineSet
418 46 m 1x53
 432.667 47.333 443.667 51.333 451 58 c 0
 458.337 64.667 462.67 75.667 464 91 c 1
 464 341 l 2
 464 341.667 463.667 344.333 463 349 c 0
 462.319 353.667 460.653 358.833 458 364.5 c 0
 455.33 370.167 451.163 375.333 445.5 380 c 0
 439.833 384.667 432 387 422 387 c 1
 422 433 l 1
 464 433 l 1
 464 544 l 1
 383 544 l 1x57
 358.333 542 338 538 322 532 c 0
 306 526 292.833 519 282.5 511 c 0
 272.167 503 264 494.333 258 485 c 0
 252 475.667 247 466.667 243 458 c 1
 198 458 l 1x0b
 102 564 l 1
 102 610 l 1
 967 610 l 1x07
 967 564 l 1
 872 458 l 1
 827 458 l 1x0b
 817.66 478 806.327 493.5 793 504.5 c 0
 779.664 515.5 766.33 523.833 753 529.5 c 0
 739.664 535.167 726.831 538.667 714.5 540 c 0
 702.167 541.333 692 542.667 684 544 c 1
 604 544 l 1
 604 433 l 1x27
 812 433 l 2
 824.667 433 831 427 831 415 c 0
 831 403.667 824.5 390.333 811.5 375 c 0
 798.5 359.667 784.167 345 768.5 331 c 0
 752.833 317 738.5 304.833 725.5 294.5 c 0
 712.5 284.167 706 278.667 706 278 c 0
 706 275.333 709.333 272.833 716 270.5 c 0
 722.667 268.167 732 264 744 258 c 0
 756 252 770.667 243.333 788 232 c 0
 805.333 220.667 824.667 205 846 185 c 0
 872.667 159.667 892 134.667 904 110 c 0
 916 85.333 922.333 63.667 923 45 c 0
 923 33.667 920.667 23.667 916 15 c 0
 911.333 6.33301 902.667 1.33301 890 0 c 1
 418 0 l 1
 418 46 l 1x53
737 60 m 2x83
 747.667 60 753.667 63.5 755 70.5 c 0
 756.333 77.5 757 83.667 757 89 c 0
 757 101 754.667 114.5 750 129.5 c 0
 745.333 144.5 737.167 159.167 725.5 173.5 c 0
 713.833 187.833 698.167 201 678.5 213 c 0
 658.833 225 634 234 604 240 c 1
 604 60 l 1
 737 60 l 2x83
693 377 m 1x23
 604 377 l 1
 604 293 l 1
 612 295 621.167 298.333 631.5 303 c 0
 641.833 307.667 651.667 313.5 661 320.5 c 0
 670.333 327.5 678.167 335.333 684.5 344 c 0
 690.833 352.667 694 361.333 694 370 c 0
 694 371.333 693.833 372.5 693.5 373.5 c 0
 693.167 374.5 693 375.667 693 377 c 1x23
EndSplineSet
Layer: 2
SplineSet
911 99 m 0,0,1
 923 82 923 82 923 41 c 128,-1,2
 923 0 923 0 891 0 c 1,3,-1
 419 0 l 1,4,-1
 419 46 l 1,5,6
 441 46 441 46 453 57 c 128,-1,7
 465 68 465 68 465 91 c 1,8,-1
 465 341 l 2,9,10
 465 365 465 365 446 380 c 0,11,12
 438 387 438 387 423 387 c 1,13,-1
 423 433 l 1,14,-1
 465 433 l 1,15,-1
 465 544 l 1,16,-1
 384 544 l 1,17,18
 290 544 290 544 259 485 c 0,19,20
 250 469 250 469 244 458 c 1,21,-1
 199 458 l 1,22,-1
 103 564 l 1,23,-1
 103 610 l 1,24,-1
 968 610 l 1,25,-1
 968 564 l 1,26,-1
 873 458 l 1,27,-1
 828 458 l 1,28,29
 804 510 804 510 754 530 c 0,30,31
 734 538 734 538 715.5 540 c 128,-1,32
 697 542 697 542 685 544 c 1,33,-1
 605 544 l 1,34,-1
 605 433 l 1,35,-1
 813 433 l 2,36,37
 832 433 832 433 832 415.5 c 128,-1,38
 832 398 832 398 812.5 375 c 128,-1,39
 793 352 793 352 769.5 331 c 128,-1,40
 746 310 746 310 726.5 294.5 c 128,-1,41
 707 279 707 279 707 278 c 0,42,43
 707 274 707 274 717 270 c 0,44,45
 803 230 803 230 842 190 c 0,46,47
 842 189 842 189 911 99 c 0,0,1
738 60 m 2,48,49
 754 60 754 60 756 70.5 c 128,-1,50
 758 81 758 81 758 94 c 0,51,52
 758 108 758 108 751 130 c 128,-1,53
 744 152 744 152 727 174 c 0,54,55
 685 224 685 224 605 240 c 1,56,-1
 605 60 l 1,57,-1
 738 60 l 2,48,49
695 370 m 1,58,-1
 694 377 l 1,59,-1
 605 377 l 1,60,-1
 605 293 l 1,61,62
 658 306 658 306 686 344 c 0,63,64
 695 357 695 357 695 370 c 1,58,-1
EndSplineSet
Validated: 1
Ligature2: "'ccmp' Cyrillic Ligatures-1" uni0422 uni200D uni0412
Ligature2: "'ccmp' Cyrillic Ligatures-1" uni0422 uni200D uni0432
Colour: ffff00
EndChar

StartChar: uni04420432
Encoding: 59376 59376 55
Width: 927
GlyphClass: 3
Flags: HW
HStem: 0 60<506.5 664.434> 0 46<331.5 364.184> 377 56<506.5 602.5> 387 46<335.5 370.474> 477 133<165.5 205.5 667.822 717.5> 554 56<240.725 376.5 506.5 641.375>
VStem: 376.5 130<60.2119 241 292 376.661 433 554> 666.5 166<39.3334 115.786>
AnchorPoint: "Diacritic" 432.5 799 basechar 0
LayerCount: 3
Fore
SplineSet
331.5 46 m 1x53
 346.833 47.333 357.833 51 364.5 57 c 0
 371.167 63 375.167 70.333 376.5 79 c 1
 376.5 349 l 1
 375.167 355.667 371.667 363.667 366 373 c 0
 360.332 382.333 350.165 387 335.5 387 c 1
 335.5 433 l 1
 376.5 433 l 1
 376.5 554 l 1
 305.5 554 l 2x57
 287.5 554 272.833 551.167 261.5 545.5 c 0
 250.167 539.833 240.667 533 233 525 c 0
 225.333 517 219.5 508.5 215.5 499.5 c 0
 209.5 486 209.5 486 205.5 477 c 1
 165.5 477 l 1x0b
 94.5 564 l 1
 94.5 610 l 1
 792.5 610 l 1x07
 792.5 564 l 1
 717.5 477 l 1
 677.5 477 l 1x0b
 670.833 494.334 663.167 508.168 654.5 518.5 c 0
 645.833 528.833 637 536.667 628 542 c 0
 619 547.333 610.167 550.667 601.5 552 c 0
 592.833 553.333 585.167 554 578.5 554 c 2
 506.5 554 l 1
 506.5 433 l 1x27
 721.5 433 l 2
 734.167 433 740.5 427 740.5 415 c 0
 740.5 403.667 734 390.333 721 375 c 0
 708 359.667 693.667 345 678 331 c 0
 662.333 317 648 304.833 635 294.5 c 0
 622 284.167 615.5 278.667 615.5 278 c 0
 615.5 275.333 618.833 272.833 625.5 270.5 c 0
 632.167 268.167 641.5 264 653.5 258 c 0
 665.5 252 680.167 243.333 697.5 232 c 0
 714.833 220.667 734.167 205 755.5 185 c 0
 782.167 159.667 801.5 134.667 813.5 110 c 0
 825.5 85.333 831.833 63.667 832.5 45 c 0
 832.5 33.667 830.167 23.667 825.5 15 c 0
 820.833 6.33301 812.167 1.33301 799.5 0 c 1
 331.5 0 l 1
 331.5 46 l 1x53
506.5 60 m 1x83
 646.5 60 l 2
 657.167 60 663.167 63.333 664.5 70 c 0
 665.833 76.667 666.5 82.667 666.5 88 c 0
 666.5 100 664 113.667 659 129 c 0
 654 144.333 645.5 159.333 633.5 174 c 0
 621.5 188.667 605.167 202.167 584.5 214.5 c 0
 563.833 226.833 537.833 235.667 506.5 241 c 1
 506.5 60 l 1x83
602.5 377 m 1x23
 506.5 377 l 1
 506.5 292 l 1
 513.167 292.667 522 295.5 533 300.5 c 0
 544 305.5 554.667 311.833 565 319.5 c 0
 575.333 327.167 584.167 335.5 591.5 344.5 c 0
 598.833 353.5 602.5 362.333 602.5 371 c 2
 602.5 377 l 1x23
EndSplineSet
Layer: 2
SplineSet
849 53 m 1,0,1
 849 0 849 0 809 0 c 1,2,-1
 341 0 l 1,3,-1
 341 46 l 1,4,5
 381 46 381 46 386 79 c 1,6,-1
 386 349 l 1,7,8
 384 359 384 359 376 373 c 0,9,10
 367 387 367 387 345 387 c 1,11,-1
 345 433 l 1,12,-1
 386 433 l 1,13,-1
 386 554 l 1,14,-1
 315 554 l 2,15,16
 250 554 250 554 225 500 c 1,17,-1
 215 477 l 1,18,-1
 175 477 l 1,19,-1
 104 564 l 1,20,-1
 104 610 l 1,21,-1
 802 610 l 1,22,-1
 802 564 l 1,23,-1
 727 477 l 1,24,-1
 687 477 l 1,25,26
 657 554 657 554 588 554 c 2,27,-1
 516 554 l 1,28,-1
 516 433 l 1,29,-1
 731 433 l 2,30,31
 750 433 750 433 750 415.5 c 128,-1,32
 750 398 750 398 730.5 375 c 128,-1,33
 711 352 711 352 687.5 331 c 128,-1,34
 664 310 664 310 644.5 294.5 c 128,-1,35
 625 279 625 279 625 278 c 0,36,37
 635 272 635 272 685 251 c 1,38,39
 715 236 715 236 760 190 c 1,40,41
 839 113 839 113 849 53 c 1,0,1
516 60 m 1,42,-1
 656 60 l 2,43,44
 672 60 672 60 674 70 c 128,-1,45
 676 80 676 80 676 93 c 128,-1,46
 676 106 676 106 668 129 c 0,47,48
 661 152 661 152 643 174 c 0,49,50
 600 227 600 227 516 241 c 1,51,-1
 516 60 l 1,42,-1
612 377 m 1,52,-1
 516 377 l 1,53,-1
 516 292 l 1,54,55
 541 292 541 292 565 313 c 0,56,57
 612 354 612 354 612 371 c 2,58,-1
 612 377 l 1,52,-1
EndSplineSet
Validated: 1
Ligature2: "'ccmp' Cyrillic Ligatures-1" uni0442 uni200D uni0432
Ligature2: "'ccmp' Cyrillic Ligatures-1" uni1C84 uni200D uni0432
Colour: ffff00
EndChar

StartChar: uni04220418
Encoding: 59361 59361 56
Width: 1085
GlyphClass: 3
Flags: HW
HStem: 0 46<418 447.593 620.468 648 774 813.855 944.122 984> 209 60<603 814> 387 46<776 803.17 944.557 984> 458 152<197 253.73 814.143 871> 544 66<299.125 463 603 766.372>
VStem: 463 140<56.2856 209 269 544> 814 130<49.0937 209 269 378.779>
AnchorPoint: "Diacritic" 524 799 basechar 0
LayerCount: 3
Fore
SplineSet
944 69 m 1xee
 944.667 61 949.667 55.167 959 51.5 c 0
 968.333 47.833 976.667 46 984 46 c 1
 984 0 l 1
 774 0 l 1
 774 46 l 1
 775.333 46 778 46.167 782 46.5 c 0
 786 46.833 790.167 47.667 794.5 49 c 0
 798.833 50.333 803 52.5 807 55.5 c 0
 811 58.5 813.333 63 814 69 c 1
 814 209 l 1
 603 209 l 1
 603 92 l 1
 604.333 74 610 62 620 56 c 0
 630 50 639.333 46.667 648 46 c 1
 648 0 l 1
 418 0 l 1
 418 46 l 1
 429.333 46.667 439.333 49.833 448 55.5 c 0
 456.667 61.167 461.667 73 463 91 c 1
 463 544 l 1
 382 544 l 1xee
 357.333 542 337 538 321 532 c 0
 305 526 291.833 519 281.5 511 c 0
 271.167 503 263 494.333 257 485 c 0
 251 475.667 246 466.667 242 458 c 1
 197 458 l 1xf6
 101 564 l 1
 101 610 l 1
 966 610 l 1xee
 966 564 l 1
 871 458 l 1
 826 458 l 1xf6
 816.661 478 805.327 493.5 792 504.5 c 0
 778.664 515.5 765.33 523.833 752 529.5 c 0
 738.664 535.167 725.831 538.667 713.5 540 c 0
 701.167 541.333 691 542.667 683 544 c 1
 603 544 l 1
 603 269 l 1
 814 269 l 1
 814 360 l 2
 814 368 810.5 374.333 803.5 379 c 0
 796.5 383.667 787.333 386.333 776 387 c 1
 776 433 l 1
 984 433 l 1
 984 387 l 1
 975.333 387 966.5 384.833 957.5 380.5 c 0
 948.5 376.167 944 369.333 944 360 c 2
 944 69 l 1xee
EndSplineSet
Layer: 2
SplineSet
808 360 m 2,0,1
 808 385 808 385 770 387 c 1,2,-1
 770 433 l 1,3,-1
 978 433 l 1,4,-1
 978 387 l 1,5,6
 965 387 965 387 951.5 380.5 c 128,-1,7
 938 374 938 374 938 360 c 2,8,-1
 938 69 l 1,9,10
 939 57 939 57 953 51.5 c 128,-1,11
 967 46 967 46 978 46 c 1,12,-1
 978 0 l 1,13,-1
 768 0 l 1,14,-1
 768 46 l 1,15,16
 805 46 805 46 808 69 c 1,17,-1
 808 209 l 1,18,-1
 597 209 l 1,19,-1
 597 92 l 1,20,21
 599 65 599 65 614 56 c 128,-1,22
 629 47 629 47 642 46 c 1,23,-1
 642 0 l 1,24,-1
 412 0 l 1,25,-1
 412 46 l 1,26,27
 429 47 429 47 442 55.5 c 128,-1,28
 455 64 455 64 457 91 c 1,29,-1
 457 544 l 1,30,-1
 376 544 l 1,31,32
 284 537 284 537 251 485 c 0,33,34
 242 470 242 470 236 458 c 1,35,-1
 191 458 l 1,36,-1
 95 564 l 1,37,-1
 95 610 l 1,38,-1
 960 610 l 1,39,-1
 960 564 l 1,40,-1
 865 458 l 1,41,-1
 820 458 l 1,42,43
 797 508 797 508 746 530 c 0,44,45
 726 538 726 538 707.5 540 c 128,-1,46
 689 542 689 542 677 544 c 1,47,-1
 597 544 l 1,48,-1
 597 269 l 1,49,-1
 808 269 l 1,50,-1
 808 360 l 2,0,1
EndSplineSet
Validated: 1
Ligature2: "'ccmp' Cyrillic Ligatures-1" uni0422 uni200D uni0418
Ligature2: "'ccmp' Cyrillic Ligatures-1" uni0422 uni200D uni0438
Colour: ffff00
EndChar

StartChar: uni04420438
Encoding: 59377 59377 57
Width: 992
GlyphClass: 3
Flags: HW
HStem: 0 46<341.5 381.355 511.622 551.5 682.5 722.355 852.622 892.5> 209 60<511.5 722.5> 387 46<341.5 379.519 513.096 551.5 684.5 711.67 853.057 892.5> 477 133<170.5 210.5 672.822 722.5> 554 56<245.725 381.5 511.5 646.375>
VStem: 381.5 130<49.0937 209 269 382.722 433 554> 722.5 130<49.0937 209 269 378.779>
AnchorPoint: "Diacritic" 439.5 799 basechar 0
LayerCount: 3
Fore
SplineSet
852.5 69 m 1xee
 853.167 61 858.167 55.167 867.5 51.5 c 0
 876.833 47.833 885.167 46 892.5 46 c 1
 892.5 0 l 1
 682.5 0 l 1
 682.5 46 l 1
 683.833 46 686.5 46.167 690.5 46.5 c 0
 694.5 46.833 698.667 47.667 703 49 c 0
 707.333 50.333 711.5 52.5 715.5 55.5 c 0
 719.5 58.5 721.833 63 722.5 69 c 1
 722.5 209 l 1
 511.5 209 l 1
 511.5 69 l 1
 512.167 61 517.167 55.167 526.5 51.5 c 0
 535.833 47.833 544.167 46 551.5 46 c 1
 551.5 0 l 1
 341.5 0 l 1
 341.5 46 l 1
 342.833 46 345.5 46.167 349.5 46.5 c 0
 353.5 46.833 357.667 47.667 362 49 c 0
 366.333 50.333 370.5 52.5 374.5 55.5 c 0
 378.5 58.5 380.833 63 381.5 69 c 1
 381.5 358 l 1
 380.167 366.667 375.833 373.5 368.5 378.5 c 0
 361.167 383.5 352.167 386.333 341.5 387 c 1
 341.5 433 l 1
 381.5 433 l 1
 381.5 554 l 1
 310.5 554 l 2xee
 292.5 554 277.833 551.167 266.5 545.5 c 0
 255.167 539.833 245.667 533 238 525 c 0
 230.333 517 224.5 508.5 220.5 499.5 c 0
 214.5 486 214.5 486 210.5 477 c 1
 170.5 477 l 1xf6
 99.5 564 l 1
 99.5 610 l 1
 797.5 610 l 1xee
 797.5 564 l 1
 722.5 477 l 1
 682.5 477 l 1xf6
 675.833 494.334 668.167 508.168 659.5 518.5 c 0
 650.833 528.833 642 536.667 633 542 c 0
 624 547.333 615.167 550.667 606.5 552 c 0
 597.833 553.333 590.167 554 583.5 554 c 2
 511.5 554 l 1
 511.5 433 l 1
 551.5 433 l 1
 551.5 387 l 1
 544.833 387 536.833 384.667 527.5 380 c 0
 518.167 375.333 512.833 368.333 511.5 359 c 1
 511.5 269 l 1
 722.5 269 l 1
 722.5 360 l 2
 722.5 368 719 374.333 712 379 c 0
 705 383.667 695.833 386.333 684.5 387 c 1
 684.5 433 l 1
 892.5 433 l 1
 892.5 387 l 1
 883.833 387 875 384.833 866 380.5 c 0
 857 376.167 852.5 369.333 852.5 360 c 2
 852.5 69 l 1xee
EndSplineSet
Layer: 2
SplineSet
721 360 m 2,0,1
 721 385 721 385 683 387 c 1,2,-1
 683 433 l 1,3,-1
 891 433 l 1,4,-1
 891 387 l 1,5,6
 878 387 878 387 864.5 380.5 c 128,-1,7
 851 374 851 374 851 360 c 2,8,-1
 851 69 l 1,9,10
 852 57 852 57 866 51.5 c 128,-1,11
 880 46 880 46 891 46 c 1,12,-1
 891 0 l 1,13,-1
 681 0 l 1,14,-1
 681 46 l 1,15,16
 718 46 718 46 721 69 c 1,17,-1
 721 209 l 1,18,-1
 510 209 l 1,19,-1
 510 69 l 1,20,21
 511 57 511 57 525 51.5 c 128,-1,22
 539 46 539 46 550 46 c 1,23,-1
 550 0 l 1,24,-1
 340 0 l 1,25,-1
 340 46 l 1,26,27
 377 46 377 46 380 69 c 1,28,-1
 380 358 l 1,29,30
 376 385 376 385 340 387 c 1,31,-1
 340 433 l 1,32,-1
 380 433 l 1,33,-1
 380 554 l 1,34,-1
 309 554 l 2,35,36
 263 554 263 554 236 525 c 0,37,38
 225 513 225 513 219 500 c 2,39,-1
 209 477 l 1,40,-1
 169 477 l 1,41,-1
 98 564 l 1,42,-1
 98 610 l 1,43,-1
 796 610 l 1,44,-1
 796 564 l 1,45,-1
 721 477 l 1,46,-1
 681 477 l 1,47,48
 651 554 651 554 582 554 c 2,49,-1
 510 554 l 1,50,-1
 510 433 l 1,51,-1
 550 433 l 1,52,-1
 550 387 l 1,53,54
 540 387 540 387 526 380 c 128,-1,55
 512 373 512 373 510 359 c 1,56,-1
 510 269 l 1,57,-1
 721 269 l 1,58,-1
 721 360 l 2,0,1
EndSplineSet
Validated: 1
Ligature2: "'ccmp' Cyrillic Ligatures-1" uni0442 uni200D uni0438
Ligature2: "'ccmp' Cyrillic Ligatures-1" uni1C84 uni200D uni0438
Colour: ffff00
EndChar

StartChar: uni04220420
Encoding: 59381 59381 58
Width: 1069
GlyphClass: 3
Flags: W
HStem: -3 76<605.084 721.333> 467 143<197 257.073 813.472 871> 544 66<294.165 465 605 775.413>
VStem: 465 140<74.0635 375.873 484.449 544> 467 117<-177.457 15> 715 132<96.039 259.265>
AnchorPoint: "Diacritic" 541 800 basechar 0
LayerCount: 3
Fore
SplineSet
715 185 m 1x94
 714.333 209 710.5 232.667 703.5 256 c 0
 696.5 279.333 688.333 300.167 679 318.5 c 0
 669.664 336.834 659.831 351.667 649.5 363 c 0
 639.167 374.333 630.667 380 624 380 c 0
 620 380 616 378.667 612 376 c 0
 608 373.333 605.667 367.333 605 358 c 1
 605 91 l 2
 605 84.3332 608.667 79.6665 616 77 c 0
 623.333 74.3333 631 73 639 73 c 0
 645 73 652.333 73.8333 661 75.5 c 0
 669.667 77.1667 678 81.5 686 88.5 c 0
 694 95.5 700.833 105.833 706.5 119.5 c 0
 712.167 133.167 715 151.667 715 175 c 2
 715 185 l 1x94
576 -386 m 1
 574 -396 570.667 -401 566 -401 c 0
 560 -401 552.833 -393.5 544.5 -378.5 c 0
 536.167 -363.5 527.667 -342.333 519 -315 c 0
 515.667 -305 511.5 -289 506.5 -267 c 0
 501.5 -245 496.333 -219.333 491 -190 c 0
 485.667 -160.667 480.833 -128.5 476.5 -93.5 c 0
 472.167 -58.5 469 -23.3333 467 12 c 1xac
 465 92 l 1
 465 544 l 1
 385 544 l 1xb4
 377 542.658 367.5 541.825 356.5 541.5 c 0
 345.5 541.167 333.667 539 321 535 c 0
 308.333 531 295.166 523.833 281.5 513.5 c 0
 267.833 503.167 254.667 487.667 242 467 c 1
 197 467 l 1xd4
 102 564 l 1
 102 610 l 1
 967 610 l 1xb4
 967 564 l 1
 871 467 l 1
 826 467 l 1xd4
 822 475.667 817 484.167 811 492.5 c 0
 805 500.833 796.833 508.5 786.5 515.5 c 0
 776.167 522.5 763 528.5 747 533.5 c 0
 731 538.5 710.667 542 686 544 c 1
 605 544 l 1
 605 488 l 1xb4
 635.667 485.333 665.5 472.5 694.5 449.5 c 0
 723.5 426.5 749.333 398.333 772 365 c 0
 794.67 331.667 812.836 295.333 826.5 256 c 0
 840.167 216.667 847 179.333 847 144 c 0
 847 124 844.5 105.167 839.5 87.5 c 0
 834.5 69.8333 826.5 54.5 815.5 41.5 c 0
 804.5 28.5 790.167 18 772.5 10 c 0
 754.833 2 733.667 -2.33333 709 -3 c 0
 701 -3 691.833 -2.66667 681.5 -2 c 0
 671.162 -1.33333 660.328 -0.333334 649 1 c 0
 637.664 2.33333 626.331 4.16667 615 6.5 c 0
 603.662 8.83333 593.329 11.6667 584 15 c 1xac
 576 -385 l 1
 576 -386 l 1
EndSplineSet
Validated: 1
Layer: 2
SplineSet
605 91 m 2,0,1
 605 73 605 73 636.5 73 c 128,-1,2
 668 73 668 73 683 86 c 0,3,4
 715 113 715 113 715 175 c 2,5,-1
 715 185 l 1,6,7
 713 251 713 251 679 318 c 0,8,9
 665 346 665 346 649.5 363 c 128,-1,10
 634 380 634 380 624 380 c 0,11,12
 607 380 607 380 605 358 c 1,13,-1
 605 91 l 2,0,1
707 -2 m 2,14,-1
 688 -2 l 2,15,16
 632 -2 632 -2 584 15 c 1,17,-1
 576 -385 l 1,18,-1
 576 -386 l 1,19,20
 573 -401 573 -401 566 -401 c 0,21,22
 546 -401 546 -401 520.5 -322 c 128,-1,23
 495 -243 495 -243 482.5 -142 c 128,-1,24
 470 -41 470 -41 467 12 c 1,25,-1
 465 92 l 1,26,-1
 465 544 l 1,27,-1
 385 544 l 1,28,29
 373 542 373 542 356 542 c 0,30,31
 287 539 287 539 242 467 c 1,32,-1
 197 467 l 1,33,-1
 102 564 l 1,34,-1
 102 610 l 1,35,-1
 967 610 l 1,36,-1
 967 564 l 1,37,-1
 871 467 l 1,38,-1
 826 467 l 1,39,40
 811 499 811 499 791 512 c 0,41,42
 752 539 752 539 686 544 c 1,43,-1
 605 544 l 1,44,-1
 605 488 l 1,45,46
 651 484 651 484 694 450 c 0,47,48
 782 380 782 380 826 256 c 0,49,50
 847 197 847 197 847 154 c 0,51,52
 847 -0 847 -0 707 -2 c 2,14,-1
EndSplineSet
Validated: 1
Ligature2: "'ccmp' Cyrillic Ligatures-1" uni0422 uni200D uni0420
Ligature2: "'ccmp' Cyrillic Ligatures-1" uni0422 uni200D uni0440
Colour: ffff00
EndChar

StartChar: uni04100442
Encoding: 58859 58859 59
Width: 1064
GlyphClass: 3
Flags: HW
HStem: -16 117<222.729 354.167> 0 46<416.5 446.529 618.968 646.5> 390 43<386.5 414.493> 458 152<195.5 252.23 812.642 869.5> 544 66<297.625 461.5 601.5 764.87>
VStem: 194.5 120<15.3384 128.667> 461.5 140<56.2856 102 150.481 320 433 544>
AnchorPoint: "Diacritic" 525.5 799 basechar 0
LayerCount: 3
Fore
SplineSet
195.5 458 m 1x36
 99.5 564 l 1
 99.5 610 l 1
 964.5 610 l 1x2e
 964.5 564 l 1
 869.5 458 l 1
 824.5 458 l 1x36
 815.16 478 803.827 493.5 790.5 504.5 c 0
 777.161 515.5 763.827 523.833 750.5 529.5 c 0
 737.161 535.167 724.328 538.667 712 540 c 0
 699.667 541.333 689.5 542.667 681.5 544 c 1
 601.5 544 l 1
 601.5 92 l 1
 602.833 74 608.5 62 618.5 56 c 0
 628.5 50 637.833 46.667 646.5 46 c 1
 646.5 0 l 1
 416.5 0 l 1
 416.5 46 l 1
 424.5 46 l 1x6e
 425.167 46.667 425.833 47 426.5 47 c 2
 429.5 47 l 1
 432.837 48.333 436.67 50 441 52 c 0
 445.34 54 447.173 55 446.5 55 c 2
 449.5 58 l 2
 454.84 63.333 457.674 68.667 458 74 c 0
 458.333 79.333 459.5 85 461.5 91 c 1
 461.5 102 l 1
 444.167 86.667 425.667 72 406 58 c 0
 386.333 44 367 31.5 348 20.5 c 0
 329 9.5 310.5 0.666992 292.5 -6 c 0
 274.5 -12.667 258.5 -16 244.5 -16 c 0
 211.167 -16 194.5 1.33301 194.5 36 c 0
 194.5 54.667 198 73.667 205 93 c 0
 212 112.333 222.5 132.667 236.5 154 c 0
 250.5 175.333 268.333 198.333 290 223 c 0
 311.667 247.667 337.5 274.667 367.5 304 c 0
 398.833 335.334 414.5 357.667 414.5 371 c 0
 414.5 383 405.167 389.333 386.5 390 c 1
 386.5 433 l 1
 461.5 433 l 1
 461.5 544 l 1
 380.5 544 l 1xae
 355.833 542 335.5 538 319.5 532 c 0
 303.5 526 290.333 519 280 511 c 0
 269.667 503 261.5 494.333 255.5 485 c 0
 249.5 475.667 244.5 466.667 240.5 458 c 1
 195.5 458 l 1x36
323.5 161 m 0
 317.5 145.666 314.5 133.333 314.5 124 c 0
 314.5 108.667 322.5 101 338.5 101 c 0xa6
 369.833 101 410.833 123.333 461.5 168 c 1
 461.5 320 l 1
 387.5 258 341.5 205 323.5 161 c 0
EndSplineSet
Layer: 2
SplineSet
196 458 m 1,0,-1
 100 564 l 1,1,-1
 100 610 l 1,2,-1
 965 610 l 1,3,-1
 965 564 l 1,4,-1
 870 458 l 1,5,-1
 825 458 l 1,6,7
 802 508 802 508 751 530 c 0,8,9
 731 538 731 538 712.5 540 c 128,-1,10
 694 542 694 542 682 544 c 1,11,-1
 602 544 l 1,12,-1
 602 92 l 1,13,14
 604 65 604 65 619 56 c 128,-1,15
 634 47 634 47 647 46 c 1,16,-1
 647 0 l 1,17,-1
 417 0 l 1,18,-1
 417 46 l 1,19,-1
 425 46 l 1,20,21
 426 47 426 47 427 47 c 2,22,-1
 430 47 l 1,23,24
 458 58 458 58 458 74 c 0,25,26
 459 81 459 81 462 91 c 1,27,-1
 462 102 l 1,28,29
 374 24 374 24 293 -6 c 0,30,31
 266 -16 266 -16 245 -16 c 0,32,33
 195 -16 195 -16 195 36 c 0,34,35
 195 116 195 116 290 223 c 0,36,37
 323 260 323 260 369 306 c 0,38,39
 415 351 415 351 415 370 c 128,-1,40
 415 389 415 389 387 390 c 1,41,-1
 387 433 l 1,42,-1
 462 433 l 1,43,-1
 462 544 l 1,44,-1
 381 544 l 1,45,46
 289 537 289 537 256 485 c 0,47,48
 247 470 247 470 241 458 c 1,49,-1
 196 458 l 1,0,-1
462 320 m 1,50,51
 315 197 315 197 315 124 c 0,52,53
 315 101 315 101 339 101 c 0,54,55
 386 101 386 101 462 168 c 1,56,-1
 462 320 l 1,50,51
EndSplineSet
Validated: 1
Ligature2: "'ccmp' Cyrillic Ligatures-1" uni0410 uni200D uni0442
Ligature2: "'ccmp' Cyrillic Ligatures-1" uni0410 uni200D uni1C84
Colour: ffff00
EndChar

StartChar: uni0422042C
Encoding: 59369 59369 60
Width: 1067
GlyphClass: 3
Flags: HW
HStem: 0 60<603 758.841> 0 46<423 451.139> 189 59<603 681.829> 387 46<423 461.973 603.128 643> 458 152<197 253.73 814.145 871> 544 66<299.125 463 603 766.374>
VStem: 463 140<60.0014 189 243.139 383.085 433 544>
AnchorPoint: "Diacritic" 529 799 basechar 0
LayerCount: 3
Fore
SplineSet
197 458 m 1x3a
 101 564 l 1
 101 610 l 1
 966 610 l 1x36
 966 564 l 1
 871 458 l 1
 826 458 l 1x3a
 816.664 478 805.33 493.5 792 504.5 c 0
 778.667 515.5 765.333 523.833 752 529.5 c 0
 738.664 535.167 725.831 538.667 713.5 540 c 0
 701.167 541.333 691 542.667 683 544 c 1
 603 544 l 1
 603 433 l 1
 643 433 l 1
 643 387 l 1
 635.667 387 627.167 385.167 617.5 381.5 c 0
 607.833 377.83 603 371.664 603 363 c 2
 603 248 l 1
 625.667 243.333 653 236 685 226 c 0
 717 216 748.333 203 779 187 c 0
 809.668 171 836.835 151.667 860.5 129 c 0
 884.167 106.333 899 79.667 905 49 c 1
 905 41 l 2
 905 33 902.667 24.167 898 14.5 c 0
 893.333 4.83301 883.333 0 868 0 c 2
 423 0 l 1
 423 46 l 1
 434.333 46.667 443.833 49.5 451.5 54.5 c 0
 459.167 59.5 463 71.667 463 91 c 2
 463 359 l 2
 463 363.667 461.333 367.833 458 371.5 c 0
 454.667 375.167 450.833 378.167 446.5 380.5 c 0
 442.167 382.833 437.833 384.5 433.5 385.5 c 0
 429.167 386.5 425.667 387 423 387 c 1
 423 433 l 1
 463 433 l 1
 463 544 l 1
 382 544 l 1x76
 357.333 542 337 538 321 532 c 0
 305 526 291.833 519 281.5 511 c 0
 271.167 503 263 494.333 257 485 c 0
 251 475.667 246 466.667 242 458 c 1
 197 458 l 1x3a
603 60 m 1xb2
 738 60 l 2
 748.667 60 755.667 62 759 66 c 0
 762.333 70 764 73.333 764 76 c 0
 762.655 88 758.822 99.667 752.5 111 c 0
 746.167 122.333 736.667 133 724 143 c 0
 711.333 153 695.167 162 675.5 170 c 0
 655.833 178 631.667 184.333 603 189 c 1
 603 60 l 1xb2
EndSplineSet
Layer: 2
SplineSet
194 458 m 1,0,-1
 98 564 l 1,1,-1
 98 610 l 1,2,-1
 963 610 l 1,3,-1
 963 564 l 1,4,-1
 868 458 l 1,5,-1
 823 458 l 1,6,7
 800 508 800 508 749 530 c 0,8,9
 729 538 729 538 710.5 540 c 128,-1,10
 692 542 692 542 680 544 c 1,11,-1
 600 544 l 1,12,-1
 600 433 l 1,13,-1
 640 433 l 1,14,-1
 640 387 l 1,15,16
 629 387 629 387 614 382 c 0,17,18
 600 376 600 376 600 363 c 2,19,-1
 600 248 l 1,20,21
 770 213 770 213 858 129 c 0,22,23
 893 95 893 95 902 49 c 1,24,-1
 902 41 l 2,25,26
 902 29 902 29 895 14 c 0,27,28
 888 -0 888 -0 865 0 c 2,29,-1
 420 0 l 1,30,-1
 420 46 l 1,31,32
 437 47 437 47 448.5 54.5 c 128,-1,33
 460 62 460 62 460 91 c 2,34,-1
 460 359 l 2,35,36
 460 372 460 372 444 380 c 0,37,38
 431 387 431 387 420 387 c 1,39,-1
 420 433 l 1,40,-1
 460 433 l 1,41,-1
 460 544 l 1,42,-1
 379 544 l 1,43,44
 287 537 287 537 254 485 c 0,45,46
 245 470 245 470 239 458 c 1,47,-1
 194 458 l 1,0,-1
600 60 m 1,48,-1
 735 60 l 2,49,50
 751 60 751 60 756 66 c 128,-1,51
 761 72 761 72 761 76 c 0,52,53
 754 137 754 137 672 170 c 0,54,55
 643 182 643 182 600 189 c 1,56,-1
 600 60 l 1,48,-1
EndSplineSet
Validated: 1
Ligature2: "'ccmp' Cyrillic Ligatures-1" uni0422 uni200D uni042C
Ligature2: "'ccmp' Cyrillic Ligatures-1" uni0422 uni200D uni044C
Colour: ffff00
EndChar

StartChar: uni0442044C
Encoding: 59383 59383 61
Width: 925
GlyphClass: 3
Flags: HW
HStem: 0 60<514.5 676.341> 0 46<344.5 382.996> 190 60<514.5 596.15> 387 46<344.5 381.42 526.877 554.5> 477 133<173.5 213.5 675.822 725.5> 554 56<248.725 384.5 514.5 649.375>
VStem: 384.5 130<60.0114 190 245.139 376.171 433 554>
AnchorPoint: "Diacritic" 436.5 799 basechar 0
LayerCount: 3
Fore
SplineSet
384.5 350 m 2x76
 384.5 362.667 379.5 372 369.5 378 c 0
 359.5 384 351.167 387 344.5 387 c 1
 344.5 433 l 1
 384.5 433 l 1
 384.5 554 l 1
 313.5 554 l 2x76
 295.5 554 280.833 551.167 269.5 545.5 c 0
 258.167 539.833 248.667 533 241 525 c 0
 233.333 517 227.5 508.5 223.5 499.5 c 0
 217.5 486 217.5 486 213.5 477 c 1
 173.5 477 l 1x3a
 102.5 564 l 1
 102.5 610 l 1
 800.5 610 l 1x36
 800.5 564 l 1
 725.5 477 l 1
 685.5 477 l 1x3a
 678.833 494.334 671.167 508.168 662.5 518.5 c 0
 653.833 528.833 645 536.667 636 542 c 0
 627 547.333 618.167 550.667 609.5 552 c 0
 600.833 553.333 593.167 554 586.5 554 c 2
 514.5 554 l 1
 514.5 433 l 1
 554.5 433 l 1
 554.5 387 l 1
 543.833 387 534.5 383.5 526.5 376.5 c 0
 518.5 369.5 514.5 360.667 514.5 350 c 2
 514.5 250 l 1
 536.5 245.333 563.833 238 596.5 228 c 0
 629.167 218 661.167 205 692.5 189 c 0
 723.833 173 751.833 153.5 776.5 130.5 c 0
 801.167 107.5 816.5 80.333 822.5 49 c 1
 822.5 41 l 2
 822.5 33 820.167 24.167 815.5 14.5 c 0
 810.833 4.83301 800.833 0 785.5 0 c 2
 344.5 0 l 1
 344.5 46 l 1
 347.833 46 351.833 46.5 356.5 47.5 c 0
 361.167 48.5 365.5 50.167 369.5 52.5 c 0
 373.5 54.833 377 58 380 62 c 0
 383 66 384.5 71.333 384.5 78 c 2
 384.5 350 l 2x76
514.5 60 m 1xb2
 655.5 60 l 2
 666.167 60 673.167 62 676.5 66 c 0
 679.833 70 681.5 73.333 681.5 76 c 0
 680.156 88 676.323 99.833 670 111.5 c 0
 663.665 123.167 653.832 134 640.5 144 c 0
 627.167 154 610.167 163 589.5 171 c 0
 568.833 179 543.833 185.333 514.5 190 c 1
 514.5 60 l 1xb2
EndSplineSet
Layer: 2
SplineSet
683 477 m 1,0,1
 653 554 653 554 584 554 c 2,2,-1
 512 554 l 1,3,-1
 512 433 l 1,4,-1
 552 433 l 1,5,-1
 552 387 l 1,6,7
 536 387 536 387 524 376.5 c 128,-1,8
 512 366 512 366 512 350 c 2,9,-1
 512 250 l 1,10,11
 685 213 685 213 774 130 c 0,12,13
 811 96 811 96 820 49 c 1,14,-1
 820 41 l 2,15,16
 820 29 820 29 813 14 c 0,17,18
 806 -0 806 -0 783 0 c 2,19,-1
 342 0 l 1,20,-1
 342 46 l 1,21,22
 366 46 366 46 378 62 c 0,23,24
 382 68 382 68 382 78 c 2,25,-1
 382 350 l 2,26,27
 382 369 382 369 367 378 c 128,-1,28
 352 387 352 387 342 387 c 1,29,-1
 342 433 l 1,30,-1
 382 433 l 1,31,-1
 382 554 l 1,32,-1
 311 554 l 2,33,34
 265 554 265 554 238 525 c 0,35,36
 227 513 227 513 221 500 c 2,37,-1
 211 477 l 1,38,-1
 171 477 l 1,39,-1
 100 564 l 1,40,-1
 100 610 l 1,41,-1
 798 610 l 1,42,-1
 798 564 l 1,43,-1
 723 477 l 1,44,-1
 683 477 l 1,0,1
512 60 m 1,45,-1
 653 60 l 2,46,47
 669 60 669 60 674 66 c 128,-1,48
 679 72 679 72 679 76 c 0,49,50
 672 138 672 138 587 171 c 0,51,52
 556 183 556 183 512 190 c 1,53,-1
 512 60 l 1,45,-1
EndSplineSet
Validated: 1
Ligature2: "'ccmp' Cyrillic Ligatures-1" uni0442 uni200D uni044C
Ligature2: "'ccmp' Cyrillic Ligatures-1" uni1C84 uni200D uni044C
Colour: ffff00
EndChar

StartChar: uni04420430
Encoding: 59373 59373 62
Width: 1323
GlyphClass: 3
Flags: W
HStem: -16 117<690.229 824> 0 46<346 384.256 531.406 556 974 1011.77 1176.32 1223> 244 60<516 769> 390 43<818 850.927> 477 133<175 224.678 687 727> 554 56<251.125 386 516 651.775>
VStem: 386 130<53.1908 244 304 554> 662 120<14.9766 134.333>
DStem2: 988 433 895 322 0.457069 -0.889431<56.2195 197.54 248.485 332.86>
AnchorPoint: "Diacritic" 442 800 basechar 0
LayerCount: 3
Fore
SplineSet
957 201 m 1xb3
 895 322 l 1
 862.333 281.333 835.333 243.333 814 208 c 0
 792.667 172.667 782 144.667 782 124 c 0
 782 108.667 790 101 806 101 c 0
 842 101 893 132.667 959 196 c 1
 957 201 l 1xb3
687 477 m 1x3b
 683 486 683 486 677 499.5 c 0
 673 508.5 667.167 517 659.5 525 c 0
 651.833 533 642.333 539.833 631 545.5 c 0
 619.667 551.167 605 554 587 554 c 2
 516 554 l 1
 516 304 l 1
 817 304 l 1
 839.667 331.333 851 352.333 851 367 c 0
 851 380.333 840 388 818 390 c 1
 818 433 l 1
 988 433 l 1
 1173 73 l 2
 1182.33 55.6667 1199 46.6667 1223 46 c 1
 1223 0 l 1
 974 0 l 1
 974 46 l 1x77
 999.333 47.3333 1012 55.6667 1012 71 c 0
 1012 73 1011.83 75 1011.5 77 c 0
 1011.17 79 1010.67 81.3333 1010 84 c 2
 979 149 l 1
 961.663 131 941.33 112.167 918 92.5 c 0
 894.667 72.8333 870.667 55 846 39 c 0
 821.333 23 797.333 9.83333 774 -0.5 c 0
 750.667 -10.8333 730 -16 712 -16 c 0xb3
 678.667 -16 662 1.33333 662 36 c 0
 662 66.6667 671.667 98.1667 691 130.5 c 0
 710.333 162.833 736.333 200.667 769 244 c 1
 516 244 l 1
 516 78 l 1
 517.333 65.3333 522.333 57 531 53 c 0
 539.667 49 548 46.6667 556 46 c 1
 556 0 l 1
 346 0 l 1
 346 46 l 1
 354.667 46 363.5 48.6667 372.5 54 c 0
 381.5 59.3333 386 67.6667 386 79 c 2
 386 554 l 1
 314 554 l 2x77
 307.332 554 299.666 553.333 291 552 c 0
 282.333 550.65 273.5 547.317 264.5 542 c 0
 255.5 536.663 246.667 528.829 238 518.5 c 0
 229.333 508.167 221.667 494.333 215 477 c 1
 175 477 l 1x3b
 100 564 l 1
 100 610 l 1
 798 610 l 1x37
 798 564 l 1
 727 477 l 1
 687 477 l 1x3b
EndSplineSet
Validated: 1
Layer: 2
SplineSet
895 322 m 1,0,1
 782 181 782 181 782 124 c 0,2,3
 782 101 782 101 806 101 c 0,4,5
 860 101 860 101 959 196 c 1,6,-1
 895 322 l 1,0,1
314 554 m 2,7,8
 245 554 245 554 215 477 c 1,9,-1
 175 477 l 1,10,-1
 100 564 l 1,11,-1
 100 610 l 1,12,-1
 798 610 l 1,13,-1
 798 564 l 1,14,-1
 727 477 l 1,15,-1
 687 477 l 1,16,-1
 677 500 l 2,17,18
 664 529 664 529 631 546 c 0,19,20
 614 554 614 554 587 554 c 2,21,-1
 516 554 l 1,22,-1
 516 304 l 1,23,-1
 817 304 l 1,24,25
 851 345 851 345 851 367 c 0,26,27
 851 387 851 387 818 390 c 1,28,-1
 818 433 l 1,29,-1
 988 433 l 1,30,-1
 1173 73 l 2,31,32
 1187 47 1187 47 1223 46 c 1,33,-1
 1223 0 l 1,34,-1
 974 0 l 1,35,-1
 974 46 l 1,36,37
 1012 48 1012 48 1012 71 c 0,38,39
 1012 76 1012 76 1010 84 c 1,40,-1
 979 149 l 1,41,42
 880 47 880 47 774 -0 c 0,43,44
 739 -16 739 -16 712 -16 c 0,45,46
 662 -16 662 -16 662 36 c 0,47,48
 662 82 662 82 691 130 c 0,49,50
 720 179 720 179 769 244 c 1,51,-1
 516 244 l 1,52,-1
 516 78 l 1,53,54
 519 49 519 49 556 46 c 1,55,-1
 556 0 l 1,56,-1
 346 0 l 1,57,-1
 346 46 l 1,58,59
 359 46 359 46 372.5 54 c 128,-1,60
 386 62 386 62 386 79 c 2,61,-1
 386 554 l 1,62,-1
 314 554 l 2,7,8
EndSplineSet
Validated: 1
Ligature2: "'ccmp' Cyrillic Ligatures-1" uni1C84 uni200D uni0430
Ligature2: "'ccmp' Cyrillic Ligatures-1" uni0442 uni200D uni0430
Colour: ffff00
EndChar

StartChar: uni0307
Encoding: 775 775 63
Width: 0
GlyphClass: 4
Flags: W
HStem: 539 123<-239.137 -145.2>
VStem: -254 124<553.77 647.137>
AnchorPoint: "Stacking" -190 770 basemark 0
AnchorPoint: "Stacking" -192 531.7 mark 0
AnchorPoint: "Diacritic" -190 532 mark 0
LayerCount: 3
Fore
SplineSet
-192 539 m 256
 -227 539 -254 566 -254 600 c 256
 -254 635 -227 662 -192 662 c 256
 -158 662 -130 635 -130 600 c 256
 -130 566 -158 539 -192 539 c 256
EndSplineSet
Validated: 1
Layer: 2
SplineSet
-192 539 m 256,0,1
 -218 539 -218 539 -236 556.5 c 128,-1,2
 -254 574 -254 574 -254 600 c 128,-1,3
 -254 626 -254 626 -236 644 c 128,-1,4
 -218 662 -218 662 -192 662 c 128,-1,5
 -166 662 -166 662 -148 644 c 128,-1,6
 -130 626 -130 626 -130 600.5 c 128,-1,7
 -130 575 -130 575 -148 557 c 128,-1,8
 -166 539 -166 539 -192 539 c 256,0,1
EndSplineSet
Validated: 1
EndChar

StartChar: uni030A
Encoding: 778 778 64
Width: 0
GlyphClass: 4
Flags: W
HStem: 493 58<-245.328 -153.565> 685 55<-245.778 -153.226>
VStem: -324 61<568.211 668.16> -137 65<567.196 669.147>
AnchorPoint: "Stacking" -196 800 basemark 0
AnchorPoint: "Stacking" -195 487.7 mark 0
AnchorPoint: "Diacritic" -196 490 mark 0
LayerCount: 3
Fore
SplineSet
-200 551 m 0
 -163 551 -137 582 -137 618 c 0
 -137 655 -163 685 -200 685 c 0
 -235 685 -263 654 -263 618 c 0
 -263 583 -235 551 -200 551 c 0
-324 615 m 0
 -324 673 -289 712 -248 730 c 0
 -233 737 -216 740 -198 740 c 0
 -141 740 -100 703 -82 662 c 0
 -75 647 -72 632 -72 615 c 0
 -72 557 -108 520 -150 502 c 0
 -165 496 -181 493 -198 493 c 0
 -256 493 -297 526 -314 567 c 0
 -321 582 -324 598 -324 615 c 0
EndSplineSet
Validated: 1
Layer: 2
SplineSet
-244.5 571 m 128,-1,1
 -226 551 -226 551 -199.5 551 c 128,-1,2
 -173 551 -173 551 -155 570.5 c 128,-1,3
 -137 590 -137 590 -137 618 c 128,-1,4
 -137 646 -137 646 -155 665.5 c 128,-1,5
 -173 685 -173 685 -199.5 685 c 128,-1,6
 -226 685 -226 685 -244.5 665 c 128,-1,7
 -263 645 -263 645 -263 618 c 128,-1,0
 -263 591 -263 591 -244.5 571 c 128,-1,1
-314 567 m 1,8,9
 -324 588 -324 588 -324 622 c 128,-1,10
 -324 656 -324 656 -302 686 c 0,11,12
 -263 740 -263 740 -198 740 c 0,13,14
 -158 740 -158 740 -128 718 c 0,15,16
 -72 677 -72 677 -72 615 c 0,17,18
 -72 535 -72 535 -150 502 c 0,19,20
 -172 493 -172 493 -206 493 c 128,-1,21
 -240 493 -240 493 -270.5 513.5 c 128,-1,22
 -301 534 -301 534 -314 567 c 1,8,9
EndSplineSet
Validated: 1
EndChar

StartChar: uni0308
Encoding: 776 776 65
Width: 0
GlyphClass: 4
Flags: W
HStem: 539 123<-416.23 -323.2 -85.2296 7.79974>
VStem: -431 123<553.77 646.8> -100 123<553.77 646.8>
AnchorPoint: "Stacking" -202 760 basemark 0
AnchorPoint: "Stacking" -204 531.7 mark 0
AnchorPoint: "Diacritic" -204 531 mark 0
LayerCount: 3
Fore
SplineSet
-39 539 m 256
 -73 539 -100 566 -100 600 c 256
 -100 634 -73 662 -39 662 c 256
 -5 662 23 634 23 600 c 256
 23 566 -5 539 -39 539 c 256
-370 539 m 256
 -404 539 -431 566 -431 600 c 256
 -431 634 -404 662 -370 662 c 256
 -336 662 -308 634 -308 600 c 256
 -308 566 -336 539 -370 539 c 256
EndSplineSet
Validated: 1
Layer: 2
SplineSet
-39 539 m 260,0,1
 -64 539 -64 539 -82 556.5 c 132,-1,2
 -100 574 -100 574 -100 600 c 132,-1,3
 -100 626 -100 626 -82 644 c 132,-1,4
 -64 662 -64 662 -39 662 c 132,-1,5
 -14 662 -14 662 4.5 644 c 132,-1,6
 23 626 23 626 23 600.5 c 132,-1,7
 23 575 23 575 5 557 c 132,-1,8
 -13 539 -13 539 -39 539 c 260,0,1
-370 539 m 260,9,10
 -396 539 -396 539 -413.5 556.5 c 132,-1,11
 -431 574 -431 574 -431 600 c 132,-1,12
 -431 626 -431 626 -413 644 c 132,-1,13
 -395 662 -395 662 -369.5 662 c 132,-1,14
 -344 662 -344 662 -326 644 c 132,-1,15
 -308 626 -308 626 -308 600.5 c 132,-1,16
 -308 575 -308 575 -326 557 c 132,-1,17
 -344 539 -344 539 -370 539 c 260,9,10
EndSplineSet
Validated: 1
EndChar

StartChar: uni0313
Encoding: 787 787 66
Width: 0
GlyphClass: 4
Flags: W
HStem: 615 126<-256.116 -203.468>
VStem: -202 70<583.711 621.906>
AnchorPoint: "Stacking" -200 814 basemark 0
AnchorPoint: "Stacking" -205 474.7 mark 0
AnchorPoint: "Diacritic" -204 474 mark 0
LayerCount: 3
Fore
SplineSet
-200 741 m 0
 -150 741 -132 700 -132 645 c 0
 -132 613 -158 575 -174 552 c 0
 -191 527 -221 489 -251 484 c 1
 -279 511 l 1
 -255 516 -229 548 -202 607 c 1
 -202 613 l 2
 -202 617 -202 620 -203 622 c 1
 -213 619 -222 615 -234 615 c 0
 -261 615 -276 651 -276 681 c 1
 -273 716 -238 741 -200 741 c 0
EndSplineSet
Validated: 1
Layer: 2
SplineSet
-200 741 m 0,0,1
 -132 741 -132 741 -132 645 c 0,2,3
 -132 612 -132 612 -174 551 c 128,-1,4
 -216 490 -216 490 -251 484 c 1,5,-1
 -279 511 l 1,6,7
 -242 519 -242 519 -202 607 c 1,8,-1
 -202 613 l 2,9,10
 -202 620 -202 620 -203 622 c 1,11,12
 -226 615 -226 615 -234 615 c 0,13,14
 -251 615 -251 615 -264 636 c 0,15,16
 -275 654 -275 654 -275 677 c 0,17,18
 -275 706 -275 706 -252 724 c 0,19,20
 -229 741 -229 741 -200 741 c 0,0,1
EndSplineSet
Validated: 1
EndChar

StartChar: uni031B
Encoding: 795 795 67
Width: 0
GlyphClass: 4
Flags: W
HStem: 659 111<-247.422 -177.701>
VStem: -177 55<593.929 665.907>
AnchorPoint: "Stacking" -196 842 basemark 0
AnchorPoint: "Stacking" -199 475.7 mark 0
AnchorPoint: "Diacritic" -198 476 mark 0
LayerCount: 3
Fore
SplineSet
-203 770 m 0
 -155 770 -122 726 -122 675 c 0
 -122 608 -149 576 -186 540 c 0
 -204 524 -225 505 -251 482 c 1
 -277 514 l 1
 -210 569 -177 614 -177 651 c 2
 -177 659 l 2
 -177 663 -176 664 -177 666 c 1
 -187 663 -197 659 -209 659 c 0
 -241 659 -261 681 -261 713 c 0
 -261 744 -234 770 -203 770 c 0
EndSplineSet
Validated: 1
Layer: 2
SplineSet
-243.5 753 m 128,-1,1
 -226 770 -226 770 -197 770 c 128,-1,2
 -168 770 -168 770 -145 742 c 128,-1,3
 -122 714 -122 714 -122 671.5 c 128,-1,4
 -122 629 -122 629 -137.5 600.5 c 128,-1,5
 -153 572 -153 572 -172 554 c 0,6,7
 -215 513 -215 513 -251 482 c 1,8,-1
 -277 514 l 1,9,10
 -177 596 -177 596 -177 651 c 2,11,-1
 -177 666 l 1,12,13
 -200 659 -200 659 -216.5 659 c 128,-1,14
 -233 659 -233 659 -247 674 c 128,-1,15
 -261 689 -261 689 -261 712.5 c 128,-1,0
 -261 736 -261 736 -243.5 753 c 128,-1,1
EndSplineSet
Validated: 1
EndChar

StartChar: uni0309
Encoding: 777 777 68
Width: 0
GlyphClass: 4
Flags: W
HStem: 687 52<-303 -154.999>
VStem: -155 55<616 686.906>
AnchorPoint: "Stacking" -194 800 basemark 0
AnchorPoint: "Stacking" -205 497.7 mark 0
AnchorPoint: "Diacritic" -206 498 mark 0
LayerCount: 3
Fore
SplineSet
-229 503 m 1
 -255 535 l 1
 -188 590 -155 635 -155 672 c 2
 -155 678 l 2
 -155 682 -154 685 -155 687 c 1
 -303 687 l 1
 -303 739 l 1
 -100 739 l 1
 -100 694 l 2
 -100 627 -127 597 -164 562 c 0
 -182 545 -203 526 -229 503 c 1
EndSplineSet
Validated: 1
Layer: 2
SplineSet
-155 672 m 2,0,-1
 -155 687 l 1,1,-1
 -303 687 l 1,2,-1
 -303 739 l 1,3,-1
 -100 739 l 1,4,-1
 -100 694 l 2,5,6
 -100 648 -100 648 -115.5 620.5 c 128,-1,7
 -131 593 -131 593 -160 565.5 c 128,-1,8
 -189 538 -189 538 -229 503 c 1,9,-1
 -255 535 l 1,10,11
 -155 617 -155 617 -155 672 c 2,0,-1
EndSplineSet
Validated: 1
EndChar

StartChar: uni0301
Encoding: 769 769 69
Width: 0
GlyphClass: 4
Flags: W
HStem: 497 240
VStem: -296 249
AnchorPoint: "Stacking" -178.5 800.3 basemark 0
AnchorPoint: "Stacking" -198 479.7 mark 0
AnchorPoint: "Diacritic" -198 480 mark 0
LayerCount: 3
Fore
SplineSet
-296 527 m 1
 -104 737 l 1
 -47 679 l 1
 -265 497 l 1
 -296 527 l 1
EndSplineSet
Validated: 1
Layer: 2
SplineSet
-296 527 m 1,0,-1
 -104 737 l 1,1,-1
 -47 679 l 1,2,-1
 -265 497 l 1,3,-1
 -296 527 l 1,0,-1
EndSplineSet
Validated: 1
EndChar

StartChar: uni030B
Encoding: 779 779 70
Width: 0
GlyphClass: 4
Flags: W
HStem: 496 240
AnchorPoint: "Stacking" -80 802 basemark 0
AnchorPoint: "Stacking" -217 485.7 mark 0
AnchorPoint: "Diacritic" -216 486 mark 0
LayerCount: 3
Fore
SplineSet
-369 526 m 1
 -176 736 l 1
 -119 678 l 1
 -337 496 l 1
 -369 526 l 1
-180 526 m 1
 13 735 l 1
 70 677 l 1
 -149 496 l 1
 -180 526 l 1
EndSplineSet
Validated: 1
Layer: 2
SplineSet
-369 526 m 1,0,-1
 -176 736 l 1,1,-1
 -119 678 l 1,2,-1
 -337 496 l 1,3,-1
 -369 526 l 1,0,-1
-180 526 m 1,4,-1
 13 735 l 1,5,-1
 70 677 l 1,6,-1
 -149 496 l 1,7,-1
 -180 526 l 1,4,-1
EndSplineSet
Validated: 1
EndChar

StartChar: uni0300
Encoding: 768 768 71
Width: 0
GlyphClass: 4
Flags: W
HStem: 497 240
VStem: -343 250
AnchorPoint: "Stacking" -185 800.3 basemark 0
AnchorPoint: "Stacking" -121 489.7 mark 0
AnchorPoint: "Diacritic" -120 490 mark 0
LayerCount: 3
Fore
SplineSet
-125 497 m 1
 -343 679 l 1
 -286 737 l 1
 -93 527 l 1
 -125 497 l 1
EndSplineSet
Validated: 1
Layer: 2
SplineSet
-125 497 m 1,0,-1
 -343 679 l 1,1,-1
 -286 737 l 1,2,-1
 -93 527 l 1,3,-1
 -125 497 l 1,0,-1
EndSplineSet
Validated: 1
EndChar

StartChar: uni030F
Encoding: 783 783 72
Width: 0
GlyphClass: 4
Flags: W
HStem: 498 240
AnchorPoint: "Stacking" -226 800 basemark 0
AnchorPoint: "Stacking" -139 489.7 mark 0
AnchorPoint: "Diacritic" -140 490 mark 0
LayerCount: 3
Fore
SplineSet
-246 498 m 1
 -465 680 l 1
 -408 738 l 1
 -215 529 l 1
 -246 498 l 1
-58 498 m 1
 -276 681 l 1
 -219 739 l 1
 -26 529 l 1
 -58 498 l 1
EndSplineSet
Validated: 1
Layer: 2
SplineSet
-246 498 m 1,0,-1
 -465 680 l 1,1,-1
 -408 738 l 1,2,-1
 -215 529 l 1,3,-1
 -246 498 l 1,0,-1
-58 498 m 1,4,-1
 -276 681 l 1,5,-1
 -219 739 l 1,6,-1
 -26 529 l 1,7,-1
 -58 498 l 1,4,-1
EndSplineSet
Validated: 1
EndChar

StartChar: uni030D
Encoding: 781 781 73
Width: 0
GlyphClass: 4
Flags: W
HStem: 499 286<-223 -177>
VStem: -223 46<499 599.1>
AnchorPoint: "Stacking" -196 878 basemark 0
AnchorPoint: "Stacking" -195 495.7 mark 0
AnchorPoint: "Diacritic" -198 496 mark 0
LayerCount: 3
Fore
SplineSet
-223 499 m 1
 -243 785 l 1
 -157 785 l 1
 -177 499 l 1
 -223 499 l 1
EndSplineSet
Validated: 1
Layer: 2
SplineSet
-223 499 m 1,0,-1
 -243 785 l 1,1,-1
 -157 785 l 1,2,-1
 -177 499 l 1,3,-1
 -223 499 l 1,0,-1
EndSplineSet
Validated: 1
EndChar

StartChar: uni030E
Encoding: 782 782 74
Width: 0
GlyphClass: 4
Flags: W
HStem: 497 286<-305 -259 -146 -101>
VStem: -305 46<497 597.1> -146 45<497 597.1>
AnchorPoint: "Stacking" -206 892 basemark 0
AnchorPoint: "Stacking" -205 489.7 mark 0
AnchorPoint: "Diacritic" -206 492 mark 0
LayerCount: 3
Fore
SplineSet
-305 497 m 1
 -325 783 l 1
 -239 783 l 1
 -259 497 l 1
 -305 497 l 1
-146 497 m 1
 -166 783 l 1
 -81 783 l 1
 -101 497 l 1
 -146 497 l 1
EndSplineSet
Validated: 1
Layer: 2
SplineSet
-305 497 m 1,0,-1
 -325 783 l 1,1,-1
 -239 783 l 1,2,-1
 -259 497 l 1,3,-1
 -305 497 l 1,0,-1
-146 497 m 1,4,-1
 -166 783 l 1,5,-1
 -81 783 l 1,6,-1
 -101 497 l 1,7,-1
 -146 497 l 1,4,-1
EndSplineSet
Validated: 1
EndChar

StartChar: uni0304
Encoding: 772 772 75
Width: 0
GlyphClass: 4
Flags: W
HStem: 539 61<-346 -56>
VStem: -346 290<539 600>
AnchorPoint: "Stacking" -197 689 basemark 0
AnchorPoint: "Stacking" -197 538.7 mark 0
AnchorPoint: "Diacritic" -197 539 mark 0
LayerCount: 3
Fore
SplineSet
-346 600 m 1
 -56 600 l 1
 -56 539 l 1
 -346 539 l 1
 -346 600 l 1
EndSplineSet
Validated: 1
Layer: 2
SplineSet
-346 600 m 1,0,-1
 -56 600 l 1,1,-1
 -56 539 l 1,2,-1
 -346 539 l 1,3,-1
 -346 600 l 1,0,-1
EndSplineSet
Validated: 1
EndChar

StartChar: uni0305
Encoding: 773 773 76
Width: 0
GlyphClass: 4
Flags: W
HStem: 539 61<-435 19>
AnchorPoint: "Stacking" -221 714 basemark 0
AnchorPoint: "Stacking" -221 537.7 mark 0
AnchorPoint: "Diacritic" -221 538 mark 0
LayerCount: 3
Fore
SplineSet
-435 600 m 1
 19 600 l 1
 19 539 l 1
 -435 539 l 1
 -435 600 l 1
EndSplineSet
Validated: 1
Layer: 2
SplineSet
-435 600 m 1,0,-1
 19 600 l 1,1,-1
 19 539 l 1,2,-1
 -435 539 l 1,3,-1
 -435 600 l 1,0,-1
EndSplineSet
Validated: 1
EndChar

StartChar: uni033F
Encoding: 831 831 77
Width: 0
GlyphClass: 4
Flags: W
HStem: 548 61<-514 -60> 668 61<-514 -60>
AnchorPoint: "Stacking" -286 802 basemark 0
AnchorPoint: "Stacking" -286 539.7 mark 0
AnchorPoint: "Diacritic" -286 540 mark 0
LayerCount: 3
Fore
SplineSet
-514 609 m 1
 -60 609 l 1
 -60 548 l 1
 -514 548 l 1
 -514 609 l 1
-514 729 m 1
 -60 729 l 1
 -60 668 l 1
 -514 668 l 1
 -514 729 l 1
EndSplineSet
Validated: 1
Layer: 2
SplineSet
-514 609 m 1,0,-1
 -60 609 l 1,1,-1
 -60 548 l 1,2,-1
 -514 548 l 1,3,-1
 -514 609 l 1,0,-1
-514 729 m 1,4,-1
 -60 729 l 1,5,-1
 -60 668 l 1,6,-1
 -514 668 l 1,7,-1
 -514 729 l 1,4,-1
EndSplineSet
Validated: 1
EndChar

StartChar: uni2E43
Encoding: 11843 11843 78
Width: 836
Flags: W
HStem: 180 31<593.187 789>
LayerCount: 3
Fore
SplineSet
102 328 m 0
 102 363 152 369 188 369 c 0
 208 369 233 367 247 363 c 1
 253 319 263 289 292 268 c 0
 329 240 381 231 447 224 c 0
 551 213 661 211 789 211 c 1
 831 180 l 1
 819 180 l 2
 754 180 660 174 581 174 c 0
 425 174 263 186 165 244 c 0
 133 264 113 288 104 318 c 0
 103 323 102 327 102 328 c 0
EndSplineSet
Validated: 1
Layer: 2
SplineSet
104 318 m 1,0,-1
 102 328 l 1,1,2
 102 369 102 369 188 369 c 0,3,4
 226 369 226 369 247 363 c 1,5,6
 256 294 256 294 295 265 c 128,-1,7
 334 236 334 236 452 223.5 c 128,-1,8
 570 211 570 211 789 211 c 1,9,-1
 831 180 l 1,10,-1
 819 180 l 1,11,-1
 581 174 l 1,12,13
 147 174 147 174 104 318 c 1,0,-1
EndSplineSet
Validated: 1
EndChar

StartChar: uni203C
Encoding: 8252 8252 79
Width: 471
Flags: W
HStem: 0 100<89 189 282 382>
VStem: 85 109<0 100 458.741 716> 278 109<0 100 458.741 716>
LayerCount: 3
Fore
SplineSet
387 557 m 1
 362 178 l 1
 305 178 l 1
 278 557 l 1
 278 716 l 1
 387 716 l 1
 387 557 l 1
194 557 m 1
 169 178 l 1
 112 178 l 1
 85 557 l 1
 85 716 l 1
 194 716 l 1
 194 557 l 1
382 0 m 1
 282 0 l 1
 282 100 l 1
 382 100 l 1
 382 0 l 1
189 0 m 1
 89 0 l 1
 89 100 l 1
 189 100 l 1
 189 0 l 1
EndSplineSet
Validated: 1
Layer: 2
SplineSet
387 557 m 1,0,-1
 362 178 l 1,1,-1
 305 178 l 1,2,-1
 278 557 l 1,3,-1
 278 716 l 1,4,-1
 387 716 l 1,5,-1
 387 557 l 1,0,-1
194 557 m 1,6,-1
 169 178 l 1,7,-1
 112 178 l 1,8,-1
 85 557 l 1,9,-1
 85 716 l 1,10,-1
 194 716 l 1,11,-1
 194 557 l 1,6,-1
382 0 m 1,12,-1
 282 0 l 1,13,-1
 282 100 l 1,14,-1
 382 100 l 1,15,-1
 382 0 l 1,12,-1
189 0 m 1,16,-1
 89 0 l 1,17,-1
 89 100 l 1,18,-1
 189 100 l 1,19,-1
 189 0 l 1,16,-1
EndSplineSet
Validated: 1
EndChar

StartChar: uni2031
Encoding: 8241 8241 80
Width: 1330
Flags: W
HStem: -27 61<469.599 557.36 798.599 886.36 1126.23 1214.36> 289 61<467.849 557.179 797.149 886.179 1125.15 1214.18> 345 62<114.599 202.36> 662 60<112.849 202.179>
VStem: 18 72<432.545 636.249> 226 72<431.716 637.847> 373 72<60.0454 263.083> 581 72<59.2159 264.387> 702 72<60.0454 262.122> 910 72<59.2159 264.387> 1030 72<60.0454 262.122> 1238 72<59.2159 264.387>
DStem2: 157 -25 222 -25 0.362625 0.931935<23.5707 807.996>
LayerCount: 3
Fore
SplineSet
514 728 m 1x9ff0
 222 -25 l 1
 157 -25 l 1
 450 728 l 1
 514 728 l 1x9ff0
157 722 m 256
 203 722 238 706 262 674 c 0
 286 642 298 596.667 298 538 c 0
 298 409.333 251.333 345 158 345 c 0xbff0
 112 345 77.1667 361.167 53.5 393.5 c 0
 29.8333 425.833 18 473.333 18 536 c 0
 18 596 29.6667 642 53 674 c 0
 76.3333 706 111 722 157 722 c 256
160 407 m 0
 204 407 226 449.333 226 534 c 0
 226 619.333 203.333 662 158 662 c 0
 136 662 119.167 652.5 107.5 633.5 c 0
 95.8333 614.5 90 581 90 533 c 0
 90 449 113.333 407 160 407 c 0
841 350 m 256xdff0
 887 350 922 334 946 302 c 0
 970 270 982 224.667 982 166 c 0
 982 37.3333 935.333 -27 842 -27 c 0
 796 -27 761.167 -10.8333 737.5 21.5 c 0
 713.833 53.8333 702 101.333 702 164 c 0
 702 222.667 713.667 268.333 737 301 c 0
 760.333 333.667 795 350 841 350 c 256xdff0
844 34 m 0
 888 34 910 76.3333 910 161 c 0
 910 246.333 887.333 289 842 289 c 0
 820.667 289 804 279.5 792 260.5 c 0
 780 241.5 774 208 774 160 c 0
 774 76 797.333 34 844 34 c 0
512 350 m 256
 558 350 593 334 617 302 c 0
 641 270 653 224.667 653 166 c 0
 653 37.3333 606.333 -27 513 -27 c 0
 467 -27 432.167 -10.8333 408.5 21.5 c 0
 384.833 53.8333 373 101.333 373 164 c 0
 373 222.667 384.667 268.333 408 301 c 0
 431.333 333.667 466 350 512 350 c 256
515 34 m 0
 559 34 581 76.3333 581 161 c 0
 581 246.333 558.333 289 513 289 c 0
 491 289 474.167 279.5 462.5 260.5 c 0
 450.833 241.5 445 208 445 160 c 0
 445 76 468.333 34 515 34 c 0
1169 350 m 256
 1215 350 1250 334 1274 302 c 0
 1298 270 1310 224.667 1310 166 c 0
 1310 37.3333 1263.33 -27 1170 -27 c 0
 1125.33 -27 1090.83 -10.8333 1066.5 21.5 c 0
 1042.17 53.8333 1030 101.333 1030 164 c 0
 1030 222.667 1041.67 268.333 1065 301 c 0
 1088.33 333.667 1123 350 1169 350 c 256
1172 34 m 0
 1216 34 1238 76.3333 1238 161 c 0
 1238 246.333 1215.33 289 1170 289 c 0
 1148.67 289 1132 279.5 1120 260.5 c 0
 1108 241.5 1102 208 1102 160 c 0
 1102 76 1125.33 34 1172 34 c 0
EndSplineSet
Validated: 1
Layer: 2
SplineSet
514 728 m 1,0,-1
 222 -25 l 1,1,-1
 157 -25 l 1,2,-1
 450 728 l 1,3,-1
 514 728 l 1,0,-1
157 722 m 256,4,5
 226 722 226 722 262 674 c 128,-1,6
 298 626 298 626 298 538 c 0,7,8
 298 345 298 345 158 345 c 0,9,10
 89 345 89 345 53.5 393.5 c 128,-1,11
 18 442 18 442 18 534 c 128,-1,12
 18 626 18 626 53 674 c 128,-1,13
 88 722 88 722 157 722 c 256,4,5
160 407 m 0,14,15
 226 407 226 407 226 534.5 c 128,-1,16
 226 662 226 662 158 662 c 0,17,18
 125 662 125 662 107.5 633.5 c 128,-1,19
 90 605 90 605 90 533 c 0,20,21
 90 407 90 407 160 407 c 0,14,15
841 350 m 256,22,23
 910 350 910 350 946 302 c 128,-1,24
 982 254 982 254 982 166 c 0,25,26
 982 -27 982 -27 842 -27 c 1,27,28
 773 -27 773 -27 737.5 21.5 c 128,-1,29
 702 70 702 70 702 161 c 128,-1,30
 702 252 702 252 737 301 c 128,-1,31
 772 350 772 350 841 350 c 256,22,23
844 34 m 0,32,33
 910 34 910 34 910 161 c 0,34,35
 910 289 910 289 842 289 c 0,36,37
 810 289 810 289 792 260.5 c 128,-1,38
 774 232 774 232 774 160 c 0,39,40
 774 34 774 34 844 34 c 0,32,33
512 350 m 256,41,42
 581 350 581 350 617 302 c 128,-1,43
 653 254 653 254 653 166 c 0,44,45
 653 -27 653 -27 513 -27 c 1,46,47
 444 -27 444 -27 408.5 21.5 c 128,-1,48
 373 70 373 70 373 161 c 128,-1,49
 373 252 373 252 408 301 c 128,-1,50
 443 350 443 350 512 350 c 256,41,42
515 34 m 0,51,52
 581 34 581 34 581 161 c 0,53,54
 581 289 581 289 513 289 c 0,55,56
 480 289 480 289 462.5 260.5 c 128,-1,57
 445 232 445 232 445 160 c 0,58,59
 445 34 445 34 515 34 c 0,51,52
1169 350 m 256,60,61
 1238 350 1238 350 1274 302 c 128,-1,62
 1310 254 1310 254 1310 166 c 0,63,64
 1310 -27 1310 -27 1170 -27 c 1,65,66
 1105 -27 1105 -27 1067 22 c 0,67,68
 1030 70 1030 70 1030 161 c 128,-1,69
 1030 252 1030 252 1065 301 c 128,-1,70
 1100 350 1100 350 1169 350 c 256,60,61
1172 34 m 0,71,72
 1238 34 1238 34 1238 161 c 0,73,74
 1238 289 1238 289 1170 289 c 0,75,76
 1138 289 1138 289 1120 260.5 c 128,-1,77
 1102 232 1102 232 1102 160 c 0,78,79
 1102 34 1102 34 1172 34 c 0,71,72
EndSplineSet
Validated: 1
EndChar

StartChar: uni2032
Encoding: 8242 8242 81
Width: 222
Flags: W
HStem: 462 254
VStem: 46 146
LayerCount: 3
Fore
SplineSet
192 716 m 1
 86 462 l 1
 46 462 l 1
 98 716 l 1
 192 716 l 1
EndSplineSet
Validated: 1
Layer: 2
SplineSet
192 716 m 1,0,-1
 86 462 l 1,1,-1
 46 462 l 1,2,-1
 98 716 l 1,3,-1
 192 716 l 1,0,-1
EndSplineSet
Validated: 1
EndChar

StartChar: uni2033
Encoding: 8243 8243 82
Width: 372
Flags: W
HStem: 462 254
VStem: 46 296
LayerCount: 3
Fore
SplineSet
342 716 m 1
 236 462 l 1
 196 462 l 1
 248 716 l 1
 342 716 l 1
192 716 m 1
 86 462 l 1
 46 462 l 1
 98 716 l 1
 192 716 l 1
EndSplineSet
Validated: 1
Layer: 2
SplineSet
342 716 m 1,0,-1
 236 462 l 1,1,-1
 196 462 l 1,2,-1
 248 716 l 1,3,-1
 342 716 l 1,0,-1
192 716 m 1,4,-1
 86 462 l 1,5,-1
 46 462 l 1,6,-1
 98 716 l 1,7,-1
 192 716 l 1,4,-1
EndSplineSet
Validated: 1
EndChar

StartChar: uni2034
Encoding: 8244 8244 83
Width: 522
Flags: W
HStem: 462 254
LayerCount: 3
Fore
SplineSet
492 716 m 1
 386 462 l 1
 346 462 l 1
 398 716 l 1
 492 716 l 1
342 716 m 1
 236 462 l 1
 196 462 l 1
 248 716 l 1
 342 716 l 1
192 716 m 1
 86 462 l 1
 46 462 l 1
 98 716 l 1
 192 716 l 1
EndSplineSet
Validated: 1
Layer: 2
SplineSet
492 716 m 1,0,-1
 386 462 l 1,1,-1
 346 462 l 1,2,-1
 398 716 l 1,3,-1
 492 716 l 1,0,-1
342 716 m 1,4,-1
 236 462 l 1,5,-1
 196 462 l 1,6,-1
 248 716 l 1,7,-1
 342 716 l 1,4,-1
192 716 m 1,8,-1
 86 462 l 1,9,-1
 46 462 l 1,10,-1
 98 716 l 1,11,-1
 192 716 l 1,8,-1
EndSplineSet
Validated: 1
EndChar

StartChar: uni2035
Encoding: 8245 8245 84
Width: 206
Flags: W
HStem: 462 254
VStem: 30 146
LayerCount: 3
Fore
SplineSet
176 462 m 1
 136 462 l 1
 30 716 l 1
 124 716 l 1
 176 462 l 1
EndSplineSet
Validated: 1
Layer: 2
SplineSet
176 462 m 1,0,-1
 136 462 l 1,1,-1
 30 716 l 1,2,-1
 124 716 l 1,3,-1
 176 462 l 1,0,-1
EndSplineSet
Validated: 1
EndChar

StartChar: uni2036
Encoding: 8246 8246 85
Width: 356
Flags: W
HStem: 462 254
VStem: 30 296
LayerCount: 3
Fore
SplineSet
326 462 m 1
 286 462 l 1
 180 716 l 1
 274 716 l 1
 326 462 l 1
176 462 m 1
 136 462 l 1
 30 716 l 1
 124 716 l 1
 176 462 l 1
EndSplineSet
Validated: 1
Layer: 2
SplineSet
326 462 m 1,0,-1
 286 462 l 1,1,-1
 180 716 l 1,2,-1
 274 716 l 1,3,-1
 326 462 l 1,0,-1
176 462 m 1,4,-1
 136 462 l 1,5,-1
 30 716 l 1,6,-1
 124 716 l 1,7,-1
 176 462 l 1,4,-1
EndSplineSet
Validated: 1
EndChar

StartChar: uni2037
Encoding: 8247 8247 86
Width: 506
Flags: W
HStem: 462 254
LayerCount: 3
Fore
SplineSet
476 462 m 1
 436 462 l 1
 330 716 l 1
 424 716 l 1
 476 462 l 1
326 462 m 1
 286 462 l 1
 180 716 l 1
 274 716 l 1
 326 462 l 1
176 462 m 1
 136 462 l 1
 30 716 l 1
 124 716 l 1
 176 462 l 1
EndSplineSet
Validated: 1
Layer: 2
SplineSet
476 462 m 1,0,-1
 436 462 l 1,1,-1
 330 716 l 1,2,-1
 424 716 l 1,3,-1
 476 462 l 1,0,-1
326 462 m 1,4,-1
 286 462 l 1,5,-1
 180 716 l 1,6,-1
 274 716 l 1,7,-1
 326 462 l 1,4,-1
176 462 m 1,8,-1
 136 462 l 1,9,-1
 30 716 l 1,10,-1
 124 716 l 1,11,-1
 176 462 l 1,8,-1
EndSplineSet
Validated: 1
EndChar

StartChar: uni2038
Encoding: 8248 8248 87
Width: 312
Flags: W
HStem: -23 55<107.5 204.5>
VStem: 30 252
DStem2: 30 -175 80 -175 0.452376 0.891827<22.6188 192.557> 177 32 156 -23 0.452376 -0.891827<39.5506 209.489>
LayerCount: 3
Fore
SplineSet
282 -175 m 1
 232 -175 l 1
 156 -23 l 1
 80 -175 l 1
 30 -175 l 1
 135 32 l 1
 177 32 l 1
 282 -175 l 1
EndSplineSet
Validated: 1
Layer: 2
SplineSet
282 -175 m 1,0,-1
 232 -175 l 1,1,-1
 156 -23 l 1,2,-1
 80 -175 l 1,3,-1
 30 -175 l 1,4,-1
 135 32 l 1,5,-1
 177 32 l 1,6,-1
 282 -175 l 1,0,-1
EndSplineSet
Validated: 1
EndChar

StartChar: uni203D
Encoding: 8253 8253 88
Width: 556
Flags: W
HStem: 0 100<227 327>
VStem: 46 90<508.222 569.062> 223 109<0 100 457 634 707.969 747> 244 65<176 283.694> 418 90<459.205 592.107>
DStem2: 320 380 454 401.5 0.714359 0.69978<0.846184 155.377>
LayerCount: 3
Fore
SplineSet
332 712 m 1xe8
 388.667 702.667 432.167 682 462.5 650 c 0
 492.833 618 508 579 508 533 c 0
 508 517 506.5 502 503.5 488 c 0
 500.5 474 495 460 487 446 c 0
 479 432 468 417.167 454 401.5 c 0
 440 385.833 422 368.666 400 350 c 0
 382.667 334.667 368.167 322 356.5 312 c 0
 344.833 302 335.5 291.333 328.5 280 c 0
 321.5 268.667 316.5 255 313.5 239 c 0
 310.5 223 309 202 309 176 c 1
 244 176 l 1
 244 257 l 1xd8
 223 557 l 1
 223 634 l 1
 177 614 148 569 136 499 c 1
 46 509 l 1
 52 561.667 69.8333 606 99.5 642 c 0
 129.167 678 170.333 701 223 711 c 1
 223 747 l 1
 332 747 l 1
 332 712 l 1xe8
320 380 m 1
 369 428 l 2
 385.667 444 398 459.833 406 475.5 c 0
 414 491.167 418 508.333 418 527 c 0
 418 551 410.667 573 396 593 c 0
 381.333 613 360 627.333 332 636 c 1
 332 557 l 1xe8
 320 380 l 1
327 0 m 1
 227 0 l 1
 227 100 l 1
 327 100 l 1
 327 0 l 1
EndSplineSet
Validated: 1
Layer: 2
SplineSet
332 712 m 1,0,1
 417 698 417 698 462.5 650 c 128,-1,2
 508 602 508 602 508 533 c 0,3,4
 508 483 508 483 492 454 c 0,5,6
 463 403 463 403 400 350 c 0,7,8
 374 327 374 327 356.5 312 c 128,-1,9
 339 297 339 297 328 280 c 0,10,11
 309 248 309 248 309 176 c 1,12,-1
 244 176 l 1,13,-1
 244 257 l 1,14,-1
 223 557 l 1,15,-1
 223 634 l 1,16,17
 154 604 154 604 136 499 c 1,18,-1
 46 509 l 1,19,20
 55 588 55 588 100 642 c 0,21,22
 144 696 144 696 223 711 c 1,23,-1
 223 747 l 1,24,-1
 332 747 l 1,25,-1
 332 712 l 1,0,1
320 380 m 1,26,-1
 369 428 l 2,27,28
 418 475 418 475 418 527 c 0,29,30
 418 563 418 563 396 593 c 128,-1,31
 374 623 374 623 332 636 c 1,32,-1
 332 557 l 1,33,-1
 320 380 l 1,26,-1
327 0 m 1,34,-1
 227 0 l 1,35,-1
 227 100 l 1,36,-1
 327 100 l 1,37,-1
 327 0 l 1,34,-1
EndSplineSet
Validated: 1
EndChar

StartChar: uni203E
Encoding: 8254 8254 89
Width: 500
Flags: W
HStem: 740 50<-6 506>
LayerCount: 3
Fore
SplineSet
506 740 m 1
 -6 740 l 1
 -6 790 l 1
 506 790 l 1
 506 740 l 1
EndSplineSet
Validated: 1
Layer: 2
SplineSet
506 740 m 1,0,-1
 -6 740 l 1,1,-1
 -6 790 l 1,2,-1
 506 790 l 1,3,-1
 506 740 l 1,0,-1
EndSplineSet
Validated: 1
EndChar

StartChar: uni203F
Encoding: 8255 8255 90
Width: 945
Flags: W
HStem: -203 50<292.867 650.357> -49 53<3 56 888 941>
LayerCount: 3
Fore
SplineSet
941 -49 m 1
 911.667 -71.6667 878.667 -92.5 842 -111.5 c 0
 805.333 -130.5 766.667 -146.667 726 -160 c 0
 685.333 -173.333 643.5 -183.833 600.5 -191.5 c 0
 557.5 -199.167 514.667 -203 472 -203 c 256
 429.333 -203 386.333 -199.167 343 -191.5 c 0
 299.667 -183.833 257.833 -173.333 217.5 -160 c 0
 177.167 -146.667 138.667 -130.5 102 -111.5 c 0
 65.3333 -92.5 32.3333 -71.6667 3 -49 c 1
 3 4 l 1
 32.3333 -19.3333 65.1667 -40.5 101.5 -59.5 c 0
 137.833 -78.5 176.333 -95 217 -109 c 0
 257.667 -123 299.667 -133.833 343 -141.5 c 0
 386.333 -149.167 429.333 -153 472 -153 c 256
 514.667 -153 557.5 -149.167 600.5 -141.5 c 0
 643.5 -133.833 685.333 -123 726 -109 c 0
 766.668 -95 805.335 -78.5 842 -59.5 c 0
 878.667 -40.5 911.667 -19.3333 941 4 c 1
 941 -49 l 1
EndSplineSet
Validated: 1
Layer: 2
SplineSet
941 -49 m 1,0,1
 800 -157 800 -157 600 -192 c 0,2,3
 537 -203 537 -203 472 -203 c 0,4,5
 348 -203 348 -203 218 -160 c 0,6,7
 94 -119 94 -119 3 -49 c 1,8,-1
 3 4 l 1,9,10
 90 -65 90 -65 217 -109 c 128,-1,11
 344 -153 344 -153 472 -153 c 0,12,13
 662 -153 662 -153 842 -60 c 0,14,15
 897 -31 897 -31 941 4 c 1,16,-1
 941 -49 l 1,0,1
EndSplineSet
Validated: 1
EndChar

StartChar: uni2040
Encoding: 8256 8256 91
Width: 945
Flags: W
HStem: 578 53<3 56 888 941> 735 50<292.867 650.357>
LayerCount: 3
Fore
SplineSet
941 578 m 1
 911.667 600.667 878.667 621.667 842 641 c 0
 805.333 660.333 766.667 677 726 691 c 0
 685.333 705 643.5 715.833 600.5 723.5 c 0
 557.5 731.167 514.667 735 472 735 c 256
 429.333 735 386.333 731.167 343 723.5 c 0
 299.667 715.833 257.667 705 217 691 c 0
 176.333 677 137.833 660.333 101.5 641 c 0
 65.1667 621.667 32.3333 600.667 3 578 c 1
 3 631 l 1
 32.3333 653.667 65.3333 674.5 102 693.5 c 0
 138.667 712.5 177.167 728.667 217.5 742 c 0
 257.834 755.333 299.667 765.833 343 773.5 c 0
 386.333 781.167 429.333 785 472 785 c 256
 514.667 785 557.5 781.167 600.5 773.5 c 0
 643.5 765.833 685.333 755.167 726 741.5 c 0
 766.668 727.833 805.335 711.667 842 693 c 0
 878.667 674.333 911.667 653.667 941 631 c 1
 941 578 l 1
EndSplineSet
Validated: 1
Layer: 2
SplineSet
941 578 m 1,0,1
 798 688 798 688 600 724 c 0,2,3
 537 735 537 735 472 735 c 256,4,5
 278 735 278 735 102 641 c 0,6,7
 47 612 47 612 3 578 c 1,8,-1
 3 631 l 1,9,10
 141 738 141 738 343 774 c 0,11,12
 408 785 408 785 472 785 c 256,13,14
 661 785 661 785 842 693 c 0,15,16
 897 665 897 665 941 631 c 1,17,-1
 941 578 l 1,0,1
EndSplineSet
Validated: 1
EndChar

StartChar: uni2041
Encoding: 8257 8257 92
Width: 312
Flags: W
HStem: -175 321
VStem: 30 252
DStem2: 30 -175 80 -175 0.45276 0.891632<22.638 192.576> 177 32 156 -23 0.452376 -0.891827<39.5506 209.489>
LayerCount: 3
Fore
SplineSet
282 -175 m 1
 232 -175 l 1
 156 -23 l 1
 80 -175 l 1
 30 -175 l 1
 193 146 l 1
 235 146 l 1
 177 32 l 1
 282 -175 l 1
EndSplineSet
Validated: 1
Layer: 2
SplineSet
282 -175 m 1,0,-1
 232 -175 l 1,1,-1
 156 -23 l 1,2,-1
 80 -175 l 1,3,-1
 30 -175 l 1,4,-1
 193 146 l 1,5,-1
 235 146 l 1,6,-1
 177 32 l 1,7,-1
 282 -175 l 1,0,-1
EndSplineSet
Validated: 1
EndChar

StartChar: uni2042
Encoding: 8258 8258 93
Width: 820
Flags: W
HStem: -3 21G<101.857 133.667 255.333 288.095 531.857 563.667 685.331 718.095>
VStem: 159 70<181.341 302> 375 70<607.31 728> 589 70<181.341 302>
LayerCount: 3
Fore
SplineSet
572 584 m 1
 532.666 572 492 563 450 557 c 1
 457.334 550.333 468.167 539.333 482.5 524 c 0
 496.834 508.667 514.334 489 535 465 c 1
 476 423 l 1
 466.667 435.667 456.333 450.667 445 468 c 0
 433.667 485.333 421.667 505.333 409 528 c 1
 397.667 505.333 386.5 485.333 375.5 468 c 0
 364.5 450.667 354.333 435.667 345 423 c 1
 288 465 l 1
 335.333 522.333 362.333 553 369 557 c 1
 321.667 565.667 281.667 574.667 249 584 c 1
 272 654 l 1
 332 632 369.667 616 385 606 c 1
 381.667 634 379.167 658.167 377.5 678.5 c 0
 375.833 698.833 375 715.333 375 728 c 1
 445 728 l 1
 445 697.333 442 660.667 436 618 c 1
 434.667 615.333 434 611.667 434 607 c 1
 449.333 614.333 466.5 622 485.5 630 c 0
 504.5 638 525.667 646 549 654 c 1
 572 584 l 1
786 158 m 1
 746.667 146 706 137 664 131 c 1
 671.333 124.333 682.167 113.333 696.5 98 c 0
 710.833 82.6667 728.333 63 749 39 c 1
 690 -3 l 1
 680.661 9.66667 670.328 24.6667 659 42 c 0
 647.667 59.3333 635.667 79.3333 623 102 c 1
 611 79.3333 599.667 59.3333 589 42 c 0
 578.333 24.6667 568.333 9.66667 559 -3 c 1
 502 39 l 1
 549.333 96.3333 576.333 127 583 131 c 1
 535.666 139.667 495.666 148.667 463 158 c 1
 486 228 l 1
 546 206 583.667 190 599 180 c 1
 595.667 208.667 593.167 233 591.5 253 c 0
 589.833 273 589 289.333 589 302 c 1
 659 302 l 1
 659 271.333 656 234.667 650 192 c 1
 648.667 189.333 648 185.667 648 181 c 1
 663.333 188.333 680.5 196 699.5 204 c 0
 718.5 212 739.667 220 763 228 c 1
 786 158 l 1
356 158 m 1
 316.667 146 276 137 234 131 c 1
 241.333 124.333 252.167 113.333 266.5 98 c 0
 280.833 82.6667 298.333 63 319 39 c 1
 260 -3 l 1
 250.666 9.66667 240.333 24.6667 229 42 c 0
 217.667 59.3333 205.667 79.3333 193 102 c 1
 181 79.3333 169.667 59.3333 159 42 c 0
 148.333 24.6667 138.333 9.66667 129 -3 c 1
 72 39 l 1
 120.667 97 147.667 127.667 153 131 c 1
 105.667 139.667 65.6667 148.667 33 158 c 1
 56 228 l 1
 116 206 153.667 190 169 180 c 1
 165.667 208.667 163.167 233 161.5 253 c 0
 159.833 273 159 289.333 159 302 c 1
 229 302 l 1
 229 271.333 226 234.667 220 192 c 1
 218.667 189.333 218 185.667 218 181 c 1
 233.333 188.333 250.5 196 269.5 204 c 0
 288.5 212 309.667 220 333 228 c 1
 356 158 l 1
EndSplineSet
Validated: 1
Layer: 2
SplineSet
572 584 m 1,0,1
 513 566 513 566 450 557 c 1,2,3
 477 533 477 533 535 465 c 1,4,-1
 476 423 l 1,5,6
 442 470 442 470 409 528 c 1,7,8
 381 472 381 472 345 423 c 1,9,-1
 288 465 l 1,10,11
 359 551 359 551 369 557 c 1,12,13
 298 570 298 570 249 584 c 1,14,-1
 272 654 l 1,15,16
 362 621 362 621 385 606 c 1,17,18
 375 690 375 690 375 728 c 1,19,-1
 445 728 l 1,20,21
 445 682 445 682 436 618 c 1,22,23
 434 614 434 614 434 607 c 1,24,25
 490 634 490 634 549 654 c 1,26,-1
 572 584 l 1,0,1
786 158 m 1,27,28
 727 140 727 140 664 131 c 1,29,30
 691 107 691 107 749 39 c 1,31,-1
 690 -3 l 1,32,33
 656 44 656 44 623 102 c 1,34,35
 589 38 589 38 559 -3 c 1,36,-1
 502 39 l 1,37,38
 573 125 573 125 583 131 c 1,39,40
 512 144 512 144 463 158 c 1,41,-1
 486 228 l 1,42,43
 576 195 576 195 599 180 c 1,44,45
 589 266 589 266 589 302 c 1,46,-1
 659 302 l 1,47,48
 659 256 659 256 650 192 c 1,49,50
 648 188 648 188 648 181 c 1,51,52
 704 208 704 208 763 228 c 1,53,-1
 786 158 l 1,27,28
356 158 m 1,54,55
 297 140 297 140 234 131 c 1,56,57
 261 107 261 107 319 39 c 1,58,-1
 260 -3 l 1,59,60
 226 44 226 44 193 102 c 1,61,62
 159 38 159 38 129 -3 c 1,63,-1
 72 39 l 1,64,65
 145 126 145 126 153 131 c 1,66,67
 82 144 82 144 33 158 c 1,68,-1
 56 228 l 1,69,70
 146 195 146 195 169 180 c 1,71,72
 159 266 159 266 159 302 c 1,73,-1
 229 302 l 1,74,75
 229 256 229 256 220 192 c 1,76,77
 218 188 218 188 218 181 c 1,78,79
 274 208 274 208 333 228 c 1,80,-1
 356 158 l 1,54,55
EndSplineSet
Validated: 1
EndChar

StartChar: uni2043
Encoding: 8259 8259 94
Width: 333
Flags: W
HStem: 185 148<32 301>
VStem: 32 269<185 333>
LayerCount: 3
Fore
SplineSet
301 185 m 1
 32 185 l 1
 32 333 l 1
 301 333 l 1
 301 185 l 1
EndSplineSet
Validated: 1
Layer: 2
SplineSet
301 185 m 1,0,-1
 32 185 l 1,1,-1
 32 333 l 1,2,-1
 301 333 l 1,3,-1
 301 185 l 1,0,-1
EndSplineSet
Validated: 1
EndChar

StartChar: uni2045
Encoding: 8261 8261 95
Width: 278
Flags: W
HStem: -199 73<156 262> 236 43<156 262> 643 73<156 262>
VStem: 68 194<-199 -126 236 279 643 716> 68 88<-126 236 279 643>
LayerCount: 3
Fore
SplineSet
262 -199 m 1xf0
 68 -199 l 1
 68 716 l 1
 262 716 l 1
 262 643 l 1xf0
 156 643 l 1
 156 279 l 1xe8
 262 279 l 1
 262 236 l 1xf0
 156 236 l 1
 156 -126 l 1xe8
 262 -126 l 1
 262 -199 l 1xf0
EndSplineSet
Validated: 1
Layer: 2
SplineSet
262 -199 m 1,0,-1
 68 -199 l 1,1,-1
 68 716 l 1,2,-1
 262 716 l 1,3,-1
 262 643 l 1,4,-1
 156 643 l 1,5,-1
 156 279 l 1,6,-1
 262 279 l 1,7,-1
 262 236 l 1,8,-1
 156 236 l 1,9,-1
 156 -126 l 1,10,-1
 262 -126 l 1,11,-1
 262 -199 l 1,0,-1
EndSplineSet
Validated: 1
EndChar

StartChar: uni2046
Encoding: 8262 8262 96
Width: 278
Flags: W
HStem: -199 73<16 122> 236 43<16 122> 643 73<16 122>
VStem: 16 194<-199 -126 236 279 643 716> 122 88<-126 236 279 643>
LayerCount: 3
Fore
SplineSet
210 -199 m 1xf0
 16 -199 l 1
 16 -126 l 1xf0
 122 -126 l 1
 122 236 l 1xe8
 16 236 l 1
 16 279 l 1xf0
 122 279 l 1
 122 643 l 1xe8
 16 643 l 1
 16 716 l 1
 210 716 l 1
 210 -199 l 1xf0
EndSplineSet
Validated: 1
Layer: 2
SplineSet
210 -199 m 1,0,-1
 16 -199 l 1,1,-1
 16 -126 l 1,2,-1
 122 -126 l 1,3,-1
 122 236 l 1,4,-1
 16 236 l 1,5,-1
 16 279 l 1,6,-1
 122 279 l 1,7,-1
 122 643 l 1,8,-1
 16 643 l 1,9,-1
 16 716 l 1,10,-1
 210 716 l 1,11,-1
 210 -199 l 1,0,-1
EndSplineSet
Validated: 1
EndChar

StartChar: uni201B
Encoding: 8219 8219 97
Width: 222
Flags: W
HStem: 614 102<112 158>
VStem: 64 94<614.062 716> 64 48<540.562 614>
LayerCount: 3
Fore
SplineSet
166 516 m 1xa0
 144 482 l 1
 124.667 492 109.667 502.5 99 513.5 c 0
 88.3333 524.5 80.5 536.333 75.5 549 c 0
 70.5 561.667 67.3333 575.167 66 589.5 c 0
 64.6667 603.833 64 619.333 64 636 c 2
 64 716 l 1
 158 716 l 1
 158 614 l 1xc0
 112 614 l 1
 112.667 564 130.667 531.333 166 516 c 1xa0
EndSplineSet
Validated: 1
Layer: 2
SplineSet
166 516 m 1,0,-1
 144 482 l 1,1,2
 91 509 91 509 76 549 c 0,3,4
 64 578 64 578 64 636 c 2,5,-1
 64 716 l 1,6,-1
 158 716 l 1,7,-1
 158 614 l 1,8,-1
 112 614 l 1,9,10
 113 539 113 539 166 516 c 1,0,-1
EndSplineSet
Validated: 1
EndChar

StartChar: uni2023
Encoding: 8227 8227 98
Width: 350
Flags: W
HStem: 197 307
VStem: 52 269
LayerCount: 3
Fore
SplineSet
321 350 m 1
 52 197 l 1
 52 504 l 1
 321 350 l 1
EndSplineSet
Validated: 1
Layer: 2
SplineSet
321 350 m 1,0,-1
 52 197 l 1,1,-1
 52 504 l 1,2,-1
 321 350 l 1,0,-1
EndSplineSet
Validated: 1
EndChar

StartChar: uni2024
Encoding: 8228 8228 99
Width: 278
Flags: W
HStem: 0 100<89 189>
VStem: 89 100<0 100>
LayerCount: 3
Fore
SplineSet
189 0 m 1
 89 0 l 1
 89 100 l 1
 189 100 l 1
 189 0 l 1
EndSplineSet
Validated: 1
Layer: 2
SplineSet
189 0 m 1,0,-1
 89 0 l 1,1,-1
 89 100 l 1,2,-1
 189 100 l 1,3,-1
 189 0 l 1,0,-1
EndSplineSet
Validated: 1
EndChar

StartChar: uni2025
Encoding: 8229 8229 100
Width: 556
Flags: W
HStem: 0 100<89 189 367 467>
VStem: 89 100<0 100> 367 100<0 100>
LayerCount: 3
Fore
SplineSet
467 0 m 1
 367 0 l 1
 367 100 l 1
 467 100 l 1
 467 0 l 1
189 0 m 1
 89 0 l 1
 89 100 l 1
 189 100 l 1
 189 0 l 1
EndSplineSet
Validated: 1
Layer: 2
SplineSet
467 0 m 1,0,-1
 367 0 l 1,1,-1
 367 100 l 1,2,-1
 467 100 l 1,3,-1
 467 0 l 1,0,-1
189 0 m 1,4,-1
 89 0 l 1,5,-1
 89 100 l 1,6,-1
 189 100 l 1,7,-1
 189 0 l 1,4,-1
EndSplineSet
Validated: 1
EndChar

StartChar: uni2010
Encoding: 8208 8208 101
Width: 31
Flags: W
HStem: 211 88<-132 137>
VStem: -132 269<211 299>
LayerCount: 3
Fore
SplineSet
137 211 m 1
 -132 211 l 1
 -132 299 l 1
 137 299 l 1
 137 211 l 1
EndSplineSet
Validated: 1
Layer: 2
SplineSet
137 211 m 1,0,-1
 -132 211 l 1,1,-1
 -132 299 l 1,2,-1
 137 299 l 1,3,-1
 137 211 l 1,0,-1
EndSplineSet
Validated: 1
EndChar

StartChar: uni2011
Encoding: 8209 8209 102
Width: 333
Flags: W
HStem: 215 88<32 301>
VStem: 32 269<215 303>
LayerCount: 3
Fore
SplineSet
301 215 m 1
 32 215 l 1
 32 303 l 1
 301 303 l 1
 301 215 l 1
EndSplineSet
Validated: 1
Layer: 2
SplineSet
301 215 m 1,0,-1
 32 215 l 1,1,-1
 32 303 l 1,2,-1
 301 303 l 1,3,-1
 301 215 l 1,0,-1
EndSplineSet
Validated: 1
EndChar

StartChar: uni2012
Encoding: 8210 8210 103
Width: 31
Flags: W
HStem: 221 72<-278 290>
LayerCount: 3
Fore
SplineSet
290 221 m 1
 -278 221 l 1
 -278 293 l 1
 290 293 l 1
 290 221 l 1
EndSplineSet
Validated: 1
Layer: 2
SplineSet
290 221 m 1,0,-1
 -278 221 l 1,1,-1
 -278 293 l 1,2,-1
 290 293 l 1,3,-1
 290 221 l 1,0,-1
EndSplineSet
Validated: 1
EndChar

StartChar: uni2015
Encoding: 8213 8213 104
Width: 564
Flags: W
HStem: 223 72<26 538>
LayerCount: 3
Fore
SplineSet
538 223 m 1
 26 223 l 1
 26 295 l 1
 538 295 l 1
 538 223 l 1
EndSplineSet
Validated: 1
Layer: 2
SplineSet
538 223 m 1,0,-1
 26 223 l 1,1,-1
 26 295 l 1,2,-1
 538 295 l 1,3,-1
 538 223 l 1,0,-1
EndSplineSet
Validated: 1
EndChar

StartChar: uni2016
Encoding: 8214 8214 105
Width: 31
Flags: W
VStem: -122 76<-84 717> 46 76<-84 717>
LayerCount: 3
Fore
SplineSet
122 -84 m 1
 46 -84 l 1
 46 717 l 1
 122 717 l 1
 122 -84 l 1
-46 -84 m 1
 -122 -84 l 1
 -122 717 l 1
 -46 717 l 1
 -46 -84 l 1
EndSplineSet
Validated: 1
Layer: 2
SplineSet
122 -84 m 1,0,-1
 46 -84 l 1,1,-1
 46 717 l 1,2,-1
 122 717 l 1,3,-1
 122 -84 l 1,0,-1
-46 -84 m 1,4,-1
 -122 -84 l 1,5,-1
 -122 717 l 1,6,-1
 -46 717 l 1,7,-1
 -46 -84 l 1,4,-1
EndSplineSet
Validated: 1
EndChar

StartChar: uni2017
Encoding: 8215 8215 106
Width: 500
Flags: W
HStem: -165 50<-6 506> -85 50<-6 506>
LayerCount: 3
Fore
SplineSet
506 -85 m 1
 -6 -85 l 1
 -6 -35 l 1
 506 -35 l 1
 506 -85 l 1
506 -165 m 1
 -6 -165 l 1
 -6 -115 l 1
 506 -115 l 1
 506 -165 l 1
EndSplineSet
Validated: 1
Layer: 2
SplineSet
506 -85 m 1,0,-1
 -6 -85 l 1,1,-1
 -6 -35 l 1,2,-1
 506 -35 l 1,3,-1
 506 -85 l 1,0,-1
506 -165 m 1,4,-1
 -6 -165 l 1,5,-1
 -6 -115 l 1,6,-1
 506 -115 l 1,7,-1
 506 -165 l 1,4,-1
EndSplineSet
Validated: 1
EndChar

StartChar: uniA644
Encoding: 42564 42564 107
Width: 572
Flags: HW
HStem: -21 68<243.943 343.849> 155 44<318 354.078> 419 45<202.828 243> 553 70<217.724 343.28>
VStem: 43 159<433.734 536.452> 85 129<76.4272 213.057> 359 141<62.2747 149.735> 369 160<391.898 525.93>
AnchorPoint: "Diacritic" 268 751 basechar 0
LayerCount: 3
Fore
SplineSet
271 623 m 0xf9
 416 623 529 583 529 450 c 0xf9
 529 362 456 299 310 261 c 1
 273 248 248 231 235 212 c 0
 221 193 214 170 214 145 c 0
 214 95 242 47 291 47 c 0
 330 47 359 70 359 109 c 0
 359 137 345 152 318 155 c 1
 318 199 l 1
 482 199 l 1
 492 187 500 168 500 148 c 0
 500 28 414 -21 286 -21 c 0
 157 -21 85 37 85 154 c 0xf6
 85 227 125 278 205 308 c 0
 260 329 305 348 338 381 c 0
 358 401 369 423 369 459 c 0
 369 516 341 553 286 553 c 0
 241 553 202 536 202 493 c 0
 202 475 216 464 243 464 c 1
 243 419 l 1
 45 419 l 1
 45 429 43 438 43 448 c 0
 43 565 119 623 271 623 c 0xf9
EndSplineSet
Layer: 2
SplineSet
47 419 m 1,0,-1
 45 448 l 1,1,2
 45 623 45 623 273 623 c 0,3,4
 531 623 531 623 531 450 c 0,5,6
 531 318 531 318 312 261 c 1,7,8
 257 242 257 242 237 212 c 1,9,10
 216 184 216 184 216 144.5 c 128,-1,11
 216 105 216 105 237 76 c 128,-1,12
 258 47 258 47 290.5 47 c 128,-1,13
 323 47 323 47 342 63.5 c 128,-1,14
 361 80 361 80 361 109 c 0,15,16
 361 150 361 150 320 155 c 1,17,-1
 320 199 l 1,18,-1
 484 199 l 1,19,20
 502 177 502 177 502 148 c 0,21,22
 502 61 502 61 445.5 20 c 128,-1,23
 389 -21 389 -21 289.5 -21 c 128,-1,24
 190 -21 190 -21 138.5 23 c 128,-1,25
 87 67 87 67 87 154 c 0,26,27
 87 263 87 263 207 308 c 0,28,29
 304 345 304 345 337.5 378.5 c 128,-1,30
 371 412 371 412 371 457.5 c 128,-1,31
 371 503 371 503 349.5 528 c 128,-1,32
 328 553 328 553 289.5 553 c 128,-1,33
 251 553 251 553 227.5 538 c 128,-1,34
 204 523 204 523 204 493.5 c 128,-1,35
 204 464 204 464 245 464 c 1,36,-1
 245 419 l 1,37,-1
 47 419 l 1,0,-1
EndSplineSet
Validated: 1
EndChar

StartChar: uniA640
Encoding: 42560 42560 108
Width: 757
Flags: HW
HStem: 543 67<267.605 523.5>
VStem: 580.5 136<-297.58 -135.913>
DStem2: 218.5 46 417.5 84 0.528727 0.848792<137.471 565.287>
AnchorPoint: "Diacritic" 408.5 751 basechar 0
LayerCount: 3
Fore
SplineSet
344.5 543 m 2
 265.5 543 220.5 494 211.5 425 c 1
 155.5 425 l 1
 40.5 564 l 1
 40.5 610 l 1
 716.5 610 l 1
 716.5 564 l 1
 417.5 84 l 1
 547.5 73 645.5 7 692.5 -88 c 0
 708.5 -121 716.5 -156 716.5 -193 c 0
 716.5 -240 702.5 -289 674.5 -340 c 0
 647.5 -392 601.5 -444 537.5 -497 c 1
 489.5 -497 l 1
 501.5 -484 l 1
 533.5 -441 558.5 -377 572.5 -314 c 0
 577.5 -289 580.5 -265 580.5 -240 c 0
 580.5 -115 509.5 -53 409.5 -20 c 0
 366.5 -7 312.5 0 247.5 0 c 2
 218.5 0 l 1
 218.5 46 l 1
 523.5 522 l 1
 523.5 524 l 2
 523.5 542 468.5 543 431.5 543 c 0
 424.5 543 417.5 543 412.5 543 c 2
 344.5 543 l 2
EndSplineSet
Layer: 2
SplineSet
344 543 m 2,0,1
 287 543 287 543 252.5 511 c 128,-1,2
 218 479 218 479 211 425 c 1,3,-1
 155 425 l 1,4,-1
 40 564 l 1,5,-1
 40 610 l 1,6,-1
 716 610 l 1,7,-1
 716 564 l 1,8,-1
 417 84 l 1,9,10
 513 76 513 76 584 30 c 0,11,12
 657 -16 657 -16 692 -88 c 0,13,14
 716 -137 716 -137 716 -201 c 0,15,16
 716 -264 716 -264 675 -340 c 128,-1,17
 634 -416 634 -416 537 -497 c 1,18,-1
 489 -497 l 1,19,-1
 501 -484 l 1,20,21
 548 -420 548 -420 572 -314 c 1,22,23
 580 -274 580 -274 580 -240 c 0,24,25
 580 -76 580 -76 409 -20 c 1,26,27
 343 0 343 0 247 0 c 2,28,-1
 218 0 l 1,29,-1
 218 46 l 1,30,-1
 523 522 l 1,31,-1
 523 524 l 2,32,33
 523 543 523 543 431 543 c 2,34,-1
 344 543 l 2,0,1
EndSplineSet
Validated: 1
EndChar

